<svg width="290" height="370" viewBox="0 0 290 370" fill="none" xmlns="http://www.w3.org/2000/svg">
<g clip-path="url(#clip0_115_2856)">
<path d="M250 52.16H276.48V40.97H250V52.16Z" stroke="#EBEBEB" stroke-width="0.75" stroke-miterlimit="10"/>
<path d="M264.77 38.05H291.25V26.86L264.77 26.86V38.05Z" stroke="#EBEBEB" stroke-width="0.75" stroke-miterlimit="10"/>
<path d="M279.48 52.16H305.96V40.97H279.48V52.16Z" stroke="#EBEBEB" stroke-width="0.75" stroke-miterlimit="10"/>
<path d="M41.3401 57.9199H67.8201V46.7299H41.3401V57.9199Z" stroke="#EBEBEB" stroke-width="0.75" stroke-miterlimit="10"/>
<path d="M56.1201 191.04H82.6001V179.85H56.1201V191.04Z" stroke="#EBEBEB" stroke-width="0.75" stroke-miterlimit="10"/>
<path d="M41.3401 176.93H67.8201V165.74H41.3401V176.93Z" stroke="#EBEBEB" stroke-width="0.75" stroke-miterlimit="10"/>
<path d="M208.82 291.54V165.88L235.55 129.39V61.06" stroke="#EBEBEB" stroke-miterlimit="10"/>
<path d="M233.18 58.73C233.18 59.2011 233.32 59.6617 233.582 60.0533C233.844 60.4449 234.216 60.7499 234.652 60.9298C235.087 61.1096 235.566 61.1561 236.028 61.0635C236.49 60.9709 236.914 60.7432 237.247 60.4093C237.579 60.0755 237.805 59.6505 237.896 59.1881C237.986 58.7258 237.938 58.247 237.756 57.8122C237.574 57.3775 237.268 57.0065 236.875 56.7462C236.482 56.4859 236.021 56.348 235.55 56.35C235.238 56.35 234.929 56.4116 234.641 56.5313C234.353 56.6511 234.091 56.8265 233.871 57.0477C233.65 57.2688 233.476 57.5313 233.358 57.82C233.239 58.1086 233.179 58.4179 233.18 58.73Z" stroke="#EBEBEB" stroke-miterlimit="10"/>
<path d="M215.71 291.54V170.29L242.44 133.8V86.06" stroke="#EBEBEB" stroke-miterlimit="10"/>
<path d="M240.06 83.72C240.058 84.1911 240.196 84.6522 240.456 85.0449C240.717 85.4376 241.088 85.7442 241.522 85.9259C241.957 86.1076 242.436 86.1561 242.898 86.0654C243.361 85.9747 243.786 85.7489 244.119 85.4164C244.453 85.084 244.681 84.6599 244.774 84.198C244.866 83.736 244.82 83.257 244.64 82.8215C244.46 82.386 244.155 82.0137 243.763 81.7518C243.372 81.4898 242.911 81.35 242.44 81.35C241.811 81.35 241.207 81.5993 240.761 82.0435C240.315 82.4877 240.063 83.0905 240.06 83.72Z" stroke="#EBEBEB" stroke-miterlimit="10"/>
<path d="M202.19 291.54V125.13" stroke="#EBEBEB" stroke-miterlimit="10"/>
<path d="M199.81 122.75C199.808 123.221 199.946 123.682 200.206 124.075C200.467 124.468 200.838 124.774 201.272 124.956C201.707 125.138 202.186 125.186 202.648 125.095C203.111 125.005 203.536 124.779 203.869 124.446C204.203 124.114 204.431 123.69 204.524 123.228C204.616 122.766 204.57 122.287 204.39 121.852C204.21 121.416 203.905 121.044 203.513 120.782C203.122 120.52 202.661 120.38 202.19 120.38C201.561 120.38 200.957 120.629 200.511 121.074C200.065 121.518 199.813 122.121 199.81 122.75Z" stroke="#EBEBEB" stroke-miterlimit="10"/>
<path d="M195.8 291.54V206.96L177.66 172.74V111.37" stroke="#EBEBEB" stroke-miterlimit="10"/>
<path d="M175.28 109C175.28 109.471 175.42 109.931 175.681 110.322C175.943 110.714 176.314 111.019 176.749 111.199C177.184 111.379 177.663 111.426 178.124 111.334C178.586 111.242 179.01 111.016 179.343 110.683C179.676 110.35 179.902 109.926 179.994 109.464C180.086 109.003 180.039 108.524 179.859 108.089C179.679 107.654 179.374 107.283 178.982 107.021C178.591 106.76 178.131 106.62 177.66 106.62C177.347 106.619 177.037 106.679 176.748 106.798C176.458 106.918 176.195 107.093 175.974 107.314C175.753 107.535 175.578 107.798 175.459 108.088C175.339 108.377 175.279 108.687 175.28 109Z" stroke="#EBEBEB" stroke-miterlimit="10"/>
<path d="M189.45 291.54V210.62L168.06 172.78V132.37" stroke="#EBEBEB" stroke-miterlimit="10"/>
<path d="M165.68 130C165.678 130.471 165.816 130.932 166.076 131.325C166.337 131.718 166.708 132.024 167.142 132.206C167.577 132.388 168.056 132.436 168.518 132.345C168.981 132.255 169.406 132.029 169.739 131.696C170.073 131.364 170.301 130.94 170.394 130.478C170.486 130.016 170.44 129.537 170.26 129.102C170.08 128.666 169.775 128.294 169.383 128.032C168.992 127.77 168.531 127.63 168.06 127.63C167.431 127.633 166.829 127.883 166.384 128.326C165.938 128.77 165.685 129.371 165.68 130Z" stroke="#EBEBEB" stroke-miterlimit="10"/>
<path d="M110.72 37.56V0" stroke="#C7C7C7" stroke-miterlimit="10"/>
<path d="M133.93 59.9201L132.06 64.0301H89.38L87.52 59.9201L105.69 47.3501H115.76L133.93 59.9201Z" fill="#EBEBEB"/>
<path d="M117.02 35L115.76 47.12H105.69L104.43 35H117.02Z" fill="#DBDBDB"/>
<path d="M133.93 59.9299L132.06 64.0299H89.38L87.52 59.9299H133.93Z" fill="#DBDBDB"/>
<path d="M203.58 37.56V0" stroke="#C7C7C7" stroke-miterlimit="10"/>
<path d="M226.78 59.9201L224.91 64.0301H182.23L180.37 59.9201L198.54 47.3501H208.61L226.78 59.9201Z" fill="#EBEBEB"/>
<path d="M209.87 35.23L208.61 47.35H198.54L197.28 35.23H209.87Z" fill="#DBDBDB"/>
<path d="M226.78 59.9299L224.91 64.0299H182.23L180.37 59.9299H226.78Z" fill="#DBDBDB"/>
<path d="M183.79 330.4C242.559 330.4 290.2 322.793 290.2 313.41C290.2 304.027 242.559 296.42 183.79 296.42C125.021 296.42 77.38 304.027 77.38 313.41C77.38 322.793 125.021 330.4 183.79 330.4Z" fill="#EBEBEB"/>
<path d="M70.02 223.74H43.46V250.3H70.02V223.74Z" fill="#37474F"/>
<path d="M56.74 245.88C61.6388 245.88 65.61 241.909 65.61 237.01C65.61 232.111 61.6388 228.14 56.74 228.14C51.8412 228.14 47.87 232.111 47.87 237.01C47.87 241.909 51.8412 245.88 56.74 245.88Z" fill="#455A64"/>
<path d="M55.12 233.43H53.12V240.75H55.12V233.43Z" fill="#263238"/>
<path d="M60.6799 233.43H58.6799V240.75H60.6799V233.43Z" fill="#263238"/>
<path d="M36.85 291.59L90.14 291.35L143.43 291.26L250 291.09L356.57 291.26L409.86 291.35L463.15 291.59L409.86 291.84L356.57 291.93L250 292.09L143.43 291.92L90.14 291.83L36.85 291.59Z" fill="#263238"/>
<path d="M128.08 266.52C129.08 268.64 125.24 283.83 124.08 286.95C122.92 290.07 118.69 307.48 116.65 308.23C114.61 308.98 104.72 308.77 103.32 308.23C101.92 307.69 103.32 304.72 104.93 303.68C106.54 302.64 108.47 301.05 108.47 301.05C108.47 301.05 105.58 274.16 106.12 271.15C106.66 268.14 125.48 260.83 128.08 266.52Z" fill="#FFC727"/>
<path opacity="0.1" d="M128.08 266.52C129.08 268.64 125.24 283.83 124.08 286.95C122.92 290.07 118.69 307.48 116.65 308.23C114.61 308.98 104.72 308.77 103.32 308.23C101.92 307.69 103.32 304.72 104.93 303.68C106.54 302.64 108.47 301.05 108.47 301.05C108.47 301.05 105.58 274.16 106.12 271.15C106.66 268.14 125.48 260.83 128.08 266.52Z" fill="black"/>
<path opacity="0.1" d="M107.4 307.06C107.509 306.523 107.731 306.015 108.05 305.57C108.369 305.134 108.75 304.747 109.18 304.42C109.598 304.09 110.082 303.855 110.6 303.73C110.616 303.723 110.633 303.723 110.649 303.728C110.666 303.733 110.679 303.744 110.688 303.759C110.696 303.774 110.699 303.791 110.696 303.808C110.693 303.825 110.683 303.84 110.67 303.85C110.49 304.01 110.29 304.15 110.12 304.32C109.95 304.49 109.76 304.67 109.6 304.85C109.272 305.202 108.986 305.591 108.75 306.01C108.5 306.42 108.27 306.84 108.05 307.28C107.83 307.72 107.72 308.19 107.55 308.65C107.55 308.677 107.539 308.702 107.521 308.721C107.502 308.739 107.476 308.75 107.45 308.75C107.423 308.75 107.398 308.739 107.379 308.721C107.36 308.702 107.35 308.677 107.35 308.65C107.25 308.123 107.267 307.58 107.4 307.06Z" fill="black"/>
<path opacity="0.1" d="M104.51 305.48C105.06 304.531 105.907 303.79 106.92 303.37C106.99 303.37 107.06 303.42 107 303.47C106.235 304.073 105.585 304.808 105.08 305.64C104.828 306.065 104.664 306.536 104.598 307.026C104.533 307.516 104.568 308.014 104.7 308.49C104.7 308.49 104.7 308.55 104.63 308.49C104.338 308.047 104.173 307.532 104.152 307.002C104.131 306.471 104.255 305.945 104.51 305.48Z" fill="black"/>
<path opacity="0.1" d="M106.94 286L120.53 298.86C122.03 293.93 123.43 288.57 124.04 286.98C125.24 283.86 129.04 268.67 128.04 266.55C125.43 260.86 106.56 268.17 106.04 271.18C105.83 272.57 106.33 279.27 106.94 286Z" fill="black"/>
<path d="M179.41 281.72C179.96 282.24 185.31 277.18 186.13 274.81C186.95 272.44 183.53 265.75 184.13 264.61C184.73 263.47 187.68 262.56 189.19 264.31C190.7 266.06 194.57 275.65 193.77 279.75C192.97 283.85 184.74 293 183.87 293C183 293 179.41 281.72 179.41 281.72Z" fill="#FFC727"/>
<path opacity="0.1" d="M179.41 281.72C179.41 281.72 183.02 292.92 183.87 292.97C184.5 292.97 189.08 288.11 191.82 283.88L184.33 277.57C182.44 279.8 179.79 282.08 179.41 281.72Z" fill="black"/>
<path d="M149.19 235.46H104.79C104.79 235.46 101.49 264.7 101.85 268.57C102.21 272.44 121.72 301.11 127.77 304.81C133.82 308.51 168.6 308.69 177.06 306.81C183.64 305.36 189.13 296.96 186.4 284.03C185.21 278.37 169.79 264.89 167.64 262.31C165.49 259.73 149.19 235.46 149.19 235.46Z" fill="#C7C7C7"/>
<path d="M101.85 268.57C102.21 272.44 121.72 301.11 127.78 304.81C133.84 308.51 168.6 308.69 177.07 306.81C183.64 305.36 189.14 296.96 186.4 284.02C185.21 278.37 169.8 264.89 167.65 262.31C166.33 260.73 159.71 251.01 154.77 243.71C151.64 239.09 149.19 235.44 149.19 235.44H104.79C104.79 235.44 103.96 242.78 103.18 250.59C102.4 258.4 101.67 266.64 101.85 268.57Z" fill="#FFC727"/>
<path opacity="0.1" d="M103.18 250.61C127.04 257.97 148.26 247.5 154.77 243.73C151.64 239.11 149.19 235.46 149.19 235.46H104.79C104.79 235.46 104 242.8 103.18 250.61Z" fill="black"/>
<path d="M177.91 282.64C177.91 282.64 165.69 274.97 157.12 276.35C148.55 277.73 145.52 295.35 149.63 305.24C149.63 305.24 141.81 307.56 141.81 311.34C141.81 313.49 146.28 314.18 152.72 314.02C159.16 313.86 171.98 313.74 172.26 312.12C172.32 310.785 172.03 309.458 171.42 308.27C171.42 308.27 182.99 306.97 185.26 299.27C187.53 291.57 179.84 283.93 177.91 282.64Z" fill="#FFC727"/>
<path opacity="0.1" d="M161.22 306.11C164.495 307.451 167.975 308.222 171.51 308.39C171.58 308.39 171.6 308.51 171.51 308.52C167.906 308.876 164.283 308.059 161.18 306.19C161.14 306.17 161.17 306.08 161.22 306.11Z" fill="black"/>
<path opacity="0.1" d="M146.84 314.07C147.265 312.631 148.214 311.404 149.5 310.63C150.197 310.148 150.958 309.764 151.76 309.49C152.68 309.18 153.62 309.01 154.55 308.72C154.62 308.72 154.68 308.81 154.55 308.84C153.755 309.128 152.985 309.482 152.25 309.9C151.503 310.286 150.779 310.713 150.08 311.18C148.928 312.016 147.916 313.028 147.08 314.18C147.05 314.31 146.8 314.24 146.84 314.07Z" fill="black"/>
<path opacity="0.1" d="M148.42 308C148.436 308 148.451 308.006 148.462 308.018C148.474 308.029 148.48 308.044 148.48 308.06C148.48 308.076 148.474 308.091 148.462 308.102C148.451 308.114 148.436 308.12 148.42 308.12C146.053 309.108 144.166 310.981 143.16 313.34C143.16 313.44 142.94 313.44 142.96 313.34C143.155 311.973 143.796 310.708 144.783 309.743C145.77 308.777 147.049 308.165 148.42 308Z" fill="black"/>
<path opacity="0.1" d="M144.61 307.45C144.61 307.45 144.61 307.51 144.61 307.5C146.133 306.599 147.745 305.859 149.42 305.29C149.62 305.64 149.83 305.99 150.06 306.29C150.06 306.36 150.21 306.29 150.17 306.23C148.71 303.144 147.978 299.764 148.03 296.35C148.037 294.542 148.143 292.736 148.35 290.94C148.769 287.79 149.752 284.742 151.25 281.94C152.093 280.18 153.396 278.681 155.02 277.6C156.773 276.747 158.73 276.4 160.67 276.6C162.672 276.734 164.652 277.1 166.57 277.69C168.519 278.229 170.43 278.898 172.29 279.69C168.723 277.664 164.797 276.35 160.73 275.82C158.623 275.526 156.476 275.875 154.57 276.82C152.777 277.959 151.326 279.563 150.37 281.46C148.479 285.143 147.43 289.201 147.3 293.34C147.3 293.81 147.3 294.29 147.3 294.76C147.3 295.39 147.3 296.01 147.3 296.64C147.315 299.611 148.039 302.535 149.41 305.17C147.618 305.434 145.947 306.228 144.61 307.45Z" fill="black"/>
<path d="M142.43 270.29C143.43 272.4 139.59 287.59 138.43 290.71C137.27 293.83 133 311.24 131 312C129 312.76 119.07 312.54 117.67 312C116.27 311.46 117.67 308.49 119.28 307.45C120.89 306.41 122.81 304.82 122.81 304.82C122.81 304.82 119.93 277.93 120.46 274.92C120.99 271.91 139.83 264.59 142.43 270.29Z" fill="#FFC727"/>
<path opacity="0.1" d="M135.77 299.15C136.68 296.41 137.87 293.75 138.77 291.02C138.77 290.91 138.98 290.96 138.94 291.07C138.24 293.27 137.71 295.53 137.05 297.75C137.15 297.6 137.24 297.44 137.33 297.29C137.986 296.449 138.515 295.515 138.9 294.52C138.907 294.496 138.922 294.476 138.944 294.464C138.966 294.451 138.991 294.448 139.015 294.455C139.039 294.462 139.059 294.477 139.071 294.499C139.083 294.521 139.087 294.546 139.08 294.57C138.935 295.038 138.737 295.487 138.49 295.91C138.23 296.4 137.96 296.91 137.69 297.38C137.42 297.85 136.98 298.64 136.59 299.25C136.59 299.3 136.59 299.34 136.59 299.38C135.74 302.143 134.739 304.857 133.59 307.51C133.575 307.534 133.552 307.552 133.526 307.562C133.5 307.572 133.471 307.573 133.444 307.566C133.416 307.558 133.393 307.541 133.376 307.518C133.359 307.496 133.35 307.468 133.35 307.44C134.017 304.638 134.825 301.871 135.77 299.15Z" fill="black"/>
<path opacity="0.1" d="M120.05 279.2C120.05 279.15 120.16 279.13 120.17 279.2C120.46 281.2 120.58 283.3 120.79 285.35C121 287.4 121.26 289.6 121.49 291.73C121.96 295.96 122.67 300.18 123.01 304.42C123.01 304.6 122.7 304.62 122.65 304.42C121.633 300.342 120.947 296.188 120.6 292C120.38 289.92 120.25 287.84 120.15 285.76C119.995 283.577 119.962 281.387 120.05 279.2Z" fill="black"/>
<path opacity="0.1" d="M121.27 310.61C121.371 310.072 121.59 309.564 121.91 309.12C122.23 308.682 122.614 308.294 123.05 307.97C123.466 307.636 123.951 307.4 124.47 307.28C124.485 307.277 124.5 307.28 124.514 307.286C124.527 307.293 124.538 307.304 124.545 307.318C124.551 307.331 124.554 307.346 124.551 307.361C124.548 307.376 124.541 307.39 124.53 307.4C124.35 307.57 124.15 307.7 123.98 307.87L123.46 308.4C123.137 308.756 122.852 309.145 122.61 309.56C122.37 309.97 122.13 310.39 121.92 310.83C121.71 311.27 121.58 311.74 121.41 312.2C121.403 312.22 121.391 312.237 121.374 312.25C121.357 312.262 121.336 312.269 121.315 312.269C121.294 312.269 121.273 312.262 121.256 312.25C121.239 312.237 121.227 312.22 121.22 312.2C121.115 311.673 121.132 311.129 121.27 310.61Z" fill="black"/>
<path opacity="0.1" d="M118.37 309C118.923 308.05 119.773 307.308 120.79 306.89C120.85 306.89 120.92 306.94 120.86 306.99C120.096 307.59 119.448 308.326 118.95 309.16C118.692 309.583 118.526 310.054 118.46 310.545C118.395 311.036 118.432 311.535 118.57 312.01C118.57 312.01 118.57 312.07 118.5 312.01C118.207 311.567 118.04 311.053 118.017 310.523C117.994 309.993 118.116 309.466 118.37 309Z" fill="black"/>
<path d="M121.78 194.81C122.26 193.05 117.88 186.81 116.21 184.76C114.54 182.71 105.35 179.54 102.41 181.15C101.26 181.78 99.1199 186.2 96.2299 190.03C91.7499 195.97 86.5299 202.2 88.4299 203.87C93.0299 207.94 103.54 201.52 106.95 199.37C110.36 197.22 113.47 194.59 114.3 194.68C115.4 194.8 117.7 196.54 118.63 196.68C119.283 196.724 119.933 196.569 120.496 196.235C121.058 195.901 121.506 195.404 121.78 194.81Z" fill="#FFC727"/>
<path opacity="0.1" d="M121.78 194.81C122.26 193.05 117.88 186.81 116.21 184.76C114.54 182.71 105.35 179.54 102.41 181.15C101.26 181.78 99.1199 186.2 96.2299 190.03C91.7499 195.97 86.5299 202.2 88.4299 203.87C93.0299 207.94 103.54 201.52 106.95 199.37C110.36 197.22 113.47 194.59 114.3 194.68C115.4 194.8 117.7 196.54 118.63 196.68C119.283 196.724 119.933 196.569 120.496 196.235C121.058 195.901 121.506 195.404 121.78 194.81Z" fill="black"/>
<path d="M143 188.59C153.73 195.01 158.49 212.07 158.78 214.8C159.02 217.02 164.13 224.9 163.22 233.37C162.63 238.81 152.85 246.04 144.89 245.97C143.43 245.97 131.04 250.45 120.57 249.73C110.1 249.01 102.18 241.58 101.87 240.95C101.56 240.32 93 239.1 92.5 230.35C91.65 216.35 105.9 192.59 109.97 189.35C116.72 184 135.66 184.23 143 188.59Z" fill="#FFC727"/>
<path d="M137.9 196C137.7 194.1 143.27 188.39 145.35 186.5C147.43 184.61 157.49 182.89 160.27 185.05C161.36 185.9 162.85 190.83 165.21 195.29C168.86 202.2 173.21 209.53 171.01 210.95C165.55 214.41 155.71 206.01 152.53 203.2C149.35 200.39 146.53 197.2 145.68 197.12C144.52 197.06 141.84 198.48 140.87 198.43C140.188 198.37 139.54 198.106 139.011 197.672C138.481 197.239 138.094 196.656 137.9 196Z" fill="#FFC727"/>
<path opacity="0.1" d="M137.9 196C137.7 194.1 143.27 188.39 145.35 186.5C147.43 184.61 157.49 182.89 160.27 185.05C161.36 185.9 162.85 190.83 165.21 195.29C168.86 202.2 173.21 209.53 171.01 210.95C165.55 214.41 155.71 206.01 152.53 203.2C149.35 200.39 146.53 197.2 145.68 197.12C144.52 197.06 141.84 198.48 140.87 198.43C140.188 198.37 139.54 198.106 139.011 197.672C138.481 197.239 138.094 196.656 137.9 196Z" fill="black"/>
<path opacity="0.1" d="M118.3 219.93C124.88 219.99 127.88 227.04 128.67 228.87C129.46 230.7 133.53 234.87 133.67 239.3C133.81 243.73 125.44 248.6 116.67 247.05C107.9 245.5 103.27 240.56 103.32 236.1C103.32 232.51 106.74 229.4 107.12 228.46C107.5 227.52 112.31 219.87 118.3 219.93Z" fill="black"/>
<path opacity="0.1" d="M134.48 232.31C135.36 233.311 136.103 234.424 136.69 235.62C137.302 236.824 137.737 238.111 137.98 239.44C138.258 240.818 138.108 242.249 137.55 243.54C137.249 244.177 136.812 244.74 136.27 245.19C135.732 245.599 135.126 245.911 134.48 246.11C135.563 245.444 136.391 244.433 136.83 243.24C137.184 242.059 137.239 240.808 136.99 239.6C136.773 238.348 136.438 237.119 135.99 235.93C135.52 234.72 135 233.51 134.48 232.31Z" fill="black"/>
<path opacity="0.1" d="M104.33 229.68C103.76 230.39 103.22 231.08 102.72 231.78C102.227 232.464 101.802 233.194 101.45 233.96C101.12 234.707 100.924 235.505 100.87 236.32C100.879 237.178 101.038 238.027 101.34 238.83C100.671 238.165 100.233 237.303 100.09 236.37C99.9913 235.41 100.146 234.441 100.54 233.56C101.333 231.879 102.668 230.512 104.33 229.68Z" fill="black"/>
<path d="M207.14 323.86C196.37 323.86 184.48 323.67 172.53 323.45C166.37 323.34 161.53 323.25 158.47 323.25C142.94 323.25 138.47 303.25 134.15 283.99C133.55 281.3 132.95 278.61 132.32 275.99C131.08 270.82 130.07 265.61 129.08 260.56C126.08 244.95 123.41 231.48 116.53 230.74C107.44 229.74 99.3499 243.36 96.3999 264.57L94.3999 264.3C97.5099 241.94 106.48 227.64 116.72 228.75C125.07 229.64 127.83 243.75 131.02 260.18C132.02 265.18 133.02 270.4 134.24 275.52C134.88 278.17 135.48 280.88 136.09 283.58C140.43 302.96 144.53 321.27 158.45 321.27C161.5 321.27 166.38 321.36 172.55 321.47C186.07 321.73 204.55 322.07 220.25 321.76C245.67 321.26 248.68 319.26 248.99 318.65C248.99 314.49 222.15 309.49 212.05 307.6C201.95 305.71 201.45 305.6 201.56 304.37C201.67 303.14 202.91 303.24 204.81 303.24L290.5 303C303.65 303 293.46 292.31 296 281C296.434 278.572 302.15 306.686 303 304.37C305.94 298.25 316.69 299.96 317 300L310 314.5C307.46 340.31 300.5 310 304 310C303.231 312.183 297.916 306.223 297.5 308.5C294.83 320.39 305.26 305.25 290.5 305.25H210.35L212.44 305.64C236.86 310.2 251 313.81 251 318.74C250.996 319.009 250.936 319.274 250.824 319.518C250.712 319.763 250.551 319.981 250.35 320.16C247.38 323.05 229.71 323.86 207.14 323.86Z" fill="#263238"/>
<path d="M101.751 263.102L89.4934 262.367L89.0525 269.724L101.31 270.459L101.751 263.102Z" fill="#455A64"/>
<path d="M99.5744 260.635L91.9281 260.177L91.7881 262.513L99.4344 262.971L99.5744 260.635Z" fill="#37474F"/>
<path d="M93.1166 269.975L91.6692 269.889L91.333 275.498L92.7804 275.585L93.1166 269.975Z" fill="#FFC727"/>
<path d="M98.6569 270.296L97.2195 270.21L96.8832 275.82L98.3207 275.906L98.6569 270.296Z" fill="#FFC727"/>
<path d="M110 230.6C110 230.6 112.61 233.6 113.62 232.98C114.63 232.36 117.16 226.4 117.16 226.4C117.16 226.4 117.77 233.96 119.72 234.17C121.67 234.38 125.01 231.39 125.01 231.39L117.12 225.92L110 230.6Z" fill="#FFC727"/>
<path opacity="0.1" d="M110 230.6C110 230.6 112.61 233.6 113.62 232.98C114.63 232.36 117.16 226.4 117.16 226.4C117.16 226.4 117.77 233.96 119.72 234.17C121.67 234.38 125.01 231.39 125.01 231.39L117.12 225.92L110 230.6Z" fill="black"/>
<path opacity="0.1" d="M148.65 221.21C149.427 218.777 149.699 216.212 149.45 213.67C149.337 212.355 149.031 211.065 148.54 209.84C148.273 209.209 147.938 208.608 147.54 208.05C147.157 207.472 146.707 206.942 146.2 206.47C145.946 206.234 145.675 206.017 145.39 205.82C145.1 205.62 144.8 205.46 144.51 205.28L144.06 205.03L143.59 204.84C143.264 204.699 142.93 204.579 142.59 204.48C141.293 204.099 139.935 203.97 138.59 204.1C136.014 204.345 133.56 205.312 131.51 206.89C133.787 206.023 136.203 205.579 138.64 205.58C139.788 205.595 140.927 205.797 142.01 206.18C142.28 206.26 142.53 206.41 142.79 206.51L143.17 206.68L143.53 206.91C143.76 207.06 144.01 207.19 144.24 207.35C144.461 207.509 144.672 207.682 144.87 207.87C145.694 208.624 146.355 209.54 146.81 210.56C147.304 211.623 147.67 212.741 147.9 213.89C148.4 216.298 148.651 218.751 148.65 221.21Z" fill="black"/>
<path opacity="0.1" d="M99.8699 216.1C99.9778 214.02 100.313 211.957 100.87 209.95C101.348 208.089 102.397 206.424 103.87 205.19C104.239 204.921 104.634 204.689 105.05 204.5C105.455 204.324 105.882 204.206 106.32 204.15C107.282 204.041 108.254 204.061 109.21 204.21C111.268 204.575 113.294 205.099 115.27 205.78C114.44 205.08 113.539 204.47 112.58 203.96C112.1 203.71 111.58 203.48 111.1 203.26C110.586 203.053 110.062 202.873 109.53 202.72C108.424 202.38 107.264 202.251 106.11 202.34C105.49 202.385 104.881 202.534 104.31 202.78C103.756 203.017 103.232 203.319 102.75 203.68C101.803 204.402 101.03 205.328 100.49 206.39C99.9864 207.406 99.6488 208.497 99.4899 209.62C99.1378 211.782 99.2676 213.994 99.8699 216.1Z" fill="black"/>
<path d="M132.36 218.07C132.36 217.96 132.62 218.22 132.61 218.35C132.37 221.35 132.61 224.85 135.61 225.98C135.7 225.98 135.68 226.17 135.61 226.15C131.94 225.52 131.61 220.89 132.36 218.07Z" fill="#263238"/>
<path d="M135.46 215.05C140.8 214.91 140.79 224.66 135.84 224.79C130.89 224.92 131 215.16 135.46 215.05Z" fill="#263238"/>
<path d="M111.73 215.7C111.73 215.59 111.46 215.82 111.45 215.95C111.27 218.95 110.45 222.38 107.45 223.09C107.36 223.09 107.35 223.26 107.45 223.26C111.12 223.14 112.09 218.6 111.73 215.7Z" fill="#263238"/>
<path d="M109.09 212.28C103.83 211.4 102.47 221.06 107.35 221.87C112.23 222.68 113.51 213 109.09 212.28Z" fill="#263238"/>
<path d="M116.91 226.12C117.91 226.43 124.45 224.35 123.91 222.35C123.36 220.19 114.1 219.68 112.91 221.08C111.72 222.48 115.92 225.8 116.91 226.12Z" fill="#263238"/>
<path d="M125.13 231.29C124.078 232.085 122.957 232.785 121.78 233.38C121.217 233.682 120.597 233.859 119.96 233.9C119.58 233.97 119.26 233.46 119.04 232.97C118.641 231.942 118.362 230.872 118.21 229.78C118.01 228.69 117.9 227.57 117.78 226.48L117.47 223.48L116.56 226.43C116.28 227.34 115.95 228.25 115.62 229.16C115.288 230.066 114.894 230.948 114.44 231.8C114.329 232.012 114.198 232.213 114.05 232.4C113.928 232.588 113.772 232.75 113.59 232.88C113.419 232.962 113.225 232.983 113.04 232.94C112.788 232.87 112.547 232.769 112.32 232.64C111.424 232.058 110.624 231.339 109.95 230.51C110.434 231.463 111.116 232.301 111.95 232.97C112.211 233.172 112.506 233.328 112.82 233.43C113.013 233.478 113.211 233.505 113.41 233.51C113.632 233.511 113.852 233.46 114.05 233.36C114.33 233.205 114.581 233.002 114.79 232.76C114.971 232.555 115.138 232.338 115.29 232.11C115.848 231.259 116.327 230.359 116.72 229.42C117.12 228.51 117.46 227.59 117.72 226.66L116.49 226.57C116.579 227.701 116.732 228.826 116.95 229.94C117.06 230.507 117.201 231.068 117.37 231.62C117.535 232.198 117.76 232.758 118.04 233.29C118.196 233.59 118.395 233.867 118.63 234.11C118.781 234.266 118.961 234.391 119.16 234.48C119.289 234.542 119.428 234.583 119.57 234.6C119.693 234.615 119.817 234.615 119.94 234.6C120.711 234.518 121.451 234.254 122.1 233.83C123.226 233.132 124.246 232.277 125.13 231.29Z" fill="#263238"/>
<path d="M74.9 265.89C78.8717 265.658 82.8567 265.931 86.76 266.7C82.7884 266.93 78.8035 266.658 74.9 265.89Z" fill="#263238"/>
<path d="M103.69 272.22C105.566 272.872 107.393 273.654 109.16 274.56C110.94 275.436 112.654 276.438 114.29 277.56C110.545 276.231 106.983 274.433 103.69 272.21V272.22Z" fill="#263238"/>
<path d="M81.25 286C83.2175 282.543 85.6167 279.351 88.39 276.5C87.4219 278.243 86.3291 279.914 85.12 281.5C83.939 283.09 82.6457 284.594 81.25 286Z" fill="#263238"/>
<path d="M70 254.07C71.55 254.56 73.06 255.12 74.56 255.7C76.06 256.28 77.56 256.9 79.04 257.53C80.52 258.16 82.04 258.81 83.45 259.53C84.86 260.25 86.37 260.92 87.79 261.7C86.24 261.2 84.73 260.64 83.23 260.06C81.73 259.48 80.23 258.86 78.75 258.23C77.27 257.6 75.75 256.95 74.34 256.23C72.93 255.51 71.43 254.84 70 254.07Z" fill="#263238"/>
<path d="M105.13 262.93C106.523 262.23 107.976 261.654 109.47 261.21C110.953 260.739 112.476 260.404 114.02 260.21C111.227 261.602 108.223 262.524 105.13 262.94V262.93Z" fill="#263238"/>
<path d="M90.75 257.87C89.93 256.57 89.19 255.24 88.46 253.87C87.73 252.5 87.03 251.17 86.34 249.8C85.65 248.43 84.99 247.06 84.34 245.66C83.69 244.26 83.09 242.87 82.55 241.43C83.37 242.73 84.12 244.07 84.85 245.43C85.58 246.79 86.28 248.13 86.97 249.49C87.66 250.85 88.31 252.23 88.97 253.63C89.63 255.03 90.21 256.43 90.75 257.87Z" fill="#263238"/>
<path d="M111 289.5C110.11 288.5 109.28 287.41 108.47 286.34C107.66 285.27 106.88 284.16 106.1 283.06C105.32 281.96 104.59 280.83 103.88 279.68C103.17 278.53 102.46 277.38 101.82 276.19C102.71 277.19 103.54 278.28 104.35 279.35C105.16 280.42 105.95 281.53 106.72 282.63C107.49 283.73 108.23 284.86 108.94 286.01C109.65 287.16 110.36 288.3 111 289.5Z" fill="#263238"/>
</g>
<defs>
<clipPath id="clip0_115_2856">
<rect width="290" height="370" fill="white"/>
</clipPath>
</defs>
</svg>
