<svg width="24" height="25" viewBox="0 0 24 25" fill="none" xmlns="http://www.w3.org/2000/svg">
<path d="M5 4.88885C3.8954 4.88885 3 5.78541 3 6.88119V20.8276C3 21.9233 3.8954 22.8199 5 22.8199H11H13H19C20.105 22.8199 21 21.9233 21 20.8276V6.88119C21 5.78541 20.105 4.88885 19 4.88885H13H11H5Z" fill="#BDC3C7"/>
<path d="M5 3.8927C3.8954 3.8927 3 4.78467 3 5.88504V19.8314C3 20.9322 3.8954 21.8237 5 21.8237H11H13H19C20.105 21.8237 21 20.9322 21 19.8314V5.88504C21 4.78467 20.105 3.8927 19 3.8927H13H11H5Z" fill="#ECF0F1"/>
<path d="M5 3.8927C3.8954 3.8927 3 4.78925 3 5.88504V8.87354H21V5.88504C21 4.78925 20.105 3.8927 19 3.8927H13H11H5Z" fill="#E74C3C"/>
<path d="M7.5 6.38311C7.5 6.57934 7.4612 6.77364 7.38582 6.95493C7.31044 7.13622 7.19995 7.30095 7.06066 7.4397C6.92137 7.57846 6.75601 7.68852 6.57403 7.76362C6.39204 7.83871 6.19698 7.87736 6 7.87736C5.80302 7.87736 5.60796 7.83871 5.42597 7.76362C5.24399 7.68852 5.07863 7.57846 4.93934 7.4397C4.80005 7.30095 4.68956 7.13622 4.61418 6.95493C4.5388 6.77364 4.5 6.57934 4.5 6.38311C4.5 6.18688 4.5388 5.99257 4.61418 5.81128C4.68956 5.62999 4.80005 5.46527 4.93934 5.32651C5.07863 5.18776 5.24399 5.07769 5.42597 5.0026C5.60796 4.9275 5.80302 4.88885 6 4.88885C6.19698 4.88885 6.39204 4.9275 6.57403 5.0026C6.75601 5.07769 6.92137 5.18776 7.06066 5.32651C7.19995 5.46527 7.31044 5.62999 7.38582 5.81128C7.4612 5.99257 7.5 6.18688 7.5 6.38311Z" fill="#C0392B"/>
<path d="M6 1.90036C5.4477 1.90036 5 2.34634 5 2.89653V5.88503C5 6.43522 5.4477 6.8812 6 6.8812C6.5523 6.8812 7 6.43522 7 5.88503V2.89653C7 2.34634 6.5523 1.90036 6 1.90036Z" fill="#BDC3C7"/>
<path d="M19.5 6.38311C19.5 6.57934 19.4612 6.77364 19.3858 6.95493C19.3104 7.13622 19.1999 7.30095 19.0607 7.4397C18.9214 7.57846 18.756 7.68852 18.574 7.76362C18.392 7.83871 18.197 7.87736 18 7.87736C17.803 7.87736 17.608 7.83871 17.426 7.76362C17.244 7.68852 17.0786 7.57846 16.9393 7.4397C16.8001 7.30095 16.6896 7.13622 16.6142 6.95493C16.5388 6.77364 16.5 6.57934 16.5 6.38311C16.5 6.18688 16.5388 5.99257 16.6142 5.81128C16.6896 5.62999 16.8001 5.46527 16.9393 5.32651C17.0786 5.18776 17.244 5.07769 17.426 5.0026C17.608 4.9275 17.803 4.88885 18 4.88885C18.197 4.88885 18.392 4.9275 18.574 5.0026C18.756 5.07769 18.9214 5.18776 19.0607 5.32651C19.1999 5.46527 19.3104 5.62999 19.3858 5.81128C19.4612 5.99257 19.5 6.18688 19.5 6.38311Z" fill="#C0392B"/>
<path d="M18 1.90036C17.448 1.90036 17 2.29883 17 2.89653V5.88503C17 6.38312 17.448 6.8812 18 6.8812C18.552 6.8812 19 6.38312 19 5.88503V2.89653C19 2.29883 18.552 1.90036 18 1.90036Z" fill="#BDC3C7"/>
<path d="M5 11.862V13.8544H7V11.862H5ZM8 11.862V13.8544H10V11.862H8ZM11 11.862V13.8544H13V11.862H11ZM14 11.862V13.8544H16V11.862H14ZM17 11.862V13.8544H19V11.862H17Z" fill="#BDC3C7"/>
<path d="M5 14.8506V16.8429H7V14.8506H5ZM8 14.8506V16.8429H10V14.8506H8ZM11 14.8506V16.8429H13V14.8506H11ZM14 14.8506V16.8429H16V14.8506H14ZM17 14.8506V16.8429H19V14.8506H17Z" fill="#BDC3C7"/>
<path d="M5 17.8391V19.8314H7V17.8391H5ZM8 17.8391V19.8314H10V17.8391H8ZM11 17.8391V19.8314H13V17.8391H11ZM14 17.8391V19.8314H16V17.8391H14ZM17 17.8391V19.8314H19V17.8391H17Z" fill="#BDC3C7"/>
<path d="M21 8.87354H3V9.8697H21V8.87354Z" fill="#C0392B"/>
</svg>
