<svg width="43" height="43" viewBox="0 0 43 43" fill="none" xmlns="http://www.w3.org/2000/svg">
<path d="M13.8333 34.597H28.4167C31.625 34.597 34.25 31.972 34.25 28.7637V19.2845C34.25 17.3887 33.375 15.7845 31.9167 14.6178L24.625 9.07617C22.5833 7.61784 19.6667 7.61784 17.625 9.22201L10.3333 14.6178C8.875 15.7845 8 17.3887 8 19.2845V28.7637C8 31.972 10.625 34.597 13.8333 34.597ZM10.9167 19.2845C10.9167 18.4095 11.3542 17.5345 12.0833 16.9512L19.375 11.4095C19.9583 10.972 20.5417 10.8262 21.125 10.8262C21.7083 10.8262 22.2917 10.972 22.875 11.4095L30.1667 16.9512C30.8958 17.5345 31.3333 18.4095 31.3333 19.2845V28.7637C31.3333 30.3678 30.0208 31.6803 28.4167 31.6803H13.8333C12.2292 31.6803 10.9167 30.3678 10.9167 28.7637V19.2845Z" fill="#BDC3C7"/>
</svg>