<svg width="32" height="32" viewBox="0 0 32 32" fill="none" xmlns="http://www.w3.org/2000/svg">
<g clip-path="url(#clip0_34_730)">
<path d="M31 12V20M31 12L24 14L17.5 13.7593M31 12L29.2692 11.25M8 14L5 13M8 14L8.5 12.3238M8 14L9.28456 13M23.5 8.74999L17.5 13.7593M23.5 8.74999L21.2354 7.76868M23.5 8.74999L25.5 9.61666M17.875 6.3125L19.75 7.125L21.2354 7.76868M17.875 6.3125L16.9375 5.90625M17.875 6.3125L15.9375 7.82081M5 13L2 12L4.83464 10.6839M5 13C3.8 12.6 4.38976 11.2893 4.83464 10.6839M5 13L6.23961 12.3238M16.9375 5.90625L16 5.5L4.83464 10.6839M16.9375 5.90625L10.5 10L6.23961 12.3238M6.5 10L6.23961 12.3238M10.5 13.5L12 13.5556M17.875 6.5L17.5 13.7593M17.5 13.7593L17.3895 13.7552M17.5 13.7593L15.9375 7.82081M17.5 13.7593L12 10.8861M17.5 13.7593L19.75 7.29801M17.5 13.7593L21.2354 7.76868M17.5 13.7593L25.5 9.61666M17.5 13.7593L27.5385 10.5M17.5 13.7593L29.2692 11.25M17.5 13.7593L24 16.5M17.5 13.7593L24 20M17.5 13.7593L24 18M17.5 13.7593L23.5 21.5L17.3895 13.7552M14 9.32911L17.3895 13.7552M14 9.32911L15.9375 7.82081M14 9.32911L12 10.8861M17.3895 13.7552L10.5691 12M17.3895 13.7552L22.5 23M17.3895 13.7552L21.2354 23.5L20 24L17.4519 14M17.3895 13.7552L17.4519 14M17.3895 13.7552L15.5 13.6852M12 10.8861L10.5691 12M10.5691 12L9.28456 13M25.5 9.61666L27.5385 10.5M27.5385 10.5L29.2692 11.25M18.5 24.5L17.4519 14M16.5 24.5L15.5 13.6852M15.5 13.6852L13.5 13.6111M13.5 13.6111L14 24.5H15L14.5 13.7593L12 13.5556M13.5 13.6111L12 13.5556M12.5 24.5L12 14H10.5V23.5L9 22L9.28456 13" stroke="#17A436" stroke-width="2" stroke-linecap="round" stroke-linejoin="round"/>
<path d="M8 14.1333V21.3333C8 22.3942 8.84285 23.4116 10.3431 24.1618C11.8434 24.9119 13.8783 25.3333 16 25.3333C18.1217 25.3333 20.1566 24.9119 21.6569 24.1618C23.1571 23.4116 24 22.3942 24 21.3333V14.1333" stroke="#17A436" stroke-width="2" stroke-linecap="round" stroke-linejoin="round"/>
</g>
<defs>
<clipPath id="clip0_34_730">
<rect width="32" height="32" fill="white"/>
</clipPath>
</defs>
</svg>
