<svg width="36" height="32" viewBox="0 0 36 32" fill="none" xmlns="http://www.w3.org/2000/svg">
<path d="M26.5 15.4166C26.504 16.9565 26.1442 18.4755 25.45 19.85C24.6268 21.497 23.3614 22.8823 21.7954 23.8508C20.2293 24.8193 18.4246 25.3326 16.5833 25.3333C15.0435 25.3373 13.5245 24.9776 12.15 24.2833L5.5 26.5L7.71667 19.85C7.02242 18.4755 6.66265 16.9565 6.66667 15.4166C6.66738 13.5754 7.18071 11.7706 8.14917 10.2046C9.11763 8.6386 10.503 7.37313 12.15 6.54997C13.5245 5.85573 15.0435 5.49596 16.5833 5.49997H17.1667C19.5984 5.63413 21.8952 6.66053 23.6173 8.38264C25.3394 10.1048 26.3658 12.4016 26.5 14.8333V15.4166Z" fill="#17A436" stroke="#17A436" stroke-width="2" stroke-linecap="round" stroke-linejoin="round"/>
<rect x="26.5" y="0.5" width="9" height="9" rx="4.5" fill="#17A436" stroke="white"/>
</svg>
