<svg width="330" height="330" viewBox="0 0 330 330" fill="none" xmlns="http://www.w3.org/2000/svg">
<path d="M178.966 249.975H110.227V302.993H178.966V249.975Z" fill="#EBEBEB"/>
<path d="M161.746 302.623C161.654 302.623 161.575 290.803 161.575 276.223C161.575 261.644 161.654 249.823 161.746 249.823C161.839 249.823 161.918 261.644 161.918 276.223C161.918 290.803 161.839 302.623 161.746 302.623Z" fill="#E0E0E0"/>
<path d="M173.138 290.928H167.871V296.888H173.138V290.928Z" fill="#FAFAFA"/>
<path d="M139.009 250.114H131.201V261.426H139.009V250.114Z" fill="#E0E0E0"/>
<path d="M139.009 291.522H131.201V302.834H139.009V291.522Z" fill="#E0E0E0"/>
<path d="M303.699 236.682H217.021V303.534H303.699V236.682Z" fill="#EBEBEB"/>
<path d="M281.978 303.059C281.886 303.059 281.807 288.163 281.807 269.782C281.807 251.401 281.886 236.504 281.978 236.504C282.071 236.504 282.15 251.401 282.15 269.782C282.15 288.163 282.077 303.059 281.978 303.059Z" fill="#E0E0E0"/>
<path d="M296.347 288.314H289.7V295.825H296.347V288.314Z" fill="#FAFAFA"/>
<path d="M253.308 236.854H243.461V251.117H253.308V236.854Z" fill="#E0E0E0"/>
<path d="M253.308 289.067H243.461V303.329H253.308V289.067Z" fill="#E0E0E0"/>
<path d="M53.7636 238.649C57.2748 236.841 61.4064 236.603 65.3004 237.25C67.3926 237.593 69.5706 238.22 70.9962 239.791C72.4218 241.362 72.6858 244.127 71.0556 245.48C70.0788 246.286 68.7258 246.404 67.4586 246.391C64.4094 246.352 61.0302 245.817 58.5948 247.652C57.2022 248.701 56.2782 250.437 54.6348 250.952C52.9914 251.467 51.1764 250.496 50.3184 249.031C49.5246 247.503 49.3497 245.728 49.83 244.075C50.0243 242.929 50.4803 241.843 51.1626 240.902C51.8448 239.961 52.7349 239.19 53.7636 238.649Z" fill="#EBEBEB"/>
<path d="M45.7248 223.133C47.8698 226.195 52.041 225.185 53.9748 223.311C55.9086 221.437 56.727 218.731 57.4662 216.15C59.169 210.243 60.8784 204.046 59.6178 198.033C59.3143 196.21 58.5125 194.506 57.3012 193.109C56.6879 192.424 55.9061 191.91 55.0332 191.619C54.1604 191.329 53.2267 191.271 52.3248 191.453C50.2194 192.007 48.9126 194.093 47.9688 196.027C45.1861 201.808 43.7295 208.137 43.7052 214.553C43.7052 217.543 44.0418 220.671 45.7248 223.133Z" fill="#EBEBEB"/>
<path d="M39.8376 227.528C42.1674 224.763 42.6096 220.737 41.5734 217.272C40.5372 213.807 38.1942 210.863 35.4948 208.454C32.3199 205.63 28.6256 203.451 24.618 202.039C23.0648 201.412 21.3941 201.128 19.7208 201.208C18.8861 201.255 18.0757 201.506 17.3601 201.939C16.6446 202.371 16.0457 202.972 15.6156 203.689C14.4672 205.874 15.5694 208.52 16.7574 210.685C18.8495 214.494 21.2372 218.133 23.8986 221.569C26.0436 224.327 28.5186 227.053 31.7592 228.301C34.9998 229.548 38.4186 229.403 40.1478 227.139" fill="#EBEBEB"/>
<path d="M45.5796 269.346C45.6942 268.892 45.7606 268.428 45.7776 267.96C45.8766 266.944 45.9954 265.67 46.1472 264.158C46.3364 262.288 46.6206 260.429 46.9986 258.588C47.4945 256.337 48.1722 254.13 49.0248 251.988C49.8611 249.86 50.9919 247.861 52.3842 246.048C53.5224 244.574 54.9713 243.368 56.628 242.517C57.7547 241.962 58.9619 241.587 60.2052 241.408C60.6732 241.39 61.1379 241.321 61.5912 241.204C61.124 241.152 60.6526 241.152 60.1854 241.204C58.8943 241.301 57.6312 241.63 56.4564 242.174C54.707 242.999 53.1729 244.219 51.975 245.738C50.5178 247.575 49.3433 249.619 48.4902 251.803C47.6386 253.97 46.9761 256.207 46.5102 258.489C46.1511 260.354 45.9021 262.238 45.7644 264.132C45.6456 265.749 45.5994 267.056 45.5796 267.96C45.531 268.421 45.531 268.885 45.5796 269.346Z" fill="#E0E0E0"/>
<path d="M45.8436 266.429C45.8828 266.211 45.8961 265.99 45.8832 265.769C45.8832 265.28 45.8832 264.667 45.8832 263.921C45.8832 262.317 45.8832 259.994 45.9624 257.129C46.1076 251.401 46.6224 245.249 47.553 236.544C48.4572 228.367 49.665 218.856 50.9454 212.672C51.216 211.266 51.4932 209.999 51.7572 208.89C52.0212 207.781 52.2126 206.818 52.4172 206.045C52.6218 205.273 52.734 204.725 52.8528 204.25C52.9174 204.036 52.9551 203.814 52.965 203.59C52.8656 203.783 52.7902 203.987 52.7406 204.197C52.5954 204.666 52.4172 205.247 52.1994 205.966C51.9816 206.686 51.7176 207.689 51.4404 208.791C51.1632 209.893 50.8464 211.16 50.5494 212.566C48.9639 219.88 47.772 227.274 46.9788 234.716C46.0284 243.428 45.5994 251.361 45.5598 257.103C45.5598 259.974 45.5598 262.304 45.6588 263.908C45.705 264.653 45.7446 265.267 45.771 265.749C45.7678 265.978 45.7922 266.206 45.8436 266.429Z" fill="#E0E0E0"/>
<path d="M45.8832 251.13C45.9335 250.486 45.9335 249.84 45.8832 249.196C45.8106 247.955 45.639 246.167 45.2892 243.969C44.8575 241.399 44.2802 238.856 43.56 236.352C42.7276 233.271 41.662 230.257 40.3722 227.337C38.164 221.956 34.9949 217.023 31.02 212.777C30.3303 212.048 29.594 211.365 28.8156 210.731C28.479 210.441 28.1556 210.157 27.8784 209.933L27.06 209.345C26.5463 208.953 26.0011 208.604 25.4298 208.302C25.3374 208.428 27.7332 209.84 30.756 213.054C34.601 217.34 37.6858 222.25 39.8772 227.574C41.1447 230.475 42.2142 233.459 43.0782 236.504C43.804 238.985 44.4053 241.501 44.88 244.042C45.276 246.213 45.54 248.002 45.6456 249.216C45.6738 249.859 45.7533 250.499 45.8832 251.13Z" fill="#E0E0E0"/>
<path d="M30.0696 275.788L31.6008 296.795H58.5882L60.1194 275.788H30.0696Z" fill="#EBEBEB"/>
<path d="M63.3336 267.511H27.4626V275.788H63.3336V267.511Z" fill="#EBEBEB"/>
<path d="M27.4626 295.99V298.28H29.1522H62.7462V295.99H27.4626Z" fill="#E0E0E0"/>
<path d="M30.8022 302.069L29.1522 298.03H61.4592L59.532 302.069H30.8022Z" fill="#E0E0E0"/>
<path d="M59.6178 282.652C59.5841 282.722 59.542 282.789 59.4924 282.85C59.3868 282.988 59.2482 283.166 59.0898 283.384L57.519 285.364L57.4464 285.457L57.3804 285.364L53.5194 280.025H53.7372L49.9356 285.404L49.8168 285.575L49.6848 285.417L45.177 280.051H45.4344L45.1902 280.368L41.1576 285.417L41.019 285.589L40.9002 285.41L37.092 280.031H37.3164L32.6304 285.364L32.5512 285.463L32.4852 285.351L31.02 282.922C30.8616 282.658 30.7428 282.44 30.6438 282.262C30.594 282.189 30.5541 282.109 30.525 282.025C30.5868 282.088 30.64 282.159 30.6834 282.236L31.0992 282.863L32.637 285.285H32.4918L37.1118 279.886L37.224 279.748L37.3296 279.893L41.1708 285.252H40.92L44.9394 280.19C45.0252 280.084 45.111 279.979 45.1836 279.88L45.3156 279.715L45.4476 279.873L49.9422 285.252H49.6914L53.5326 279.899L53.6448 279.741L53.7504 279.899C55.275 282.071 56.5686 283.912 57.5322 285.298H57.3936L59.0304 283.318C59.2086 283.114 59.3538 282.949 59.466 282.81C59.5127 282.754 59.5634 282.701 59.6178 282.652Z" fill="#F5F5F5"/>
<path d="M60.4956 275.649C60.4956 275.741 53.7306 275.82 45.3948 275.82C37.059 275.82 30.294 275.741 30.294 275.649C30.294 275.556 37.0524 275.484 45.3948 275.484C53.7372 275.484 60.4956 275.556 60.4956 275.649Z" fill="#F5F5F5"/>
<path d="M249.759 37.4888L244.228 37.5187L244.377 65.0403L249.907 65.0104L249.759 37.4888Z" fill="#E0E0E0"/>
<path d="M210.635 37.5619L196.313 37.6394L196.395 52.8324L210.717 52.7549L210.635 37.5619Z" fill="#EBEBEB"/>
<path d="M224.89 37.4849L210.568 37.5624L210.651 52.7554L224.972 52.6779L224.89 37.4849Z" fill="#F5F5F5"/>
<path d="M196.33 41.8439C205.852 41.9231 215.378 41.8791 224.908 41.7119C224.948 41.7119 224.987 41.6959 225.016 41.6674C225.044 41.639 225.06 41.6004 225.06 41.5601C225.06 41.5198 225.044 41.4812 225.016 41.4528C224.987 41.4243 224.948 41.4083 224.908 41.4083C215.391 41.3555 205.847 41.4083 196.33 41.5865C196.301 41.5931 196.275 41.6095 196.256 41.6329C196.238 41.6563 196.228 41.6853 196.228 41.7152C196.228 41.7451 196.238 41.7741 196.256 41.7975C196.275 41.8209 196.301 41.8372 196.33 41.8439Z" fill="#E0E0E0"/>
<path d="M213.409 52.5024L187.385 52.6432L187.452 65.0246L213.476 64.8838L213.409 52.5024Z" fill="#EBEBEB"/>
<path d="M239.306 52.3623L213.282 52.5031L213.349 64.8845L239.373 64.7437L239.306 52.3623Z" fill="#F5F5F5"/>
<path d="M187.4 56.1C204.686 56.2914 222.031 56.1 239.323 55.8426C239.363 55.8426 239.401 55.8266 239.43 55.7981C239.458 55.7696 239.474 55.731 239.474 55.6908C239.474 55.6505 239.458 55.6119 239.43 55.5834C239.401 55.555 239.363 55.539 239.323 55.539C222.037 55.4466 204.686 55.4532 187.4 55.836C187.365 55.836 187.332 55.8499 187.307 55.8746C187.282 55.8994 187.268 55.9329 187.268 55.968C187.268 56.003 187.282 56.0365 187.307 56.0613C187.332 56.086 187.365 56.1 187.4 56.1Z" fill="#E0E0E0"/>
<path d="M278.487 65.0364H177.665V69.4716H278.487V65.0364Z" fill="#E0E0E0"/>
<path d="M198.264 67.1682H194.172V82.302H198.264V67.1682Z" fill="#E0E0E0"/>
<path d="M259.36 67.1682H255.268V82.302H259.36V67.1682Z" fill="#E0E0E0"/>
<path d="M255.155 27.2229L249.624 27.2528L249.829 65.1033L255.359 65.0733L255.155 27.2229Z" fill="#EBEBEB"/>
<path d="M263.792 34.2711L255.199 34.3176L255.365 64.994L263.958 64.9475L263.792 34.2711Z" fill="#F5F5F5"/>
<path d="M263.736 40.1939C260.88 40.3957 258.012 40.3957 255.156 40.1939C258.013 40.0009 260.879 40.0009 263.736 40.1939Z" fill="#E0E0E0"/>
<path d="M263.736 38.9399C262.309 39.0844 260.873 39.1329 259.439 39.0851C258.006 39.1326 256.57 39.0841 255.143 38.9399C257.999 38.7381 260.866 38.7381 263.723 38.9399H263.736Z" fill="#E0E0E0"/>
<path d="M263.736 60.3437C260.88 60.5455 258.012 60.5455 255.156 60.3437C258.013 60.1507 260.879 60.1507 263.736 60.3437Z" fill="#E0E0E0"/>
<path d="M263.736 59.0567C260.879 59.2497 258.013 59.2497 255.156 59.0567C258.012 58.855 260.88 58.855 263.736 59.0567Z" fill="#E0E0E0"/>
<path d="M259.578 56.2451C259.499 56.2451 259.433 53.1497 259.433 49.3349C259.433 45.5201 259.499 42.4181 259.578 42.4181C259.657 42.4181 259.73 45.5135 259.73 49.3349C259.73 53.1563 259.664 56.2451 259.578 56.2451Z" fill="#E0E0E0"/>
<path d="M273.187 41.8175H263.835V64.9703H273.187V41.8175Z" fill="#EBEBEB"/>
<path d="M252.305 35.2902C253.183 35.2902 253.895 34.5781 253.895 33.6996C253.895 32.8211 253.183 32.109 252.305 32.109C251.426 32.109 250.714 32.8211 250.714 33.6996C250.714 34.5781 251.426 35.2902 252.305 35.2902Z" fill="#E0E0E0"/>
<path d="M252.8 38.0753H251.816V60.5945H252.8V38.0753Z" fill="#E0E0E0"/>
<path d="M306.676 303.171C306.676 303.27 243.236 303.343 165.007 303.343C86.7768 303.343 23.3244 303.27 23.3244 303.171C23.3244 303.072 86.7504 303 165.007 303C243.263 303 306.676 303.079 306.676 303.171Z" fill="#263238"/>
<path d="M98.4786 60.951C101.591 64.76 103.276 69.5359 103.244 74.4546C103.211 77.2398 102.696 80.3088 104.32 82.5727C105.547 84.2887 107.791 85.1532 108.788 87.0144C109.989 89.2518 108.966 92.0832 109.705 94.512C110.748 97.9572 114.787 99.4026 117.183 102.089C118.204 103.277 118.919 104.697 119.264 106.225C119.609 107.753 119.574 109.342 119.163 110.854C118.727 112.359 117.937 113.738 116.86 114.877C115.784 116.016 114.451 116.881 112.972 117.401C111.394 118.023 109.633 117.995 108.075 117.322C106.458 116.516 105.435 114.86 104.643 113.243C103.052 110.062 89.0802 92.8686 88.2882 89.397" fill="#263238"/>
<path d="M88.3146 56.8987C82.599 55.9747 77.0946 59.7697 74.6988 65.0365C72.303 70.3033 72.2238 76.2565 72.0588 82.0645C71.8938 87.8725 71.4714 93.8917 68.5212 98.8681C66.6468 102.029 63.7428 104.808 63.2874 108.445C62.8782 111.705 64.5678 114.992 64.0068 118.232C63.5184 121.057 61.3668 123.512 61.4526 126.37C61.5582 129.815 65.1024 132.409 68.541 132.502C71.9796 132.594 75.2004 130.792 77.8998 128.654C82.2978 125.162 85.8172 120.689 88.176 115.592" fill="#263238"/>
<path d="M78.9096 70.521C78.7301 69.0833 78.8412 67.6241 79.2364 66.2301C79.6316 64.8362 80.3028 63.5358 81.2101 62.4062C82.1175 61.2766 83.2426 60.3408 84.5185 59.6543C85.7945 58.9678 87.1954 58.5447 88.638 58.41C94.3998 57.8556 99.528 62.1522 100.393 67.881C101.152 72.9036 101.798 77.9724 101.779 79.8138C101.706 85.3644 98.4786 87.5226 97.1586 88.176C96.6838 88.3464 96.1929 88.468 95.6934 88.539V88.5786L96.921 94.9542C97.482 99.132 95.1522 102.874 90.981 103.462C86.8098 104.049 83.5296 100.861 82.8894 96.6834L78.9096 70.521Z" fill="#FFBE9D"/>
<path d="M99.2574 70.3098C99.165 70.4418 98.4324 70.0524 97.4952 70.191C96.558 70.3296 95.931 70.8972 95.8122 70.7982C95.6934 70.6992 95.8122 70.5342 96.1026 70.2702C96.4635 69.9187 96.9248 69.688 97.4226 69.6102C97.911 69.5349 98.4106 69.6182 98.8482 69.8478C99.1782 70.059 99.3036 70.257 99.2574 70.3098Z" fill="#263238"/>
<path d="M90.9018 72.3427C90.8094 72.4747 90.0768 72.0787 89.133 72.2173C88.1892 72.3559 87.5754 72.9301 87.4566 72.8311C87.3378 72.7321 87.4566 72.5605 87.747 72.3031C88.1079 71.9515 88.5692 71.7209 89.067 71.6431C89.556 71.5735 90.0546 71.6589 90.4926 71.8873C90.816 72.0919 90.948 72.2833 90.9018 72.3427Z" fill="#263238"/>
<path d="M94.3272 77.3784C94.7993 77.1513 95.2983 76.985 95.8122 76.8834C96.0498 76.824 96.2676 76.7448 96.2874 76.5732C96.266 76.3321 96.1742 76.1025 96.0234 75.9132L95.04 74.1576C93.6738 71.7024 92.6508 69.6696 92.7498 69.6102C92.8488 69.5508 94.0698 71.511 95.3898 73.9662C95.7264 74.5734 96.0498 75.1542 96.3402 75.702C96.532 75.9704 96.6252 76.2968 96.6042 76.626C96.5824 76.7161 96.5401 76.7999 96.4806 76.8708C96.421 76.9418 96.3459 76.9981 96.261 77.0352C96.1323 77.0915 95.9971 77.1314 95.8584 77.154C95.36 77.2953 94.8452 77.3707 94.3272 77.3784Z" fill="#263238"/>
<path d="M95.6406 88.5456C95.6406 88.5456 92.0568 89.3706 87.12 87.3048C87.12 87.3048 89.2518 91.8918 95.9772 90.2616L95.6406 88.5456Z" fill="#51B16B"/>
<path d="M90.42 69.8808C90.3672 70.1514 89.4102 70.1646 88.3278 70.4616C87.2454 70.7586 86.394 71.181 86.2158 70.9764C86.1366 70.8774 86.2554 70.6134 86.5788 70.3164C87.0142 69.944 87.5288 69.6755 88.0834 69.5315C88.638 69.3874 89.2181 69.3714 89.7798 69.4848C90.2154 69.5838 90.42 69.7554 90.42 69.8808Z" fill="#263238"/>
<path d="M98.4852 68.2308C98.3532 68.4684 97.6734 68.343 96.8946 68.442C96.1158 68.541 95.4756 68.7984 95.2908 68.5938C95.2116 68.4948 95.2908 68.2704 95.5416 68.0262C95.8877 67.7194 96.322 67.53 96.7824 67.485C97.237 67.4303 97.6975 67.5155 98.1024 67.7292C98.4192 67.9074 98.5446 68.112 98.4852 68.2308Z" fill="#263238"/>
<path d="M88.8624 73.557C88.8769 73.6592 88.9116 73.7574 88.9643 73.846C89.0171 73.9347 89.087 74.0119 89.1699 74.0733C89.2528 74.1347 89.3471 74.1791 89.4472 74.2037C89.5474 74.2284 89.6515 74.2329 89.7534 74.217C89.8525 74.2056 89.9483 74.1746 90.0354 74.1258C90.1224 74.077 90.1988 74.0114 90.2602 73.9328C90.3216 73.8542 90.3668 73.7641 90.3931 73.6679C90.4194 73.5717 90.4263 73.4712 90.4134 73.3722C90.3824 73.1667 90.2713 72.9819 90.1043 72.8581C89.9372 72.7344 89.728 72.682 89.5224 72.7122C89.4229 72.7228 89.3266 72.7532 89.2392 72.8018C89.1517 72.8503 89.0749 72.9159 89.0133 72.9947C88.9517 73.0735 88.9066 73.1639 88.8807 73.2605C88.8548 73.3571 88.8486 73.458 88.8624 73.557Z" fill="#263238"/>
<path d="M97.185 71.7553C97.216 71.9608 97.3271 72.1456 97.4941 72.2694C97.6611 72.3931 97.8704 72.4455 98.076 72.4153C98.1751 72.4039 98.2709 72.3729 98.358 72.3241C98.445 72.2753 98.5214 72.2096 98.5828 72.131C98.6442 72.0524 98.6894 71.9624 98.7157 71.8661C98.742 71.7699 98.7489 71.6694 98.736 71.5705C98.705 71.365 98.5939 71.1801 98.4269 71.0564C98.2598 70.9327 98.0506 70.8802 97.845 70.9105C97.7455 70.921 97.6492 70.9515 97.5618 71C97.4743 71.0485 97.3975 71.1142 97.3359 71.193C97.2743 71.2718 97.2293 71.3622 97.2033 71.4588C97.1774 71.5554 97.1712 71.6562 97.185 71.7553Z" fill="#263238"/>
<path d="M95.8056 79.2C95.5465 79.1194 95.2674 79.132 95.0166 79.2357C94.7658 79.3394 94.5593 79.5276 94.4328 79.7676C94.312 79.9881 94.2629 80.2407 94.2925 80.4903C94.3221 80.74 94.4288 80.9742 94.5978 81.1602C94.7777 81.3369 95.0145 81.4439 95.266 81.4621C95.5175 81.4802 95.7672 81.4083 95.9706 81.2592C96.2252 81.0275 96.3791 80.7053 96.3996 80.3616C96.4444 80.0465 96.369 79.7261 96.1884 79.464C96.0957 79.3359 95.9633 79.2419 95.8118 79.1966C95.6603 79.1512 95.4981 79.1571 95.3502 79.2132" fill="#51B16B"/>
<path d="M99.66 63.36C99.1419 61.2689 97.8492 59.4526 96.0432 58.278C94.5649 57.2103 92.8089 56.5936 90.9876 56.5026C89.1549 56.4237 87.3656 57.074 86.0112 58.311C85.0501 59.2637 84.5004 60.5549 84.48 61.908L84.5856 60.984C84.3083 61.7359 84.3083 62.562 84.5856 63.3138C84.7374 63.7164 84.9222 64.1256 85.0806 64.5282C85.5531 65.6917 86.4296 66.6455 87.549 67.2144C88.056 67.4864 88.6237 67.6249 89.199 67.617C89.487 67.6113 89.7702 67.5427 90.029 67.4162C90.2877 67.2896 90.5158 67.1082 90.6972 66.8844C91.107 66.169 91.2341 65.3261 91.0536 64.5216C91.4867 65.3166 92.1047 65.9957 92.8554 66.5016C93.2387 66.7466 93.6946 66.8521 94.1466 66.8004C94.5985 66.7487 95.0189 66.543 95.337 66.2178C95.8782 65.5578 95.667 64.515 95.337 63.6966C95.8476 64.4686 96.5629 65.0833 97.4028 65.472C97.6238 65.5988 97.8687 65.6784 98.1221 65.7057C98.3754 65.7329 98.6317 65.7073 98.8746 65.6304C99.0688 65.5341 99.2386 65.395 99.3713 65.2235C99.5039 65.052 99.5958 64.8526 99.6402 64.6404C99.7382 64.22 99.7449 63.7834 99.66 63.36Z" fill="#263238"/>
<path d="M94.8882 65.1157C94.8288 65.1157 94.842 64.3303 94.5846 63.1357C94.2877 61.5482 93.4896 60.0978 92.3076 58.9975C91.6579 58.4067 90.8741 57.9831 90.024 57.7633C89.3277 57.5924 88.6027 57.5744 87.8988 57.7105C87.25 57.8621 86.6303 58.1184 86.064 58.4695C86.064 58.4695 86.1762 58.3045 86.4666 58.0933C86.8834 57.8017 87.3513 57.5913 87.846 57.4729C88.5862 57.2996 89.3564 57.2996 90.0966 57.4729C91.0086 57.7005 91.8485 58.1545 92.5386 58.7929C93.7762 59.9386 94.5844 61.4735 94.8288 63.1423C94.9073 63.6356 94.9471 64.1343 94.9476 64.6339C94.9558 64.7967 94.9357 64.9597 94.8882 65.1157Z" fill="#455A64"/>
<path d="M155.674 142.065L130.297 132C130.297 132 117.302 114.952 117.572 114.622L108.445 124.615L121.711 142.56L152.46 149.767L157.74 148.302C156.578 142.699 155.674 142.065 155.674 142.065Z" fill="#FFBE9D"/>
<path d="M100.366 93.4296L96.9078 92.1096L81.9786 94.0038V96.6438L81.5496 96.6966C78.3315 97.3808 75.2448 98.5799 72.4086 100.247C69.7519 101.869 67.641 104.248 66.3473 107.079C65.0536 109.91 64.6361 113.064 65.1486 116.134C65.7558 119.909 66.9306 124.496 69.201 127.149C73.5372 132.224 77.4972 125.954 77.4972 125.954C77.4972 125.954 80.2164 132.158 80.058 135.095C79.926 137.557 78.8436 142.679 78.4938 144.276C78.4794 144.34 78.4782 144.406 78.4902 144.47C78.5022 144.535 78.5272 144.596 78.5637 144.65C78.6001 144.704 78.6472 144.751 78.7022 144.786C78.7571 144.822 78.8187 144.846 78.8832 144.857L110.378 150.685L110.53 142.982L109.527 111.302L108.108 99C108.108 99 108.154 93.126 100.366 93.4296Z" fill="#17A436"/>
<path d="M107.626 96.954L119.638 114.305L109.969 126.08L107.626 96.954Z" fill="#17A436"/>
<path d="M110.22 133.465C110.177 133.093 110.161 132.718 110.174 132.343C110.174 131.564 110.174 130.541 110.134 129.294C110.076 125.946 109.836 122.604 109.415 119.282C108.92 115.388 108.161 111.91 107.587 109.382L106.887 106.412C106.786 106.053 106.711 105.686 106.663 105.316C106.813 105.659 106.932 106.015 107.019 106.379C107.224 107.039 107.501 108.075 107.818 109.329C108.67 112.585 109.318 115.892 109.758 119.229C110.182 122.565 110.39 125.925 110.378 129.287C110.378 130.607 110.345 131.624 110.306 132.343C110.309 132.719 110.28 133.094 110.22 133.465Z" fill="#263238"/>
<path d="M80.652 107.085C80.652 107.138 79.7412 107.131 78.2826 107.204C76.3794 107.307 74.4866 107.552 72.6198 107.936C70.7535 108.328 68.9182 108.855 67.1286 109.514C65.7558 110.022 64.9308 110.398 64.9044 110.345C65.0736 110.213 65.2601 110.104 65.4588 110.022C65.8218 109.824 66.363 109.573 67.0428 109.289C70.6042 107.819 74.4103 107.031 78.2628 106.966C79.002 106.966 79.5828 106.966 80.0118 107.006C80.228 106.999 80.444 107.026 80.652 107.085Z" fill="#FAFAFA"/>
<path d="M108.471 115.025C107.988 115.2 107.485 115.311 106.973 115.355C104.532 115.711 102.06 115.795 99.6006 115.606C99.087 115.597 98.5768 115.521 98.0826 115.381C98.592 115.336 99.1044 115.336 99.6138 115.381C100.551 115.381 101.851 115.381 103.283 115.381C104.716 115.381 106.009 115.236 106.946 115.15C107.45 115.062 107.96 115.02 108.471 115.025Z" fill="#FAFAFA"/>
<path d="M113.982 107.177C113.254 108.018 112.383 108.722 111.408 109.256C110.488 109.878 109.461 110.326 108.379 110.576C108.339 110.484 109.699 109.916 111.23 108.94C112.761 107.963 113.916 107.098 113.982 107.177Z" fill="#FAFAFA"/>
<path d="M109.131 99.132C107.049 101.005 104.396 102.121 101.6 102.3C101.6 102.194 103.415 101.917 105.501 101.026C107.587 100.135 109.065 99.0462 109.131 99.132Z" fill="#FAFAFA"/>
<path d="M109.784 128.462C109.59 128.593 109.382 128.701 109.164 128.786C108.748 128.984 108.148 129.228 107.382 129.512C105.393 130.227 103.34 130.748 101.251 131.069C99.1617 131.392 97.0462 131.509 94.9344 131.419C94.1226 131.386 93.4692 131.327 93.0204 131.267C92.7854 131.252 92.5529 131.21 92.3274 131.142C92.3274 131.083 93.3306 131.142 94.9674 131.182C99.1637 131.221 103.339 130.579 107.329 129.281C108.834 128.786 109.765 128.41 109.784 128.462Z" fill="#FAFAFA"/>
<path d="M110.029 137.405C110.029 137.405 109.936 137.471 109.745 137.57L108.9 137.94C108.174 138.283 107.098 138.732 105.752 139.26C104.405 139.788 102.775 140.296 100.94 140.798C96.9515 141.872 92.8572 142.507 88.7304 142.692C86.8296 142.765 85.1202 142.758 83.6814 142.692C82.2426 142.626 81.0876 142.52 80.289 142.408L79.3716 142.283C79.2635 142.275 79.157 142.253 79.0548 142.217C79.1619 142.2 79.2711 142.2 79.3782 142.217L80.3022 142.276C81.1008 142.342 82.2822 142.408 83.688 142.448C85.0938 142.487 86.8296 142.448 88.7172 142.382C90.6048 142.316 92.6772 142.078 94.8354 141.722C96.9936 141.365 99.0264 140.936 100.861 140.474C102.696 140.012 104.32 139.491 105.666 139.009C107.012 138.527 108.108 138.125 108.847 137.821L109.705 137.485C109.81 137.447 109.918 137.42 110.029 137.405Z" fill="#FAFAFA"/>
<path d="M52.14 277.715L48.5694 293.839L42.0552 305.778C41.9444 305.982 41.8766 306.206 41.8561 306.437C41.8355 306.669 41.8625 306.901 41.9355 307.122C42.0085 307.342 42.1259 307.545 42.2804 307.718C42.435 307.891 42.6234 308.03 42.834 308.128C43.0785 308.24 43.3463 308.292 43.615 308.279C43.8837 308.267 44.1455 308.19 44.3784 308.055C47.4012 306.313 58.4958 299.825 58.6872 298.63C58.9182 297.251 63.5844 281.873 63.5844 281.873L52.14 277.715Z" fill="#17A436"/>
<g opacity="0.6">
<path d="M42.834 308.128L58.9578 297.568L58.7862 298.228C58.6451 298.817 58.2988 299.336 57.8094 299.693C56.4894 300.637 52.8132 303.171 44.4312 308.068C44.1906 308.209 43.9188 308.288 43.6401 308.299C43.3614 308.309 43.0845 308.25 42.834 308.128Z" fill="white"/>
</g>
<g opacity="0.6">
<path d="M56.9316 291.568C56.6987 291.665 56.51 291.845 56.4015 292.073C56.2931 292.301 56.2727 292.56 56.3442 292.802C56.4323 293.038 56.6073 293.231 56.8331 293.341C57.059 293.452 57.3186 293.471 57.5586 293.396C57.8079 293.293 58.0098 293.101 58.1245 292.857C58.2393 292.612 58.2587 292.334 58.179 292.076C58.0621 291.843 57.8603 291.663 57.6148 291.573C57.3694 291.483 57.0989 291.491 56.859 291.595" fill="white"/>
</g>
<path d="M48.2196 302.016C47.9533 301.422 47.5796 300.883 47.1174 300.425C46.585 300.054 45.987 299.788 45.3552 299.64C45.3552 299.594 45.5862 299.521 45.9756 299.561C46.4823 299.626 46.9592 299.837 47.3484 300.168C47.7406 300.486 48.0299 300.913 48.18 301.396C48.2922 301.772 48.2592 302.016 48.2196 302.016Z" fill="#263238"/>
<path d="M46.5498 303.884C46.4574 303.937 46.068 303.29 45.2958 302.848C44.8032 302.619 44.2961 302.423 43.7778 302.26C44.0627 302.167 44.3658 302.143 44.6619 302.19C44.958 302.237 45.2387 302.354 45.4806 302.531C46.3584 303.039 46.6422 303.864 46.5498 303.884Z" fill="#263238"/>
<path d="M51.018 299.785C50.4567 299.162 49.8477 298.584 49.1964 298.056C48.4788 297.619 47.7286 297.237 46.9524 296.914C47.845 296.896 48.7151 297.196 49.4076 297.759C50.1711 298.218 50.743 298.938 51.018 299.785Z" fill="#263238"/>
<path d="M52.5162 294.974C52.4502 295.06 51.6516 294.472 50.5362 294.149C49.4208 293.825 48.411 293.878 48.4044 293.766C49.139 293.576 49.9113 293.588 50.6398 293.8C51.3682 294.013 52.0257 294.418 52.5426 294.974H52.5162Z" fill="#263238"/>
<path d="M53.6844 290.268C53.0406 289.87 52.3456 289.561 51.6186 289.351C50.8696 289.249 50.1103 289.249 49.3614 289.351C49.3614 289.311 49.566 289.153 49.9884 289.027C50.5436 288.876 51.1264 288.858 51.6903 288.972C52.2541 289.087 52.7833 289.332 53.2356 289.687C53.5722 290.004 53.7108 290.242 53.6844 290.268Z" fill="#263238"/>
<path d="M51.8628 288.46C51.8633 288.25 51.9083 288.043 51.9948 287.853C52.1818 287.308 52.4783 286.807 52.866 286.381C53.1196 286.043 53.4765 285.798 53.8824 285.681C54.0206 285.659 54.1624 285.678 54.2895 285.737C54.4166 285.796 54.5231 285.891 54.5952 286.011C54.7165 286.257 54.7424 286.539 54.6678 286.803C54.4986 287.333 54.1506 287.787 53.6834 288.088C53.2162 288.389 52.659 288.518 52.107 288.453C51.5627 288.376 51.0535 288.139 50.6436 287.772C50.2337 287.406 49.9414 286.926 49.8036 286.394C49.7719 286.259 49.769 286.118 49.7952 285.982C49.8213 285.845 49.8759 285.716 49.9554 285.602C50.0466 285.496 50.1693 285.421 50.3058 285.389C50.4422 285.357 50.5853 285.369 50.7144 285.424C51.0874 285.61 51.4058 285.89 51.6384 286.236C51.9882 286.693 52.2541 287.21 52.4238 287.76C52.5042 287.957 52.5424 288.168 52.536 288.381C52.2699 287.669 51.8984 287.002 51.4338 286.401C51.2175 286.119 50.9369 285.892 50.6154 285.741C50.5447 285.71 50.466 285.703 50.391 285.721C50.316 285.739 50.2489 285.78 50.1996 285.84C50.1535 285.917 50.1238 286.004 50.1125 286.093C50.1011 286.183 50.1083 286.274 50.1336 286.361C50.2713 286.809 50.5326 287.209 50.8876 287.515C51.2425 287.821 51.6767 288.02 52.14 288.09C52.6068 288.144 53.0782 288.039 53.4774 287.791C53.8765 287.543 54.1798 287.167 54.3378 286.724C54.4017 286.545 54.4017 286.349 54.3378 286.17C54.3004 286.102 54.2427 286.048 54.1728 286.015C54.103 285.981 54.0245 285.971 53.9484 285.985C53.6044 286.079 53.2979 286.277 53.0706 286.552C52.5643 287.116 52.156 287.761 51.8628 288.46Z" fill="#263238"/>
<g opacity="0.3">
<path d="M51.7044 279.464L50.9322 283.16L62.6076 285.1L63.5844 281.873L52.1202 277.715L51.7044 279.464Z" fill="black"/>
</g>
<path d="M104.28 283.681L103.316 296.565C103.316 296.565 116.094 301.845 116.147 304.273L91.0668 303.303L91.7268 283.16L104.28 283.681Z" fill="#17A436"/>
<g opacity="0.6">
<path d="M95.6274 295.178C95.384 295.244 95.1729 295.396 95.0343 295.606C94.8956 295.817 94.8389 296.071 94.875 296.32C94.9305 296.566 95.0775 296.781 95.2859 296.922C95.4943 297.063 95.7485 297.119 95.997 297.079C96.2558 297.011 96.4801 296.849 96.6264 296.624C96.7726 296.4 96.8306 296.129 96.789 295.865C96.7056 295.614 96.5285 295.406 96.2948 295.283C96.061 295.16 95.7888 295.132 95.535 295.205" fill="white"/>
</g>
<g opacity="0.6">
<path d="M91.08 303.303L91.2252 301.27L115.216 302.94C115.216 302.94 116.318 303.468 116.16 304.26L91.08 303.303Z" fill="white"/>
</g>
<path d="M103.739 296.452C103.739 296.578 103.118 296.611 102.505 296.98C101.891 297.35 101.548 297.851 101.435 297.799C101.323 297.746 101.534 297.046 102.287 296.611C103.039 296.175 103.772 296.34 103.739 296.452Z" fill="#263238"/>
<path d="M106.326 297.66C106.326 297.785 105.811 297.97 105.376 298.472C104.94 298.973 104.801 299.515 104.676 299.508C104.551 299.501 104.504 298.802 105.059 298.188C105.613 297.574 106.326 297.528 106.326 297.66Z" fill="#263238"/>
<path d="M107.699 300.848C107.587 300.848 107.441 300.247 107.778 299.594C108.115 298.94 108.702 298.69 108.748 298.795C108.794 298.901 108.431 299.244 108.161 299.785C107.89 300.326 107.818 300.841 107.699 300.848Z" fill="#263238"/>
<path d="M103.62 293.496C103.567 293.601 103.013 293.41 102.3 293.43C101.587 293.449 101.059 293.647 100.98 293.542C100.901 293.436 101.455 293.02 102.3 293.007C103.145 292.994 103.699 293.403 103.62 293.496Z" fill="#263238"/>
<g opacity="0.3">
<path d="M104.102 286.235L103.93 288.532L91.6212 287.938L91.707 285.285L104.102 286.235Z" fill="black"/>
</g>
<path d="M103.785 290.888C103.37 290.989 102.936 290.97 102.531 290.836C102.073 290.741 101.63 290.587 101.211 290.38C100.967 290.26 100.731 290.123 100.505 289.971C100.367 289.886 100.242 289.782 100.135 289.661C100.062 289.566 100.023 289.45 100.023 289.331C100.023 289.211 100.062 289.095 100.135 289.001C100.199 288.917 100.283 288.85 100.378 288.806C100.473 288.761 100.578 288.739 100.683 288.743C100.842 288.75 100.999 288.776 101.152 288.823C101.416 288.9 101.672 289.001 101.917 289.126C102.334 289.33 102.715 289.599 103.046 289.925C103.607 290.486 103.785 290.954 103.745 290.974C103.706 290.994 103.422 290.618 102.848 290.149C102.511 289.886 102.143 289.664 101.752 289.489C101.519 289.393 101.281 289.309 101.039 289.238C100.775 289.159 100.551 289.153 100.478 289.238C100.406 289.324 100.478 289.304 100.478 289.384C100.558 289.471 100.649 289.546 100.749 289.608C100.961 289.755 101.181 289.89 101.409 290.011C101.79 290.22 102.19 290.393 102.604 290.525C103.006 290.618 103.4 290.739 103.785 290.888Z" fill="#263238"/>
<path d="M103.62 291.06C103.401 290.69 103.302 290.261 103.336 289.832C103.339 289.368 103.415 288.907 103.561 288.466C103.655 288.208 103.772 287.958 103.91 287.72C103.985 287.557 104.099 287.416 104.244 287.309C104.388 287.203 104.557 287.136 104.735 287.113C104.848 287.121 104.956 287.16 105.048 287.226C105.139 287.293 105.209 287.384 105.25 287.489C105.308 287.638 105.343 287.793 105.356 287.951C105.399 288.231 105.399 288.516 105.356 288.796C105.268 289.263 105.066 289.7 104.768 290.07C104.254 290.73 103.739 290.829 103.726 290.789C103.712 290.75 104.122 290.506 104.524 289.892C104.755 289.542 104.906 289.145 104.966 288.73C105 288.489 105 288.245 104.966 288.004C104.933 287.74 104.841 287.516 104.742 287.542C104.643 287.569 104.399 287.727 104.287 287.938C104.158 288.149 104.045 288.37 103.95 288.598C103.797 288.997 103.7 289.414 103.66 289.839C103.574 290.578 103.686 291.06 103.62 291.06Z" fill="#263238"/>
<path d="M78.3552 144.738C78.3552 144.738 74.3952 144.916 71.7552 158.459C69.1152 172.003 48.9918 281.741 48.9918 281.741L63.5844 281.873L91.08 177.54L89.2518 285.12L104.075 286.255C104.075 286.255 115.196 167.264 115.295 160.34C115.427 151.708 110.471 142.976 110.471 142.976L78.3552 144.738Z" fill="#263238"/>
<path d="M98.4126 143.583C98.505 143.583 96.987 151.338 95.0268 160.862C93.0666 170.386 91.4034 178.094 91.311 178.075C91.2186 178.055 92.73 170.32 94.6902 160.796C96.6504 151.272 98.34 143.563 98.4126 143.583Z" fill="#455A64"/>
<path d="M100.683 145.517C100.683 145.477 101.079 145.358 101.534 145.761C101.664 145.878 101.766 146.022 101.834 146.183C101.903 146.344 101.936 146.517 101.93 146.692C101.914 146.912 101.835 147.124 101.703 147.301C101.571 147.479 101.391 147.615 101.185 147.695C100.983 147.786 100.76 147.819 100.541 147.79C100.321 147.761 100.114 147.671 99.9438 147.53C99.8162 147.41 99.7154 147.265 99.6483 147.103C99.5812 146.941 99.5492 146.767 99.5544 146.593C99.5544 145.985 99.9636 145.774 99.9702 145.814C99.8589 146.056 99.8004 146.319 99.7986 146.586C99.8075 146.72 99.8429 146.851 99.903 146.971C99.9631 147.091 100.046 147.198 100.148 147.286C100.279 147.375 100.429 147.431 100.587 147.447C100.744 147.464 100.903 147.44 101.049 147.379C101.195 147.318 101.323 147.221 101.421 147.098C101.52 146.974 101.586 146.828 101.614 146.672C101.623 146.538 101.606 146.404 101.563 146.277C101.52 146.15 101.452 146.033 101.363 145.933C101.039 145.556 100.676 145.57 100.683 145.517Z" fill="#455A64"/>
<path d="M100.056 150.876C100.056 150.836 100.465 150.876 100.716 151.424C100.78 151.58 100.809 151.749 100.801 151.917C100.793 152.086 100.748 152.251 100.67 152.401C100.556 152.579 100.396 152.722 100.207 152.816C100.019 152.91 99.8075 152.951 99.5972 152.934C99.3868 152.917 99.185 152.843 99.0136 152.72C98.8421 152.597 98.7073 152.429 98.6238 152.236C98.571 152.077 98.5538 151.908 98.5732 151.741C98.5925 151.575 98.6481 151.415 98.736 151.272C99.0462 150.777 99.4686 150.79 99.4554 150.83C99.4422 150.869 99.1386 150.962 98.9472 151.384C98.8504 151.621 98.8504 151.887 98.9472 152.123C99.0161 152.254 99.117 152.366 99.2405 152.447C99.3641 152.529 99.5062 152.578 99.6537 152.59C99.8012 152.601 99.9493 152.576 100.084 152.515C100.219 152.454 100.337 152.36 100.426 152.242C100.55 152.017 100.581 151.751 100.511 151.503C100.32 151.054 100.023 150.922 100.056 150.876Z" fill="#455A64"/>
<path d="M86.0706 145.649C86.0435 145.876 85.9857 146.098 85.899 146.309C85.6928 146.913 85.4345 147.498 85.1268 148.058C84.1198 149.925 82.6654 151.513 80.8938 152.68C79.1223 153.847 77.0889 154.556 74.976 154.744C74.3414 154.799 73.7032 154.799 73.0686 154.744C72.845 154.737 72.6232 154.701 72.4086 154.638C72.4086 154.572 73.4052 154.684 74.9826 154.486C77.0384 154.237 79.0084 153.514 80.7377 152.374C82.4669 151.235 83.9083 149.71 84.9486 147.919C85.7208 146.586 86.0112 145.629 86.0706 145.649Z" fill="#455A64"/>
<path d="M114.464 155.278C114.464 155.278 114.292 155.199 114.022 155.014C113.644 154.742 113.29 154.438 112.966 154.103C111.88 153.005 111.033 151.694 110.478 150.253C109.923 148.811 109.671 147.271 109.738 145.728C109.753 145.264 109.813 144.802 109.916 144.349C109.989 144.025 110.035 143.854 110.062 143.86C110.088 143.867 109.982 144.58 109.982 145.735C109.983 148.767 111.11 151.69 113.144 153.938C113.916 154.79 114.497 155.225 114.464 155.278Z" fill="#455A64"/>
<path d="M165.66 155.661C165.878 155.133 165.818 155.344 162.32 153.021C162.32 153.021 167.336 156.321 166.815 154.75C166.364 154.155 165.812 153.644 165.185 153.239C166.505 154.018 167.27 154.103 167.501 153.787C167.897 153.239 165.026 151.147 163.66 150.203C164.909 151.096 166.219 151.901 167.581 152.612C168.392 152.863 168.003 151.912 167.455 151.219C166.907 150.526 162.657 146.434 161.515 145.213C161.407 145.12 161.319 145.005 161.259 144.875C161.2 144.745 161.169 144.604 161.169 144.461C161.169 144.318 161.2 144.177 161.259 144.047C161.319 143.917 161.407 143.801 161.515 143.708C163.561 142.388 164.459 140.283 164.432 139.59C164.41 139.434 164.338 139.289 164.228 139.176C164.118 139.064 163.975 138.989 163.819 138.962C163.664 138.936 163.504 138.959 163.363 139.029C163.222 139.1 163.106 139.213 163.033 139.352C162.517 139.994 161.915 140.563 161.245 141.042C160.725 141.447 160.14 141.762 159.515 141.973C158.789 142.21 155.219 142.012 154.453 141.623L152.018 149.879C152.018 149.879 160.855 154.011 162.532 154.816C164.591 155.793 165.508 156.064 165.66 155.661Z" fill="#FFBE9D"/>
<path d="M160.73 151.8C160.657 151.899 161.806 152.737 163.291 153.681C164.776 154.625 166.023 155.305 166.082 155.206C166.142 155.107 164.993 154.262 163.515 153.325C162.037 152.387 160.796 151.675 160.73 151.8Z" fill="#51B16B"/>
<path d="M161.561 150.183C161.495 150.282 162.67 151.246 164.201 152.341C165.733 153.437 167 154.249 167.066 154.156C167.132 154.064 165.964 153.094 164.426 151.998C162.888 150.902 161.634 150.091 161.561 150.183Z" fill="#51B16B"/>
<path d="M162.439 148.546C162.373 148.639 163.469 149.576 164.888 150.632C166.307 151.688 167.528 152.467 167.581 152.374C167.633 152.282 166.558 151.345 165.139 150.289C163.72 149.233 162.512 148.454 162.439 148.546Z" fill="#51B16B"/>
<path d="M72.5538 118.642L79.035 118.998C79.4941 120.807 80.1079 122.574 80.8698 124.278C86.0904 115.223 90.1098 103.085 91.1394 98.2081C90.9942 97.7285 90.816 97.1872 90.6048 96.5844C90.4467 95.6732 90.4736 94.7395 90.684 93.8388C90.8622 92.7564 91.1658 91.2913 91.2516 90.6181C91.5354 88.5589 91.8654 88.2288 92.5716 88.4664C93.5484 88.7832 92.169 94.2547 92.9676 94.3735C93.4032 94.4329 93.9246 92.5585 94.083 91.0207C94.2414 89.4829 94.9278 84.7573 95.436 84.4207C96.1818 83.9587 96.8286 84.6913 96.6438 86.2225C96.459 87.7537 96.2148 92.3935 97.0266 92.4529C97.8384 92.5123 98.4984 84.6714 98.4984 84.6714C98.4984 84.6714 98.373 82.9686 99.3102 83.0082C101.006 83.0808 99.6864 91.3507 99.5412 92.1361C99.4356 92.6773 100.32 92.796 100.399 92.1888C100.478 91.5816 100.888 84.3414 102.61 84.4008C103.93 84.447 101.587 91.2121 102.333 92.7829C103.079 94.3537 103.594 87.4566 104.861 87.549C105.329 87.5886 105.679 87.681 104.815 91.5816C103.971 94.6833 102.96 97.737 101.785 100.729C99.8052 111.553 90.9678 146.177 77.1606 139.841C69.4386 136.297 65.8284 118.721 65.8284 118.721L72.5538 118.642Z" fill="#FFBE9D"/>
<path d="M101.798 100.789C101.81 100.707 101.832 100.627 101.864 100.551C101.924 100.379 101.996 100.155 102.095 99.891C102.313 99.264 102.61 98.3928 103 97.251C103.389 96.1092 103.858 94.7232 104.32 93.0864C104.557 92.2746 104.755 91.3902 104.933 90.4464C105.026 89.9712 105.112 89.4828 105.171 88.9812C105.187 88.7329 105.187 88.4838 105.171 88.2354C105.171 87.978 105.112 87.7668 104.907 87.7602C104.702 87.7536 104.557 87.879 104.412 88.0968C104.281 88.3299 104.172 88.5753 104.089 88.8294C103.904 89.3508 103.759 89.9052 103.613 90.4662C103.468 91.0272 103.336 91.6146 103.165 92.2086C103.09 92.534 102.956 92.8428 102.769 93.1194C102.722 93.1736 102.66 93.2127 102.59 93.2316C102.547 93.2412 102.502 93.2408 102.458 93.2305C102.415 93.2203 102.374 93.2003 102.34 93.1722C102.264 93.1027 102.201 93.0199 102.155 92.928C102.085 92.7659 102.038 92.5949 102.016 92.4198C101.986 91.0886 102.119 89.7587 102.412 88.4598C102.524 87.7998 102.643 87.1398 102.729 86.4798C102.769 86.1432 102.808 85.8198 102.815 85.4634C102.821 85.107 102.769 84.7308 102.63 84.6714C102.491 84.612 102.155 84.7968 101.97 85.074C101.788 85.3668 101.643 85.6818 101.541 86.0112C101.316 86.7007 101.146 87.4069 101.033 88.1232C100.907 88.8492 100.808 89.5884 100.723 90.3408C100.69 90.717 100.65 91.0932 100.617 91.476L100.564 92.0502C100.571 92.1729 100.551 92.2955 100.506 92.4096C100.46 92.5236 100.39 92.6263 100.3 92.7102C100.187 92.7928 100.051 92.8373 99.9108 92.8373C99.7708 92.8373 99.6344 92.7928 99.5214 92.7102C99.4574 92.6679 99.4031 92.6125 99.3621 92.5477C99.3212 92.4828 99.2945 92.41 99.2838 92.334C99.2738 92.264 99.2738 92.1929 99.2838 92.1228V91.9842L99.462 90.8292C99.5742 90.0504 99.6666 89.2716 99.7392 88.4796C99.8118 87.6876 99.8712 86.889 99.8844 86.0904C99.9231 85.2998 99.843 84.5078 99.6468 83.7408C99.6013 83.5462 99.4832 83.3763 99.3168 83.2656C99.2372 83.2401 99.1515 83.2403 99.0721 83.2664C98.9927 83.2925 98.9235 83.343 98.8746 83.4108C98.6609 83.8015 98.5733 84.2488 98.6238 84.6912C98.4786 86.2422 98.3136 87.7668 98.0892 89.265C97.977 90.0108 97.8516 90.7566 97.6668 91.4892C97.614 91.6674 97.5612 91.8522 97.4952 92.037C97.4324 92.261 97.3008 92.4596 97.119 92.6046C97.0386 92.6441 96.9472 92.6552 96.8596 92.636C96.7721 92.6168 96.6937 92.5685 96.6372 92.499C96.5566 92.4144 96.4957 92.313 96.459 92.202C96.3878 92.0189 96.3369 91.8286 96.3072 91.6344C96.1525 90.1982 96.1392 88.7502 96.2676 87.3114C96.3651 86.6407 96.4027 85.9626 96.3798 85.2852C96.3584 84.9961 96.226 84.7265 96.0102 84.5328C95.9595 84.5013 95.903 84.4804 95.844 84.4713C95.785 84.4623 95.7248 84.4652 95.667 84.48C95.6053 84.5008 95.5456 84.5274 95.4888 84.5592C95.4294 84.612 95.436 84.5592 95.3964 84.6714C95.1577 85.265 94.9829 85.8823 94.875 86.5128C94.743 87.1728 94.6308 87.7734 94.5318 88.3938C94.4328 89.0142 94.3404 89.6214 94.2612 90.2286C94.182 90.8358 94.1424 91.4298 94.0236 92.0238C93.921 92.6041 93.7664 93.174 93.5616 93.7266C93.5072 93.8672 93.4433 94.004 93.3702 94.1358C93.2778 94.2612 93.225 94.4196 92.9742 94.4988C92.91 94.5106 92.8438 94.5031 92.7839 94.4773C92.724 94.4514 92.6731 94.4084 92.6376 94.3536C92.5914 94.2774 92.5559 94.1953 92.532 94.1094C92.5023 93.9659 92.4847 93.8202 92.4792 93.6738C92.4792 92.5452 92.631 91.5156 92.6904 90.519C92.7334 90.0426 92.7334 89.5633 92.6904 89.0868C92.6904 88.8756 92.5914 88.6248 92.4726 88.5786C92.3894 88.5378 92.298 88.5166 92.2053 88.5166C92.1126 88.5166 92.0212 88.5378 91.938 88.5786C91.661 88.8762 91.4894 89.2565 91.4496 89.661C91.3506 90.0636 91.311 90.4728 91.2384 90.8622C90.9612 92.4198 90.6708 93.7662 90.5322 94.8618C90.4671 95.3436 90.4671 95.832 90.5322 96.3138C90.6246 96.7098 90.7632 97.0662 90.8358 97.3434C90.9084 97.6206 90.981 97.8186 91.0272 98.0034C91.0518 98.0742 91.0694 98.1471 91.08 98.2212C91.0404 98.1573 91.0094 98.0886 90.9876 98.0166L90.7632 97.3566C90.6708 97.0728 90.5322 96.756 90.42 96.3204C90.3494 95.8257 90.3494 95.3235 90.42 94.8288C90.5454 93.7134 90.8094 92.3802 91.08 90.816C91.1526 90.4266 91.1922 90.0174 91.278 89.595C91.3253 89.3719 91.3847 89.1516 91.4562 88.935C91.5222 88.695 91.6661 88.4837 91.8654 88.3344C91.9853 88.2709 92.119 88.2376 92.2548 88.2376C92.3905 88.2376 92.5242 88.2709 92.6442 88.3344C92.7732 88.4158 92.8792 88.5289 92.952 88.6629C93.0249 88.797 93.062 88.9475 93.06 89.1C93.1062 89.5962 93.1062 90.0955 93.06 90.5916C93.0138 91.5948 92.8554 92.6442 92.8818 93.7134C92.8866 93.8399 92.9021 93.9657 92.928 94.0896C92.928 94.215 93.0204 94.2678 93.0072 94.2414C92.994 94.215 93.1326 94.1358 93.1854 94.0302C93.2505 93.9131 93.3078 93.7919 93.357 93.6672C93.5525 93.1322 93.6961 92.5797 93.786 92.0172C93.8982 91.443 93.9378 90.849 94.017 90.2352C94.0962 89.6214 94.1754 89.0142 94.2744 88.3872C94.3734 87.7602 94.4856 87.1332 94.611 86.493C94.7183 85.8244 94.9044 85.1709 95.1654 84.546C95.2181 84.4412 95.2979 84.3524 95.3964 84.2886C95.4841 84.2405 95.5771 84.2029 95.6736 84.1764C95.7843 84.1448 95.9005 84.1372 96.0143 84.1543C96.1282 84.1714 96.2371 84.2127 96.3336 84.2754C96.4867 84.397 96.6132 84.5488 96.7052 84.7214C96.7972 84.894 96.8527 85.0837 96.8682 85.2786C96.9177 85.6377 96.9177 86.0019 96.8682 86.361C96.8352 86.6976 96.8022 87.021 96.7824 87.3906C96.6538 88.7964 96.667 90.2115 96.822 91.6146C96.8502 91.7813 96.8945 91.9448 96.954 92.103C96.9738 92.1669 97.0076 92.2255 97.053 92.2746C97.053 92.2746 97.053 92.2746 97.086 92.2746C97.086 92.4264 97.086 92.2746 97.086 92.334C97.086 92.3934 97.086 92.334 97.086 92.2812C97.1683 92.171 97.2329 92.0485 97.2774 91.9182C97.339 91.7554 97.3918 91.5838 97.4358 91.4034C97.614 90.7038 97.7328 89.9646 97.845 89.2254C98.0694 87.7404 98.2344 86.2158 98.373 84.6714V84.7044C98.3143 84.1604 98.4323 83.612 98.7096 83.1402C98.8154 83.0054 98.9607 82.9069 99.1251 82.8584C99.2895 82.8099 99.4649 82.8138 99.627 82.8696C99.7654 82.9464 99.887 83.0503 99.9845 83.175C100.082 83.2997 100.153 83.4428 100.195 83.5956C100.406 84.4072 100.493 85.2462 100.452 86.0838C100.452 86.9022 100.379 87.7074 100.307 88.506C100.234 89.3046 100.135 90.09 100.023 90.8688C99.9636 91.2648 99.9042 91.6476 99.8448 92.037C99.792 92.2812 99.8052 92.2878 99.8448 92.3604C99.8906 92.3914 99.9446 92.4079 99.9999 92.4079C100.055 92.4079 100.109 92.3914 100.155 92.3604C100.234 92.301 100.247 92.1888 100.267 91.971L100.313 91.3968L100.432 90.255C100.511 89.5026 100.617 88.7502 100.742 88.0176C100.864 87.2818 101.041 86.556 101.27 85.8462C101.39 85.4875 101.552 85.1441 101.752 84.8232C101.861 84.6503 102.005 84.5019 102.175 84.3876C102.269 84.3195 102.378 84.275 102.493 84.2578C102.607 84.2406 102.725 84.2511 102.835 84.2886C102.936 84.351 103.021 84.4359 103.084 84.5366C103.147 84.6373 103.186 84.7512 103.198 84.8694C103.225 85.0551 103.236 85.2428 103.231 85.4304C103.231 85.7934 103.184 86.1432 103.145 86.493C103.052 87.153 102.927 87.8526 102.808 88.5192C102.525 89.773 102.387 91.0553 102.399 92.3406C102.418 92.4786 102.453 92.6139 102.505 92.7432C102.529 92.7901 102.557 92.8343 102.59 92.8752C102.59 92.8752 102.59 92.8752 102.59 92.829C102.739 92.5905 102.848 92.3298 102.914 92.0568C103.085 91.4826 103.224 90.9018 103.376 90.3342C103.512 89.7695 103.677 89.2121 103.871 88.6644C103.962 88.3931 104.082 88.1321 104.227 87.8856C104.306 87.7513 104.409 87.6327 104.531 87.5358C104.597 87.4783 104.676 87.4375 104.762 87.417C104.847 87.4037 104.934 87.4037 105.019 87.417C105.109 87.426 105.195 87.4589 105.268 87.5123C105.341 87.5656 105.399 87.6376 105.435 87.7206C105.49 87.8593 105.519 88.007 105.521 88.1562C105.526 88.4232 105.51 88.6902 105.475 88.9548C105.415 89.4696 105.316 89.958 105.224 90.4398C105.032 91.3836 104.821 92.2812 104.564 93.0798C104.069 94.7166 103.574 96.1026 103.171 97.2312C102.769 98.3598 102.425 99.2112 102.194 99.8184C102.082 100.096 101.99 100.313 101.924 100.478C101.894 100.586 101.852 100.69 101.798 100.789Z" fill="#51B16B"/>
<path d="M65.769 119.387C67.023 123.816 69.4782 130.647 72.1116 137.867C72.1946 138.1 72.3448 138.303 72.5431 138.45C72.7415 138.597 72.9791 138.682 73.2258 138.694C73.4725 138.706 73.7172 138.645 73.9289 138.517C74.1406 138.39 74.3098 138.203 74.415 137.98L80.8698 124.324C80.8698 124.324 79.3122 113.104 79.4442 113.507C79.5762 113.909 66.1254 114.959 66.1254 114.959L65.769 119.387Z" fill="#17A436"/>
<path d="M80.3154 117.19C80.3154 117.242 79.5102 117.48 78.2364 117.968C76.5717 118.6 74.9679 119.382 73.4448 120.305C71.9238 121.232 70.4881 122.292 69.1548 123.473C68.1318 124.377 67.5444 124.997 67.5048 124.958C67.4652 124.918 67.617 124.773 67.8678 124.476C68.2214 124.063 68.5958 123.669 68.9898 123.295C70.2908 122.042 71.7249 120.935 73.2666 119.995C74.8088 119.065 76.4461 118.304 78.1506 117.724C78.6658 117.547 79.1902 117.397 79.7214 117.275C79.9136 117.215 80.1141 117.186 80.3154 117.19Z" fill="#FAFAFA"/>
<path d="M82.8762 120.595C82.4568 120.172 82.0931 119.698 81.7938 119.183C81.023 117.981 80.3604 116.713 79.8138 115.394C79.2668 114.072 78.8405 112.702 78.54 111.302C78.3862 110.73 78.3085 110.14 78.309 109.547C78.5058 110.1 78.6624 110.667 78.7776 111.243C79.1312 112.61 79.5721 113.952 80.0976 115.262C80.6466 116.566 81.2771 117.833 81.9852 119.057C82.3148 119.55 82.6124 120.064 82.8762 120.595Z" fill="#263238"/>
<path d="M87.1794 60.126C86.0597 61.9715 85.3655 64.0434 85.1475 66.191C84.9294 68.3386 85.1929 70.5077 85.9188 72.5406C86.5788 74.3556 87.6348 76.1442 87.4434 78.0714C87.252 79.9986 85.7472 81.906 86.2752 83.8068C86.592 84.9354 87.5556 85.7868 87.9318 86.8824C88.3608 88.2024 87.9318 89.595 87.7008 90.948C87.1728 94.4064 88.2816 97.8846 88.5522 101.369C88.8228 104.854 87.8922 108.94 84.777 110.458C83.8332 110.92 82.599 111.052 81.8136 110.345C80.8104 109.454 81.0876 107.844 81.3648 106.524C84.0972 93.324 75.6558 80.4408 77.583 67.0824C77.8932 64.944 79.0878 61.314 80.6256 59.8224C82.1634 58.3308 86.4336 58.5024 87.8856 60.0864" fill="#263238"/>
<path d="M74.1774 98.4192C74.1774 98.4192 74.58 97.944 75.174 97.0068C76.0076 95.6832 76.5914 94.218 76.8966 92.6838C77.0957 91.627 77.1644 90.5498 77.1012 89.4762C76.9858 88.228 76.9395 86.9742 76.9626 85.7208C77.002 85.0344 77.1284 84.3558 77.3388 83.7012C77.58 83.0269 77.885 82.3772 78.2496 81.7608C78.9888 80.5134 79.9194 79.3518 80.7774 78.111C81.6585 76.9384 82.2713 75.5865 82.5726 74.151C82.7189 72.7989 82.6409 71.4319 82.3416 70.1052C82.0919 68.8722 81.9944 67.6132 82.0512 66.3564C82.1297 65.2586 82.3516 64.1758 82.7112 63.1356C83.2154 61.6262 84.009 60.2296 85.0476 59.0238C85.3235 58.6961 85.6235 58.3894 85.9452 58.1064C86.0472 57.9978 86.1625 57.9024 86.2884 57.8226C86.2884 57.8226 85.8462 58.2516 85.1466 59.1426C83.4803 61.2109 82.506 63.7505 82.3614 66.4026C82.3172 67.6389 82.4258 68.8758 82.6848 70.0854C82.9996 71.4478 83.0844 72.8531 82.9356 74.2434C82.6227 75.719 81.9921 77.1086 81.0876 78.3156C80.223 79.5762 79.2924 80.7312 78.5664 81.9456C78.2093 82.5391 77.913 83.1671 77.682 83.82C77.4732 84.4478 77.3468 85.1001 77.3058 85.7604C77.2766 87 77.3118 88.2403 77.4114 89.4762C77.4638 90.5714 77.3796 91.6689 77.1606 92.7432C76.8299 94.2983 76.2024 95.7751 75.3126 97.0926C75.0717 97.4488 74.8071 97.7884 74.5206 98.109C74.4179 98.2247 74.3028 98.3287 74.1774 98.4192Z" fill="#455A64"/>
<path d="M67.9206 99.4027C67.9738 99.2488 68.0423 99.1006 68.1252 98.9605C68.2902 98.6503 68.5014 98.2411 68.7852 97.7263C69.3396 96.6505 70.1646 95.0863 70.9764 93.1063C71.9694 90.7937 72.5201 88.3155 72.6 85.8001C72.6004 85.0753 72.5452 84.3516 72.435 83.6353C72.3228 82.8961 72.1512 82.1503 72.039 81.3715C71.9017 80.5659 71.9197 79.7415 72.0918 78.9427C72.315 78.1225 72.7739 77.3859 73.4118 76.8241C74.6526 75.6955 76.1508 74.9563 76.9296 73.6297C77.6043 72.3142 78.0019 70.8743 78.0978 69.3991C78.2375 68.0467 78.5434 66.7166 79.0086 65.4391C80.0547 62.6964 81.9187 60.3417 84.348 58.6939C84.7353 58.4332 85.1387 58.1973 85.5558 57.9877C85.6966 57.9033 85.8474 57.8368 86.0046 57.7897C86.0046 57.7897 85.4106 58.1065 84.4272 58.8061C83.0411 59.7952 81.8412 61.0219 80.883 62.4295C80.2185 63.3943 79.6774 64.4387 79.2726 65.5381C78.8278 66.8186 78.5397 68.1483 78.4146 69.4981C78.2166 70.9039 78.0582 72.4747 77.2134 73.8673C76.3686 75.2599 74.8242 76.0519 73.6428 77.1673C73.0407 77.6897 72.6067 78.3786 72.3954 79.1473C72.2349 79.9031 72.2193 80.6824 72.3492 81.4441C72.4548 82.2031 72.6198 82.9555 72.732 83.7013C72.8462 84.4348 72.8992 85.1766 72.8904 85.9189C72.8007 88.4804 72.2204 91.001 71.181 93.3439C70.5059 94.9272 69.739 96.4698 68.8842 97.9639L68.1846 99.0001C68.1111 99.1432 68.0226 99.2782 67.9206 99.4027Z" fill="#455A64"/>
<path d="M286.288 285.899C286.319 285.803 286.358 285.71 286.407 285.622C286.499 285.424 286.625 285.16 286.777 284.823C287.236 283.792 287.605 282.723 287.879 281.629C288.605 278.791 288.862 274.454 287.786 269.306C287.202 266.499 286.437 263.732 285.496 261.023C284.533 258.086 283.404 254.971 282.487 251.599C281.451 248.081 280.95 244.428 281.002 240.761C281.14 236.927 282.275 233.105 283.523 229.291C284.77 225.476 286.057 221.76 286.44 217.998C286.866 214.39 286.14 210.741 284.368 207.57C282.718 204.527 280.639 201.92 279.088 199.228C277.636 196.725 276.566 194.02 275.913 191.202C274.976 187.122 274.907 182.89 275.708 178.781C276 177.277 276.443 175.807 277.028 174.392C277.011 174.491 276.984 174.588 276.949 174.682L276.685 175.52C276.461 176.26 276.164 177.368 275.88 178.82C275.142 182.911 275.252 187.11 276.203 191.156C276.865 193.94 277.94 196.609 279.391 199.076C280.942 201.716 283.028 204.356 284.717 207.412C286.533 210.646 287.279 214.373 286.849 218.057C286.46 221.872 285.166 225.628 283.919 229.436C282.671 233.244 281.549 237.026 281.411 240.794C281.352 244.424 281.841 248.042 282.863 251.526C283.767 254.879 284.876 257.994 285.833 260.944C286.765 263.668 287.515 266.45 288.077 269.273C289.126 274.461 288.829 278.843 288.077 281.688C287.782 282.785 287.387 283.852 286.895 284.876L286.486 285.661C286.429 285.748 286.363 285.827 286.288 285.899Z" fill="#263238"/>
<path d="M281.2 201.887C281.2 201.887 278.045 191.783 283.708 185.869C283.752 185.822 283.808 185.787 283.87 185.77C283.932 185.752 283.998 185.752 284.061 185.77C284.123 185.788 284.179 185.823 284.223 185.87C284.266 185.918 284.296 185.977 284.308 186.041C284.612 187.711 284.988 192.793 281.2 201.887Z" fill="#17A436"/>
<path d="M283.094 189.235C283.084 189.861 283.013 190.484 282.883 191.096C282.671 192.383 282.427 193.888 282.163 195.551C281.899 197.215 281.655 198.726 281.45 200.006C281.393 200.631 281.282 201.249 281.12 201.854C281.058 201.23 281.072 200.601 281.16 199.98C281.266 198.825 281.47 197.241 281.754 195.499C282.038 193.756 282.348 192.199 282.592 191.057C282.689 190.432 282.857 189.821 283.094 189.235Z" fill="#263238"/>
<path d="M284.909 225.72C284.909 225.72 286.843 215.312 294.617 212.738C294.679 212.716 294.745 212.713 294.808 212.726C294.871 212.74 294.93 212.772 294.976 212.817C295.023 212.862 295.056 212.92 295.072 212.982C295.088 213.045 295.086 213.111 295.066 213.173C294.551 214.777 292.512 219.443 284.909 225.72Z" fill="#17A436"/>
<path d="M292.499 215.411C292.197 215.961 291.844 216.48 291.443 216.962L288.717 220.559L286.011 224.169C285.67 224.693 285.284 225.185 284.856 225.641C285.097 225.06 285.407 224.511 285.78 224.004C286.44 223.034 287.338 221.727 288.42 220.321C289.502 218.915 290.486 217.681 291.232 216.784C291.602 216.281 292.027 215.821 292.499 215.411Z" fill="#263238"/>
<path d="M282.81 251.81C282.81 251.81 281.635 241.289 288.328 236.57C288.379 236.53 288.441 236.505 288.506 236.499C288.572 236.493 288.637 236.505 288.695 236.535C288.754 236.565 288.802 236.611 288.835 236.668C288.868 236.724 288.885 236.789 288.882 236.854C288.862 238.55 288.262 243.606 282.81 251.81Z" fill="#17A436"/>
<path d="M287.1 239.752C286.977 240.366 286.789 240.966 286.539 241.54L284.981 245.777C284.401 247.361 283.879 248.794 283.437 250.015C283.268 250.615 283.047 251.201 282.777 251.764C282.838 251.138 282.975 250.521 283.186 249.929C283.51 248.82 284.011 247.289 284.625 245.639C285.239 243.989 285.839 242.504 286.295 241.441C286.505 240.852 286.775 240.286 287.1 239.752Z" fill="#263238"/>
<path d="M288.664 278.065C288.664 278.065 287.872 267.505 294.723 263.03C294.777 262.993 294.839 262.972 294.904 262.969C294.969 262.965 295.034 262.98 295.091 263.012C295.148 263.044 295.195 263.09 295.227 263.147C295.258 263.204 295.274 263.268 295.271 263.333C295.192 265.03 294.413 270.065 288.664 278.065Z" fill="#17A436"/>
<path d="M293.363 266.171C293.216 266.781 293.006 267.374 292.736 267.94C292.248 269.141 291.667 270.58 291.027 272.118C290.387 273.656 289.826 275.088 289.337 276.296C289.142 276.892 288.892 277.468 288.592 278.018C288.679 277.394 288.841 276.783 289.073 276.197C289.436 275.101 289.991 273.596 290.664 271.966C291.337 270.336 291.984 268.871 292.479 267.828C292.714 267.246 293.01 266.691 293.363 266.171Z" fill="#263238"/>
<path d="M276.659 193.01C276.659 193.01 267.3 188.1 267.095 179.923C267.095 179.858 267.112 179.795 267.144 179.74C267.176 179.685 267.223 179.639 267.279 179.608C267.335 179.577 267.399 179.561 267.463 179.563C267.527 179.565 267.589 179.585 267.643 179.619C269.036 180.583 272.903 183.909 276.659 193.01Z" fill="#17A436"/>
<path d="M269.042 182.734C269.482 183.183 269.873 183.676 270.211 184.206C270.976 185.255 271.867 186.496 272.851 187.862L275.491 191.506C275.893 191.985 276.251 192.5 276.56 193.043C276.077 192.642 275.645 192.183 275.273 191.677C274.527 190.793 273.55 189.526 272.521 188.093C271.491 186.661 270.587 185.335 269.966 184.364C269.603 183.855 269.293 183.308 269.042 182.734Z" fill="#263238"/>
<path d="M286.737 214.705C286.737 214.705 277.075 210.382 276.395 202.217C276.389 202.153 276.402 202.089 276.43 202.031C276.459 201.974 276.503 201.925 276.558 201.891C276.613 201.857 276.675 201.839 276.74 201.838C276.804 201.837 276.868 201.854 276.923 201.887C278.368 202.765 282.427 205.841 286.737 214.705Z" fill="#17A436"/>
<path d="M278.52 204.91C278.986 205.329 279.406 205.796 279.774 206.303L282.638 209.794L285.509 213.272C285.939 213.728 286.328 214.22 286.671 214.744C286.165 214.37 285.704 213.939 285.298 213.457C284.506 212.612 283.45 211.411 282.335 210.045C281.219 208.679 280.243 207.405 279.556 206.474C279.154 205.993 278.806 205.468 278.52 204.91Z" fill="#263238"/>
<path d="M281.16 238.92C281.16 238.92 274.56 230.67 277.642 223.08C277.667 223.02 277.707 222.969 277.759 222.931C277.811 222.893 277.872 222.87 277.936 222.864C278 222.859 278.065 222.871 278.122 222.9C278.18 222.929 278.228 222.973 278.263 223.027C279.18 224.459 281.378 229.053 281.16 238.92Z" fill="#17A436"/>
<path d="M278.309 226.433C278.535 227.019 278.698 227.627 278.797 228.248C279.074 229.515 279.398 231.007 279.754 232.657C280.111 234.307 280.447 235.792 280.724 237.059C280.901 237.66 281.022 238.277 281.087 238.9C280.798 238.339 280.576 237.745 280.427 237.131C280.104 236.016 279.708 234.491 279.338 232.736C278.969 230.98 278.678 229.436 278.494 228.301C278.364 227.687 278.302 227.06 278.309 226.433Z" fill="#263238"/>
<path d="M287.76 267.373C287.76 267.373 278.17 262.891 277.629 254.72C277.623 254.655 277.635 254.59 277.664 254.531C277.693 254.472 277.738 254.423 277.793 254.389C277.849 254.354 277.913 254.336 277.979 254.337C278.044 254.337 278.108 254.356 278.164 254.39C279.583 255.295 283.589 258.443 287.76 267.373Z" fill="#17A436"/>
<path d="M279.688 257.44C280.142 257.872 280.553 258.348 280.916 258.859L283.721 262.39L286.532 265.921C286.955 266.382 287.335 266.882 287.668 267.412C287.176 267.027 286.733 266.584 286.348 266.092C285.562 265.234 284.533 264.013 283.437 262.627C282.341 261.241 281.391 259.954 280.718 259.01C280.315 258.529 279.969 258.001 279.688 257.44Z" fill="#263238"/>
<path d="M306.841 225.766C306.841 225.766 306.841 225.845 306.841 225.997C306.841 226.149 306.841 226.4 306.841 226.657C306.841 227.317 306.775 228.155 306.728 229.225C306.61 231.482 306.431 234.63 306.227 238.392C305.567 242.22 303.587 246.464 300.947 250.589C299.026 253.625 296.987 256.384 295.271 258.951C293.705 261.204 292.298 263.564 291.06 266.013C290.241 267.668 289.578 269.396 289.08 271.174C288.915 271.801 288.783 272.296 288.71 272.633C288.679 272.808 288.633 272.98 288.572 273.148C288.574 272.97 288.596 272.793 288.638 272.62C288.684 272.276 288.783 271.775 288.935 271.135C289.379 269.325 290.009 267.567 290.816 265.888C292.042 263.419 293.448 261.043 295.02 258.779C296.749 256.192 298.749 253.427 300.663 250.411C303.27 246.305 305.21 242.128 305.943 238.359C306.207 234.604 306.425 231.462 306.603 229.205C306.689 228.136 306.761 227.284 306.814 226.644C306.814 226.38 306.86 226.156 306.88 225.984C306.858 225.913 306.844 225.84 306.841 225.766Z" fill="#263238"/>
<path d="M301.132 249.83C301.132 249.83 305.191 240.062 300.089 233.653C300.049 233.602 299.996 233.563 299.935 233.54C299.875 233.517 299.809 233.511 299.745 233.523C299.682 233.536 299.623 233.565 299.575 233.609C299.527 233.653 299.493 233.71 299.475 233.772C299.02 235.409 298.181 240.431 301.132 249.83Z" fill="#17A436"/>
<path d="M300.392 237.065C300.567 237.668 300.676 238.287 300.716 238.913C300.861 240.062 301.019 241.652 301.145 243.415C301.27 245.177 301.33 246.774 301.33 247.936C301.369 248.563 301.332 249.192 301.217 249.81C301.103 249.194 301.048 248.569 301.052 247.942C300.967 246.622 300.861 245.124 300.749 243.441C300.637 241.758 300.531 240.233 300.439 238.94C300.362 238.318 300.346 237.69 300.392 237.065Z" fill="#263238"/>
<g opacity="0.3">
<path d="M301.132 249.83C301.132 249.83 305.191 240.062 300.089 233.653C300.049 233.602 299.996 233.563 299.935 233.54C299.875 233.517 299.809 233.511 299.745 233.523C299.682 233.536 299.623 233.565 299.575 233.609C299.527 233.653 299.493 233.71 299.475 233.772C299.02 235.409 298.181 240.431 301.132 249.83Z" fill="black"/>
</g>
<path d="M288.559 273.385C288.559 273.385 291.812 263.314 286.202 257.347C286.159 257.3 286.103 257.265 286.041 257.247C285.979 257.229 285.914 257.229 285.852 257.246C285.79 257.263 285.733 257.297 285.689 257.344C285.645 257.391 285.615 257.449 285.602 257.512C285.285 259.175 284.856 264.257 288.559 273.385Z" fill="#17A436"/>
<path d="M286.783 260.7C287.012 261.287 287.171 261.898 287.258 262.522C287.496 263.65 287.78 265.228 288.05 266.97C288.321 268.712 288.506 270.303 288.605 271.458C288.69 272.082 288.702 272.713 288.638 273.339C288.481 272.733 288.375 272.115 288.321 271.491C288.13 270.204 287.905 268.699 287.661 267.029C287.417 265.36 287.179 263.855 287.001 262.568C286.867 261.954 286.794 261.328 286.783 260.7Z" fill="#263238"/>
<g opacity="0.3">
<path d="M288.559 273.385C288.559 273.385 291.812 263.314 286.202 257.347C286.159 257.3 286.103 257.265 286.041 257.247C285.979 257.229 285.914 257.229 285.852 257.246C285.79 257.263 285.733 257.297 285.689 257.344C285.645 257.391 285.615 257.449 285.602 257.512C285.285 259.175 284.856 264.257 288.559 273.385Z" fill="black"/>
</g>
<path d="M306.306 237.89C306.306 237.89 314.972 231.818 314.101 223.674C314.094 223.61 314.07 223.549 314.03 223.498C313.991 223.447 313.939 223.408 313.879 223.384C313.819 223.361 313.753 223.355 313.69 223.366C313.627 223.378 313.568 223.407 313.52 223.45C312.259 224.585 308.88 228.36 306.306 237.89Z" fill="#17A436"/>
<g opacity="0.3">
<path d="M306.306 237.89C306.306 237.89 314.972 231.818 314.101 223.674C314.094 223.61 314.07 223.549 314.03 223.498C313.991 223.447 313.939 223.408 313.879 223.384C313.819 223.361 313.753 223.355 313.69 223.366C313.627 223.378 313.568 223.407 313.52 223.45C312.259 224.585 308.88 228.36 306.306 237.89Z" fill="black"/>
</g>
<path d="M312.53 226.717C312.358 227.321 312.116 227.904 311.81 228.452C311.315 229.495 310.596 230.921 309.758 232.478C308.92 234.036 308.114 235.415 307.494 236.392C307.189 236.941 306.819 237.45 306.392 237.91C306.624 237.33 306.911 236.773 307.25 236.247C307.87 235.105 308.603 233.772 309.408 232.287L311.56 228.327C311.83 227.76 312.155 227.221 312.53 226.717Z" fill="#263238"/>
<path d="M292.057 263.399C292.057 263.399 302.511 261.769 305.309 254.074C305.332 254.014 305.338 253.948 305.326 253.885C305.314 253.822 305.285 253.764 305.242 253.716C305.199 253.668 305.144 253.633 305.083 253.615C305.021 253.597 304.956 253.595 304.894 253.612C303.263 254.1 298.538 255.981 292.057 263.399Z" fill="#17A436"/>
<g opacity="0.3">
<path d="M292.057 263.399C292.057 263.399 302.511 261.769 305.309 254.074C305.332 254.014 305.338 253.948 305.326 253.885C305.314 253.822 305.285 253.764 305.242 253.716C305.199 253.668 305.144 253.633 305.083 253.615C305.021 253.597 304.956 253.595 304.894 253.612C303.263 254.1 298.538 255.981 292.057 263.399Z" fill="black"/>
</g>
<path d="M302.564 256.113C302.14 256.575 301.666 256.989 301.151 257.347C300.247 258.073 298.973 259.037 297.541 260.066C296.109 261.096 294.769 261.974 293.779 262.581C293.263 262.941 292.704 263.236 292.116 263.459C292.584 263.041 293.09 262.668 293.627 262.343L297.31 259.743L300.986 257.103C301.476 256.718 302.004 256.386 302.564 256.113Z" fill="#263238"/>
<path d="M282.077 282.645L279.028 303.171H298.036L295.574 282.645H282.077Z" fill="#455A64"/>
<path d="M296.34 289.001C296.34 289.113 292.908 289.199 288.677 289.199C284.447 289.199 281.008 289.113 281.008 289.001C283.56 288.805 286.119 288.739 288.677 288.803C291.233 288.739 293.791 288.805 296.34 289.001Z" fill="#263238"/>
<path d="M296.71 290.638C296.71 290.75 293.165 290.836 288.79 290.836C284.414 290.836 280.87 290.75 280.87 290.638C280.87 290.525 284.414 290.44 288.79 290.44C293.165 290.44 296.71 290.525 296.71 290.638Z" fill="#263238"/>
<path d="M222.796 83.5164C222.796 83.5164 222.618 83.5164 222.275 83.5164C221.774 83.4866 221.271 83.4866 220.77 83.5164C218.832 83.6299 216.927 84.0764 215.14 84.8364C212.308 86.0237 209.843 87.9441 207.999 90.4002C206.862 91.9338 206.017 93.6631 205.504 95.502C204.349 99.8825 204.973 104.542 207.24 108.464C207.858 109.55 208.612 110.553 209.484 111.448C210.364 112.396 211.388 113.198 212.52 113.824C213.681 114.477 214.996 114.808 216.328 114.781C217.702 114.764 219.019 114.232 220.018 113.289C220.501 112.783 220.879 112.187 221.132 111.535C221.384 110.882 221.506 110.187 221.489 109.487C221.479 108.035 221.018 106.621 220.169 105.442C218.46 103.033 215.688 101.416 212.738 100.544C209.679 99.6852 206.448 99.6397 203.366 100.412C201.793 100.822 200.276 101.425 198.851 102.208C197.413 103.019 196.107 104.045 194.977 105.25C194.707 105.56 194.396 105.844 194.152 106.187L193.406 107.191C192.953 107.898 192.547 108.634 192.192 109.395C191.486 110.94 191.004 112.578 190.76 114.259C190.281 117.618 190.737 121.043 192.08 124.159C193.363 127.204 195.597 129.751 198.449 131.419C199.831 132.209 201.375 132.676 202.963 132.785C204.521 132.873 206.07 132.501 207.418 131.716C208.757 130.977 209.814 129.817 210.428 128.416C211.007 127.036 211.047 125.489 210.54 124.08C210.018 122.721 209.165 121.514 208.058 120.569C206.985 119.641 205.747 118.922 204.409 118.45C201.799 117.627 199.006 117.579 196.37 118.312C193.903 118.98 191.637 120.242 189.77 121.988C188.069 123.617 186.774 125.622 185.988 127.842C184.613 131.694 184.676 135.913 186.166 139.722C187.328 142.566 189.198 145.065 191.598 146.982C193.11 148.195 194.794 149.176 196.594 149.893C197.215 150.124 197.696 150.295 198.026 150.388L198.515 150.546C198.515 150.546 198.343 150.513 198.013 150.421C197.526 150.29 197.045 150.134 196.574 149.952C194.75 149.267 193.044 148.3 191.519 147.088C189.078 145.172 187.171 142.66 185.981 139.795C184.465 135.95 184.388 131.687 185.764 127.789C186.551 125.536 187.861 123.5 189.585 121.849C191.478 120.069 193.778 118.777 196.284 118.087C198.976 117.336 201.828 117.382 204.494 118.219C205.872 118.7 207.146 119.436 208.25 120.391C209.4 121.367 210.286 122.618 210.824 124.027C211.367 125.499 211.343 127.119 210.758 128.575C210.107 130.03 209.002 131.237 207.61 132.013C206.211 132.828 204.606 133.218 202.99 133.135C201.362 133.022 199.782 132.539 198.37 131.723C195.453 130.031 193.163 127.44 191.842 124.337C190.471 121.165 190.001 117.675 190.483 114.253C190.735 112.537 191.228 110.866 191.948 109.289C192.31 108.512 192.725 107.76 193.189 107.039L193.954 106.016C194.198 105.666 194.515 105.356 194.792 105.052C195.948 103.824 197.284 102.779 198.752 101.95C200.21 101.152 201.762 100.54 203.372 100.129C206.513 99.3415 209.806 99.3892 212.923 100.267C215.932 101.165 218.75 102.808 220.526 105.303C221.418 106.531 221.903 108.009 221.912 109.527C221.944 111.021 221.381 112.467 220.348 113.546C219.292 114.538 217.902 115.096 216.454 115.111C215.068 115.142 213.699 114.798 212.494 114.114C211.335 113.475 210.288 112.652 209.392 111.679C208.508 110.764 207.743 109.742 207.115 108.636C204.807 104.641 204.18 99.893 205.372 95.436C205.9 93.5758 206.766 91.8285 207.926 90.2814C209.804 87.8067 212.311 85.8808 215.186 84.7044C216.988 83.9591 218.908 83.539 220.856 83.4636C221.361 83.4303 221.868 83.4303 222.374 83.4636L222.796 83.5164Z" fill="#263238"/>
<path d="M244.834 149.556H152.295V220.928H244.834V149.556Z" fill="#17A436"/>
<path d="M152.295 149.556L169.389 165.502H260.357L244.834 149.556H152.295Z" fill="#17A436"/>
<path d="M152.295 149.556L244.86 149.391H244.933L244.985 149.437L260.35 165.218L260.509 165.383L260.792 165.673H260.383L169.415 165.601H169.376L152.295 149.556L169.455 165.396H169.382L260.35 165.33L260.231 165.62L260.066 165.455L244.708 149.675L244.827 149.728L152.295 149.556Z" fill="#263238"/>
<path d="M180.094 182.47C179.593 182.488 179.119 182.703 178.774 183.067C178.429 183.431 178.241 183.916 178.25 184.418C178.259 184.919 178.465 185.397 178.822 185.749C179.18 186.1 179.662 186.297 180.163 186.297C180.665 186.297 181.147 186.1 181.505 185.749C181.862 185.397 182.068 184.919 182.077 184.418C182.086 183.916 181.898 183.431 181.553 183.067C181.208 182.703 180.734 182.488 180.233 182.47" fill="#263238"/>
<path d="M201.96 182.47C201.461 182.489 200.989 182.703 200.646 183.067C200.303 183.43 200.116 183.913 200.126 184.413C200.135 184.912 200.34 185.388 200.697 185.738C201.053 186.088 201.533 186.284 202.033 186.284C202.532 186.284 203.012 186.088 203.368 185.738C203.725 185.388 203.93 184.912 203.94 184.413C203.949 183.913 203.762 183.43 203.419 183.067C203.076 182.703 202.604 182.489 202.105 182.47" fill="#263238"/>
<path d="M202.085 199.551C201.704 198.093 201.084 196.708 200.251 195.452C199.324 194.109 198.134 192.969 196.753 192.1C195.086 190.994 193.143 190.379 191.144 190.324C189.145 190.269 187.171 190.777 185.447 191.789C184.023 192.585 182.773 193.657 181.771 194.944C180.868 196.154 180.174 197.505 179.718 198.944C179.723 198.837 179.741 198.73 179.771 198.627C179.834 198.33 179.916 198.037 180.015 197.749C180.377 196.689 180.905 195.693 181.579 194.799C182.574 193.452 183.84 192.328 185.295 191.499C187.064 190.443 189.096 189.912 191.156 189.968C193.215 190.024 195.216 190.665 196.924 191.816C198.329 192.719 199.53 193.906 200.449 195.301C201.076 196.231 201.55 197.256 201.854 198.337C201.936 198.63 202 198.927 202.046 199.228C202.069 199.334 202.082 199.442 202.085 199.551Z" fill="#263238"/>
<path opacity="0.5" d="M152.506 150.341L168.874 171.092H244.834V165.502H169.389L152.506 150.341Z" fill="black"/>
<path d="M226.585 220.77C226.492 220.77 226.413 208.355 226.413 193.05C226.413 177.745 226.492 165.33 226.585 165.33C226.677 165.33 226.763 177.738 226.763 193.05C226.763 208.362 226.684 220.77 226.585 220.77Z" fill="#263238"/>
<path d="M241.118 204.587H232.96V213.807H241.118V204.587Z" fill="#F5F5F5"/>
<path d="M152.295 149.556L133.3 165.502H152.295V149.556Z" fill="#17A436"/>
<g opacity="0.4">
<path d="M152.295 149.556L133.3 165.502H152.295V149.556Z" fill="black"/>
</g>
<path d="M247.566 220.928H141.167V302.993H247.566V220.928Z" fill="#17A436"/>
<path opacity="0.3" d="M247.566 220.928H141.167V302.993H247.566V220.928Z" fill="black"/>
<path d="M220.909 302.412C220.816 302.412 220.737 284.123 220.737 261.565C220.737 239.006 220.816 220.711 220.909 220.711C221.001 220.711 221.08 238.999 221.08 261.565C221.08 284.13 221.001 302.412 220.909 302.412Z" fill="#263238"/>
<path d="M238.544 284.315H230.386V293.535H238.544V284.315Z" fill="#F5F5F5"/>
<path d="M185.711 221.146H173.626V238.656H185.711V221.146Z" fill="#263238"/>
<path d="M185.711 285.239H173.626V302.749H185.711V285.239Z" fill="#263238"/>
<path d="M246.642 220.928H246.365H245.566L242.497 220.961L231.191 221.014L193.908 221.1L156.611 221.054L145.312 221.001L142.243 220.968L145.312 220.935L156.611 220.882L193.908 220.829L231.191 220.882L242.497 220.935L245.566 220.968H246.365L246.642 220.928Z" fill="#263238"/>
<path d="M64.2972 78.8503L52.7076 75.9991H52.7934C49.8009 77.9025 46.3405 78.9418 42.7944 79.002C40.695 79.0116 38.6061 78.7068 36.597 78.0979C33.0648 76.9637 29.9311 74.8421 27.5662 71.9837C25.2014 69.1253 23.7042 65.6496 23.2518 61.9675C22.8964 59.1827 23.158 56.3538 24.018 53.6814C24.878 51.009 26.3154 48.5585 28.2282 46.5037C29.2337 45.3992 30.3606 44.4118 31.5876 43.5601C32.208 43.1707 32.8284 42.7681 33.4752 42.4315L34.4586 41.9563L34.947 41.7187L35.4618 41.5339C38.112 40.5066 40.9549 40.0718 43.791 40.2601C47.5919 40.5068 51.2347 41.8733 54.2603 44.1871C57.2858 46.5009 59.5588 49.6585 60.7926 53.262C61.4781 55.2779 61.839 57.3898 61.8618 59.5189C61.8783 63.0572 60.9167 66.5312 59.0832 69.5575V69.4519C62.304 75.2665 63.9276 78.2035 64.2906 78.8503C63.9144 78.1903 62.2314 75.306 58.8984 69.5508V69.4981V69.4453C60.6661 66.4483 61.5791 63.0244 61.5384 59.5453C61.5078 57.4503 61.1423 55.3737 60.456 53.3941C59.2356 49.8642 57.0009 46.7729 54.0319 44.507C51.0629 42.2412 47.4914 40.9017 43.7646 40.6561C40.9844 40.4749 38.1981 40.9028 35.6004 41.9101L35.0988 42.0883L34.617 42.3258L33.6534 42.7879C32.9934 43.1245 32.4126 43.5139 31.7988 43.8967C30.5955 44.7255 29.4886 45.6863 28.4988 46.7611C26.621 48.7783 25.2095 51.1837 24.3644 53.8069C23.5193 56.4301 23.2611 59.207 23.6082 61.9411C24.2201 66.95 26.7899 71.513 30.756 74.6329C32.5291 76.0378 34.5414 77.111 36.696 77.8008C38.669 78.4108 40.7227 78.72 42.7878 78.7183C46.2914 78.6807 49.7168 77.6782 52.6878 75.8209H52.7274H52.8L64.2972 78.8503Z" fill="#263238"/>
<path d="M40.92 51.018L41.5074 60.72C41.5308 61.1027 41.6934 61.4636 41.9645 61.7347C42.2356 62.0058 42.5965 62.1684 42.9792 62.1918C43.3818 62.2146 43.7779 62.0823 44.086 61.822C44.3941 61.5618 44.5909 61.1934 44.6358 60.7926L45.7116 51.0708C45.7303 50.8969 45.7119 50.721 45.6574 50.5547C45.603 50.3885 45.5139 50.2357 45.3959 50.1065C45.278 49.9773 45.1339 49.8747 44.9733 49.8054C44.8126 49.7361 44.6391 49.7018 44.4642 49.7046H42.108C41.9427 49.7096 41.78 49.7479 41.6299 49.8172C41.4797 49.8866 41.3451 49.9855 41.2341 50.1082C41.1232 50.2309 41.0381 50.3747 40.9842 50.531C40.9302 50.6874 40.9084 50.853 40.92 51.018Z" fill="#17A436"/>
<path d="M45.54 67.6104C45.3923 68.0536 45.1165 68.4431 44.7476 68.7296C44.3786 69.0161 43.933 69.1868 43.467 69.2202C43.001 69.2535 42.5357 69.148 42.1296 68.9169C41.7236 68.6858 41.3952 68.3396 41.186 67.9219C40.9767 67.5043 40.8959 67.034 40.9538 66.5704C41.0117 66.1069 41.2058 65.6709 41.5114 65.3176C41.817 64.9643 42.2205 64.7095 42.6709 64.5854C43.1213 64.4614 43.5984 64.4736 44.0418 64.6206C44.3366 64.7183 44.6093 64.8732 44.8442 65.0764C45.0791 65.2796 45.2716 65.5272 45.4108 65.8049C45.5499 66.0826 45.633 66.385 45.6552 66.6948C45.6773 67.0046 45.6382 67.3157 45.54 67.6104Z" fill="#17A436"/>
</svg>
