<svg width="390" height="260" viewBox="0 0 390 260" fill="none" xmlns="http://www.w3.org/2000/svg">
<path d="M166.031 189.816L155.938 233.646H160.42L170.638 189.816H166.031Z" fill="#E0E0E0"/>
<path d="M184.631 189.816L194.704 233.646H198.796L189.056 189.816H184.631Z" fill="#E0E0E0"/>
<path d="M159.151 156.572L164.954 187.044H171.553L165.355 156.572H159.151Z" fill="#E0E0E0"/>
<path d="M58.058 189.816L49.7432 233.834H53.976L62.66 189.816H58.058Z" fill="#E0E0E0"/>
<path d="M75.5404 189.816L85.046 233.834H89.2268L80.0488 189.816H75.5404Z" fill="#E0E0E0"/>
<path d="M51.1784 156.572L56.9816 187.044H63.5752L57.3768 156.572H51.1784Z" fill="#E0E0E0"/>
<path d="M38.116 153.8L39.3016 159.344H171.751L170.201 153.8H38.116Z" fill="#EBEBEB"/>
<path d="M40.6484 164.559L42.0472 170.102H173.597L172.401 164.559H40.6484Z" fill="#EBEBEB"/>
<path d="M43.264 175.698L44.564 181.241H175.708L174.465 175.698H43.264Z" fill="#EBEBEB"/>
<path d="M194.704 187.044H53.2896V192.582H194.704V187.044Z" fill="#EBEBEB"/>
<path d="M53.2896 73.7412H86.3564C86.3564 73.7412 83.4288 68.4216 74.9164 69.1964C66.7836 69.9348 66.3728 66.5964 62.2388 66.1648C58.1048 65.7332 54.6676 68.9208 53.2896 73.7412Z" fill="#EBEBEB"/>
<path d="M112.689 51.688H188.443C188.443 51.688 181.745 39.52 162.24 41.2724C143.619 42.9676 142.672 35.2768 133.203 34.32C123.734 33.3632 115.846 40.6432 112.689 51.688Z" fill="#E0E0E0"/>
<path d="M308.729 51.9011H251.321V233.834H308.729V51.9011Z" fill="#F5F5F5"/>
<path d="M308.729 51.9011H280.025V233.334H308.729V51.9011Z" fill="#EBEBEB"/>
<path d="M278.143 34.0392H257.873V51.9012H278.143V34.0392Z" fill="#F5F5F5"/>
<path d="M278.148 34.0392H273.317V51.9012H278.148V34.0392Z" fill="#EBEBEB"/>
<path d="M246.537 51.9012V50.856H310.404V51.9012" fill="#E0E0E0"/>
<path d="M267.509 59.6908H262.652V69.9348H267.509V59.6908Z" fill="#FAFAFA"/>
<path d="M280.025 73.9544C280.025 74.0636 273.598 74.152 265.673 74.152C257.748 74.152 251.321 74.0636 251.321 73.9544C251.321 73.8452 257.743 73.762 265.673 73.762C273.603 73.762 280.025 73.84 280.025 73.9544Z" fill="#E0E0E0"/>
<path d="M296.462 59.6908H291.606V69.9348H296.462V59.6908Z" fill="#E0E0E0"/>
<path d="M308.974 73.9544C308.974 74.0636 302.552 74.152 294.627 74.152C286.702 74.152 280.275 74.0636 280.275 73.9544C280.275 73.8452 286.697 73.762 294.627 73.762C302.557 73.762 308.974 73.84 308.974 73.9544Z" fill="#E0E0E0"/>
<path d="M296.462 80.0332H291.606V90.2772H296.462V80.0332Z" fill="#E0E0E0"/>
<path d="M308.974 94.2968C308.974 94.406 302.552 94.4944 294.627 94.4944C286.702 94.4944 280.275 94.406 280.275 94.2968C280.275 94.1876 286.697 94.1044 294.627 94.1044C302.557 94.1044 308.974 94.1928 308.974 94.2968Z" fill="#E0E0E0"/>
<path d="M296.462 100.989H291.606V111.233H296.462V100.989Z" fill="#E0E0E0"/>
<path d="M308.974 115.253C308.974 115.362 302.552 115.45 294.627 115.45C286.702 115.45 280.275 115.362 280.275 115.253C280.275 115.144 286.697 115.06 294.627 115.06C302.557 115.06 308.974 115.149 308.974 115.253Z" fill="#E0E0E0"/>
<path d="M296.462 121.945H291.606V132.189H296.462V121.945Z" fill="#E0E0E0"/>
<path d="M308.974 136.209C308.974 136.318 302.552 136.406 294.627 136.406C286.702 136.406 280.275 136.318 280.275 136.209C280.275 136.1 286.697 136.016 294.627 136.016C302.557 136.016 308.974 136.105 308.974 136.209Z" fill="#E0E0E0"/>
<path d="M296.462 142.303H291.606V152.547H296.462V142.303Z" fill="#E0E0E0"/>
<path d="M308.974 156.567C308.974 156.676 302.552 156.764 294.627 156.764C286.702 156.764 280.275 156.676 280.275 156.567C280.275 156.458 286.697 156.374 294.627 156.374C302.557 156.374 308.974 156.458 308.974 156.567Z" fill="#E0E0E0"/>
<path d="M296.462 162.739H291.606V172.983H296.462V162.739Z" fill="#E0E0E0"/>
<path d="M296.462 183.446H291.606V193.69H296.462V183.446Z" fill="#E0E0E0"/>
<path d="M308.974 177.008C308.974 177.117 302.552 177.2 294.627 177.2C286.702 177.2 280.275 177.117 280.275 177.008C280.275 176.899 286.697 176.81 294.627 176.81C302.557 176.81 308.974 176.899 308.974 177.008Z" fill="#E0E0E0"/>
<path d="M267.509 80.34H262.652V90.584H267.509V80.34Z" fill="#FAFAFA"/>
<path d="M280.025 94.6087C280.025 94.7179 273.598 94.8063 265.673 94.8063C257.748 94.8063 251.321 94.7179 251.321 94.6087C251.321 94.4995 257.743 94.4111 265.673 94.4111C273.603 94.4111 280.025 94.4995 280.025 94.6087Z" fill="#E0E0E0"/>
<path d="M267.509 100.994H262.652V111.238H267.509V100.994Z" fill="#FAFAFA"/>
<path d="M280.025 115.263C280.025 115.372 273.598 115.456 265.673 115.456C257.748 115.456 251.321 115.372 251.321 115.263C251.321 115.154 257.743 115.066 265.673 115.066C273.603 115.066 280.025 115.154 280.025 115.263Z" fill="#E0E0E0"/>
<path d="M267.509 121.649H262.652V131.893H267.509V121.649Z" fill="#FAFAFA"/>
<path d="M280.025 135.918C280.025 136.022 273.598 136.11 265.673 136.11C257.748 136.11 251.321 136.022 251.321 135.918C251.321 135.814 257.743 135.72 265.673 135.72C273.603 135.72 280.025 135.808 280.025 135.918Z" fill="#E0E0E0"/>
<path d="M267.509 142.303H262.652V152.547H267.509V142.303Z" fill="#FAFAFA"/>
<path d="M280.025 156.567C280.025 156.676 273.598 156.764 265.673 156.764C257.748 156.764 251.321 156.676 251.321 156.567C251.321 156.458 257.743 156.374 265.673 156.374C273.603 156.374 280.025 156.458 280.025 156.567Z" fill="#E0E0E0"/>
<path d="M267.509 162.952H262.652V173.196H267.509V162.952Z" fill="#FAFAFA"/>
<path d="M280.025 177.221C280.025 177.33 273.598 177.419 265.673 177.419C257.748 177.419 251.321 177.33 251.321 177.221C251.321 177.112 257.743 177.024 265.673 177.024C273.603 177.024 280.025 177.112 280.025 177.221Z" fill="#E0E0E0"/>
<path d="M267.509 183.607H262.652V193.851H267.509V183.607Z" fill="#FAFAFA"/>
<path d="M355.415 154.227H313.212V234.328H355.415V154.227Z" fill="#E0E0E0"/>
<path d="M355.42 154.227H335.629V234.328H355.42V154.227Z" fill="#EBEBEB"/>
<path d="M325.858 161.762H322.062V170.981H325.858V161.762Z" fill="#F5F5F5"/>
<path d="M325.858 197.844H322.062V207.064H325.858V197.844Z" fill="#F5F5F5"/>
<path d="M335.629 174.6C335.629 174.678 330.611 174.741 324.423 174.741C318.235 174.741 313.212 174.678 313.212 174.6C313.212 174.522 318.23 174.455 324.423 174.455C330.616 174.455 335.629 174.522 335.629 174.6Z" fill="#F5F5F5"/>
<path d="M325.858 179.941H322.062V189.16H325.858V179.941Z" fill="#F5F5F5"/>
<path d="M335.629 192.78C335.629 192.858 330.611 192.92 324.423 192.92C318.235 192.92 313.212 192.858 313.212 192.78C313.212 192.702 318.23 192.634 324.423 192.634C330.616 192.634 335.629 192.696 335.629 192.78Z" fill="#F5F5F5"/>
<path d="M343.626 161.762H339.83V170.981H343.626V161.762Z" fill="#E0E0E0"/>
<path d="M351.858 161.762H348.062V170.981H351.858V161.762Z" fill="#E0E0E0"/>
<path d="M343.626 179.254H339.83V188.474H343.626V179.254Z" fill="#E0E0E0"/>
<path d="M351.858 179.254H348.062V188.474H351.858V179.254Z" fill="#E0E0E0"/>
<path d="M343.626 196.752H339.83V205.972H343.626V196.752Z" fill="#E0E0E0"/>
<path d="M351.858 196.752H348.062V205.972H351.858V196.752Z" fill="#E0E0E0"/>
<path d="M358.592 152.287H310.04V154.294H358.592V152.287Z" fill="#E0E0E0"/>
<path d="M355.711 154.482C355.711 154.565 346.278 154.627 334.646 154.627C323.014 154.627 313.576 154.565 313.576 154.482C313.576 154.398 323.008 154.341 334.646 154.341C346.284 154.341 355.711 154.404 355.711 154.482Z" fill="#EBEBEB"/>
<path d="M354.468 233.865C354.468 233.937 283.067 234 195.005 234C106.943 234 35.5316 233.937 35.5316 233.865C35.5316 233.792 106.917 233.729 195.005 233.729C283.093 233.729 354.468 233.792 354.468 233.865Z" fill="#263238"/>
<path d="M251.935 224.271H245.274V233.865H251.935V224.271Z" fill="#263238"/>
<path d="M209.929 224.151C209.929 224.151 270.249 224.427 270.249 224.151V130.109H226.049C223.792 130.11 221.558 130.558 219.475 131.429C217.393 132.299 215.504 133.574 213.918 135.18C212.332 136.786 211.081 138.69 210.236 140.783C209.392 142.876 208.971 145.116 208.998 147.373L209.929 224.151Z" fill="#17A436"/>
<path d="M270.4 130.109H271.851C274.952 130.109 277.927 131.341 280.12 133.534C282.313 135.728 283.546 138.702 283.546 141.804V224.271H258.679V141.809C258.679 140.271 258.981 138.747 259.57 137.326C260.159 135.905 261.023 134.614 262.112 133.527C263.201 132.44 264.493 131.579 265.915 130.992C267.338 130.406 268.862 130.106 270.4 130.109Z" fill="#263238"/>
<path d="M250.479 153.832H218.993V165.147H250.479V153.832Z" fill="#263238"/>
<path d="M216.58 223.09H209.919V233.865H216.58V223.09Z" fill="#17A436"/>
<path d="M258.346 224.271H251.685V233.865H258.346V224.271Z" fill="#17A436"/>
<path d="M282.516 224.271H275.855V233.865H282.516V224.271Z" fill="#263238"/>
<path d="M231.4 130.109L230.916 130.14C230.594 130.14 230.116 130.14 229.492 130.239C227.665 130.409 225.881 130.893 224.219 131.669C223.024 132.251 221.915 132.995 220.922 133.879C219.749 134.939 218.738 136.166 217.922 137.519C216.981 139.084 216.28 140.781 215.842 142.553C215.347 144.548 215.137 146.603 215.218 148.658C215.218 166.015 215.244 190.226 215.259 217.641L215.129 217.511H253.609L253.479 217.641C253.479 191.599 253.516 168.761 253.526 152.428C253.526 148.346 253.526 144.674 253.568 141.456C253.776 138.237 254.54 135.502 255.715 133.567C256.225 132.706 256.894 131.949 257.686 131.336C258.271 130.896 258.932 130.567 259.636 130.364L260.036 130.25L260.39 130.187C260.573 130.151 260.759 130.128 260.946 130.12H261.399L260.952 130.172C260.764 130.182 260.578 130.208 260.395 130.25L260.042 130.317L259.646 130.432C258.955 130.645 258.307 130.98 257.733 131.42C256.954 132.031 256.298 132.785 255.798 133.64C254.644 135.564 253.895 138.289 253.718 141.487C253.677 144.695 253.718 148.377 253.718 152.454C253.718 168.787 253.744 191.625 253.765 217.667V217.802H215.025V217.667C215.025 190.252 215.056 166.041 215.072 148.684C214.996 146.615 215.213 144.545 215.717 142.537C216.172 140.752 216.89 139.045 217.849 137.472C218.677 136.106 219.702 134.869 220.891 133.801C221.897 132.917 223.018 132.173 224.224 131.591C225.899 130.821 227.696 130.349 229.533 130.198C230.007 130.149 230.482 130.125 230.958 130.125L231.4 130.109Z" fill="#263238"/>
<path d="M252.746 175.193C252.746 175.271 244.286 175.328 233.854 175.328C223.423 175.328 214.968 175.271 214.968 175.193C214.968 175.115 223.423 175.058 233.854 175.058C244.286 175.058 252.746 175.12 252.746 175.193Z" fill="#263238"/>
<path d="M218.338 182.109H218.483H218.93H220.678L227.276 182.078L250.479 182.016H250.604V182.14C250.604 188.547 250.604 195.619 250.604 203.05L250.463 203.19H233.147H218.327H218.223V203.086C218.223 196.695 218.265 191.459 218.28 187.803C218.28 186.004 218.28 184.595 218.28 183.643C218.28 183.175 218.28 182.811 218.28 182.556C218.28 182.302 218.28 182.192 218.28 182.192C218.28 182.192 218.28 182.328 218.28 182.577C218.28 182.827 218.28 183.206 218.28 183.685C218.28 184.662 218.28 186.082 218.306 187.892C218.306 191.532 218.338 196.732 218.364 203.107L218.254 202.998H233.074H250.39C250.51 202.873 250.234 203.164 250.26 203.128C250.26 195.697 250.26 188.625 250.26 182.218L250.385 182.343L227.266 182.281L220.636 182.25H218.868H218.405L218.338 182.109Z" fill="#263238"/>
<path d="M247.634 142.246H221.837C221.231 142.246 220.74 142.737 220.74 143.343V148.335C220.74 148.941 221.231 149.432 221.837 149.432H247.634C248.24 149.432 248.732 148.941 248.732 148.335V143.343C248.732 142.737 248.24 142.246 247.634 142.246Z" fill="#51B16B"/>
<path d="M280.025 220.189C280.025 220.189 280.025 220.007 280.025 219.669C280.025 219.331 280.025 218.821 280.025 218.166C280.025 216.84 280.025 214.9 280.025 212.404C280.025 207.402 280.025 200.184 279.984 191.261C279.942 182.338 279.958 171.73 279.942 159.947C279.942 157 279.942 153.984 279.942 150.899V146.219C279.942 144.659 280.051 143.042 279.49 141.539C278.968 140.023 278.02 138.691 276.76 137.701C275.477 136.695 273.924 136.094 272.298 135.975C271.892 135.944 271.482 135.933 271.066 135.938C270.65 135.944 270.239 135.964 269.828 135.98C269.009 136.069 268.206 136.271 267.441 136.578C266.681 136.91 265.969 137.344 265.325 137.868C264.686 138.409 264.13 139.041 263.676 139.745C263.12 140.608 262.729 141.567 262.522 142.574C262.366 143.587 262.312 144.613 262.361 145.636V151.762C262.361 155.814 262.361 159.78 262.361 163.66C262.361 171.413 262.361 178.802 262.361 185.697C262.361 199.488 262.33 211.307 262.319 220.173L262.241 220.095L275.371 220.137H278.871H279.776H280.088H279.791H278.902H275.418L262.241 220.178H262.08V220.106C262.08 211.24 262.054 199.42 262.038 185.63C262.038 178.734 262.038 171.345 262.038 163.592C262.038 159.713 262.038 155.747 262.038 151.694V145.652C261.988 144.609 262.043 143.564 262.205 142.532C262.418 141.491 262.821 140.498 263.396 139.604C263.868 138.883 264.441 138.231 265.096 137.67C265.761 137.132 266.496 136.686 267.28 136.344C268.069 136.027 268.899 135.82 269.745 135.73C270.166 135.73 270.592 135.678 271.008 135.689C271.424 135.699 271.84 135.689 272.262 135.72C273.925 135.847 275.514 136.459 276.833 137.48C278.152 138.502 279.143 139.887 279.682 141.466C279.946 142.234 280.097 143.036 280.129 143.848C280.166 144.654 280.129 145.439 280.129 146.229V150.909C280.129 154.001 280.129 157.024 280.129 159.978C280.129 171.782 280.098 182.416 280.088 191.344C280.077 200.273 280.056 207.464 280.041 212.467C280.041 214.952 280.041 216.882 280.041 218.187C280.041 218.837 280.041 219.331 280.041 219.674C280.041 220.017 280.025 220.189 280.025 220.189Z" fill="#17A436"/>
<path d="M283.078 174.881C283.078 174.954 277.623 175.016 270.899 175.016C264.176 175.016 258.721 174.954 258.721 174.881C258.721 174.808 264.17 174.746 270.899 174.746C277.628 174.746 283.078 174.803 283.078 174.881Z" fill="#17A436"/>
<path d="M124.618 103.797C125.251 103.846 125.888 103.767 126.49 103.564C127.091 103.361 127.646 103.038 128.12 102.616C128.595 102.193 128.979 101.68 129.25 101.105C129.521 100.531 129.674 99.9079 129.698 99.2733C129.797 96.7045 129.886 94.1045 129.886 94.1045C129.886 94.1045 133.786 93.7405 134.046 89.8873C134.306 86.0341 134.212 77.1317 134.212 77.1317C132.077 76.0565 129.694 75.5702 127.308 75.7229C124.922 75.8755 122.621 76.6616 120.64 78.0001L120.042 78.4057L120.245 99.1433C120.257 100.326 120.714 101.461 121.524 102.323C122.334 103.185 123.438 103.711 124.618 103.797Z" fill="#B78876"/>
<path d="M132.397 83.9176C132.319 83.839 132.266 83.7389 132.244 83.63C132.223 83.5211 132.234 83.4083 132.276 83.3058C132.319 83.2033 132.391 83.1157 132.483 83.0541C132.576 82.9925 132.684 82.9596 132.795 82.9596C132.906 82.9596 133.014 82.9925 133.107 83.0541C133.199 83.1157 133.271 83.2033 133.314 83.3058C133.356 83.4083 133.367 83.5211 133.346 83.63C133.324 83.7389 133.271 83.839 133.193 83.9176C133.087 84.0221 132.944 84.0807 132.795 84.0807C132.646 84.0807 132.503 84.0221 132.397 83.9176Z" fill="#263238"/>
<path d="M133.9 83.2676C133.838 83.33 133.479 83.0128 132.943 82.9816C132.408 82.9504 132.012 83.1948 131.955 83.122C131.898 83.0492 131.997 82.9764 132.174 82.8568C132.409 82.7043 132.689 82.6348 132.969 82.6592C133.249 82.6796 133.515 82.7889 133.728 82.9712C133.884 83.1116 133.931 83.2364 133.9 83.2676Z" fill="#263238"/>
<path d="M127.364 83.2C127.454 83.2643 127.523 83.3539 127.563 83.4575C127.602 83.5611 127.61 83.6742 127.586 83.7823C127.561 83.8905 127.505 83.9889 127.425 84.0652C127.344 84.1416 127.243 84.1923 127.133 84.2111C127.024 84.23 126.912 84.216 126.81 84.171C126.709 84.126 126.623 84.052 126.564 83.9583C126.504 83.8646 126.474 83.7554 126.477 83.6445C126.479 83.5336 126.515 83.426 126.578 83.3352C126.666 83.215 126.797 83.1336 126.944 83.1084C127.09 83.0832 127.241 83.116 127.364 83.2Z" fill="#263238"/>
<path d="M128.107 83.3872C128.04 83.4496 127.681 83.1324 127.15 83.096C126.62 83.0596 126.214 83.3144 126.162 83.2416C126.11 83.1688 126.204 83.0908 126.376 82.9764C126.614 82.826 126.894 82.756 127.174 82.7766C127.455 82.7972 127.722 82.9073 127.936 83.0908C128.086 83.2312 128.138 83.356 128.107 83.3872Z" fill="#263238"/>
<path d="M130 87.5108C130.282 87.4187 130.577 87.3765 130.874 87.386C131.009 87.386 131.123 87.3548 131.139 87.2768C131.149 87.1388 131.122 87.0005 131.061 86.8764C130.946 86.5124 130.832 86.1484 130.707 85.7688C130.368 84.83 130.122 83.8598 129.974 82.8724C130.414 83.7713 130.762 84.712 131.014 85.6804C131.128 86.0652 131.238 86.4292 131.342 86.7932C131.422 86.9768 131.437 87.1825 131.383 87.3756C131.36 87.4266 131.325 87.4717 131.282 87.5077C131.239 87.5437 131.188 87.5696 131.134 87.5836C131.054 87.5928 130.974 87.5928 130.894 87.5836C130.594 87.6114 130.292 87.5868 130 87.5108Z" fill="#263238"/>
<path d="M128.227 87.9944C128.544 88.1348 129.704 88.8992 130.785 88.9096C130.589 89.1781 130.306 89.3718 129.985 89.4588C129.664 89.5457 129.322 89.5207 129.017 89.388C127.889 88.92 128.227 87.9944 128.227 87.9944Z" fill="white"/>
<path d="M129.901 94.0472C128.118 93.9735 126.398 93.3687 124.961 92.3104C124.961 92.3104 126.001 95.16 129.849 95.0508L129.901 94.0472Z" fill="#A36957"/>
<path d="M120.276 83.1688C120.277 83.0184 120.22 82.8733 120.116 82.7645C120.012 82.6557 119.87 82.5918 119.72 82.5864C119.002 82.5864 117.822 82.8516 117.712 84.838C117.556 87.672 120.281 86.9648 120.312 86.8868C120.344 86.8088 120.286 84.2712 120.276 83.1688Z" fill="#B78876"/>
<path d="M119.668 85.7688C119.668 85.7688 119.616 85.8 119.532 85.8364C119.413 85.8816 119.282 85.8816 119.163 85.8364C118.984 85.712 118.841 85.5417 118.749 85.3433C118.658 85.1448 118.621 84.9254 118.643 84.708C118.652 84.4652 118.714 84.2272 118.825 84.0112C118.856 83.9242 118.908 83.846 118.976 83.7834C119.044 83.7209 119.126 83.6759 119.215 83.6524C119.273 83.6395 119.334 83.6476 119.386 83.6753C119.438 83.7029 119.479 83.7482 119.501 83.8032C119.532 83.8812 119.501 83.9384 119.501 83.9436C119.501 83.9488 119.564 83.902 119.548 83.7824C119.536 83.7124 119.502 83.6483 119.449 83.6004C119.412 83.5685 119.369 83.5443 119.323 83.5291C119.276 83.514 119.227 83.5082 119.179 83.512C119.064 83.531 118.957 83.5787 118.866 83.6505C118.775 83.7224 118.704 83.816 118.659 83.9228C118.524 84.1615 118.449 84.4291 118.44 84.7028C118.413 84.9546 118.46 85.2089 118.577 85.4337C118.694 85.6585 118.874 85.8439 119.096 85.9664C119.17 85.9942 119.25 86.0045 119.33 85.9964C119.409 85.9883 119.486 85.962 119.553 85.9196C119.657 85.8364 119.678 85.8 119.668 85.7688Z" fill="#A36957"/>
<path d="M133.416 76.1125C130.252 74.9589 126.823 74.7387 123.536 75.4781C123.536 75.4781 120.245 76.6273 120.073 78.4005C119.983 79.8504 119.997 81.3049 120.115 82.7529H120.323L120.354 85.7221H121.55L121.716 81.7077C121.716 81.7077 123.989 80.1477 124.036 77.6985C125.143 77.5529 130.572 76.9133 134.274 78.1769V77.3137C134.269 77.0502 134.185 76.7945 134.032 76.5801C133.878 76.3657 133.664 76.2027 133.416 76.1125Z" fill="#263238"/>
<path d="M127.655 81.5256C127.655 81.6036 127.27 81.6088 126.833 81.7128C126.396 81.8168 126.058 81.9676 126.012 81.9052C125.965 81.8428 126.277 81.562 126.771 81.4476C127.265 81.3332 127.67 81.4528 127.655 81.5256Z" fill="#263238"/>
<path d="M133.39 80.6832C133.344 80.7456 133.094 80.6416 132.782 80.6832C132.47 80.7248 132.262 80.8912 132.2 80.8444C132.137 80.7976 132.319 80.4752 132.72 80.4128C133.12 80.3504 133.442 80.6312 133.39 80.6832Z" fill="#263238"/>
<path d="M119.995 79.56C119.808 77.558 120.13 76.0136 120.973 75.0308C121.471 74.5188 122.094 74.1451 122.781 73.9464C123.467 73.7476 124.193 73.7307 124.888 73.8972C125.321 74.1111 125.784 74.2584 126.261 74.334C127.046 74.334 127.634 73.6736 128.227 73.1588C128.681 72.7004 129.298 72.4405 129.943 72.436C130.1 72.443 130.255 72.4821 130.397 72.5508C130.539 72.6195 130.665 72.7165 130.768 72.8357C130.871 72.955 130.949 73.094 130.997 73.2443C131.044 73.3947 131.061 73.5531 131.045 73.71C131.576 73.4686 132.144 73.3192 132.725 73.268C133.015 73.2459 133.306 73.2901 133.576 73.3973C133.847 73.5045 134.089 73.6719 134.285 73.8868C134.467 74.1085 134.563 74.3887 134.554 74.6756C134.546 74.9625 134.433 75.2365 134.238 75.4468C134.459 75.2696 134.734 75.173 135.018 75.173C135.302 75.173 135.577 75.2696 135.798 75.4468C136.009 75.6396 136.157 75.8918 136.222 76.1703C136.287 76.4488 136.266 76.7405 136.162 77.0068C136.047 77.2717 135.865 77.5016 135.633 77.6732C135.401 77.8449 135.128 77.9523 134.841 77.9844C134.556 78.0098 134.269 77.9727 133.999 77.8757C133.73 77.7787 133.485 77.6241 133.281 77.4228L131.628 76.7364L123.666 77.194L119.995 79.56Z" fill="#263238"/>
<path d="M123.895 78.6293C123.927 78.3361 124.068 78.0657 124.291 77.8727C124.514 77.6797 124.802 77.5784 125.096 77.5893C125.692 77.6337 126.253 77.8816 126.688 78.2913C127.112 78.7013 127.577 79.0672 128.076 79.3833C128.665 79.6873 129.334 79.7982 129.99 79.7005C130.642 79.6027 131.263 79.3553 131.804 78.9777C132.411 79.3105 133.084 79.5024 133.775 79.5393C134.241 79.5906 134.709 79.4785 135.101 79.2221C135.46 78.9125 135.696 78.4845 135.767 78.0157C135.865 77.642 135.851 77.2475 135.725 76.8821C135.566 76.5317 135.29 76.2471 134.945 76.0761C134.604 75.9079 134.244 75.7788 133.874 75.6913L124.405 75.9253L123.032 77.8805L123.895 78.6293Z" fill="#263238"/>
<path d="M149.167 231.665L149.438 227.011L140.733 226.444L140.26 233.246L140.78 233.314C143.177 233.605 152.979 234.619 154.617 234.239C156.458 233.813 149.167 231.665 149.167 231.665Z" fill="#51B16B"/>
<g opacity="0.5">
<path d="M143.421 233.381C143.339 232.639 142.987 231.952 142.433 231.452C141.886 230.958 141.174 230.686 140.436 230.688L140.275 233.121L143.421 233.381Z" fill="white"/>
</g>
<g opacity="0.4">
<path d="M152.719 232.84C152.719 232.84 155.267 233.761 154.913 234.166C154.56 234.572 144.622 233.917 140.26 233.246V233.054L151.85 233.912C151.85 233.912 152.214 232.83 152.719 232.84Z" fill="white"/>
</g>
<path d="M140.15 233.038C140.2 233.051 140.25 233.06 140.301 233.064L140.728 233.116L142.288 233.288C143.624 233.428 145.47 233.589 147.488 233.724C149.505 233.86 151.382 233.943 152.719 233.984L154.31 234.021H154.887C154.839 234.013 154.79 234.013 154.742 234.021H154.31L152.724 233.948C151.382 233.886 149.536 233.792 147.524 233.657C145.512 233.522 143.634 233.371 142.324 233.251L140.764 233.111L140.332 233.08L140.15 233.038Z" fill="#263238"/>
<path d="M151.866 234.047C151.953 233.791 152.068 233.545 152.209 233.314C152.379 233.1 152.575 232.908 152.792 232.742C152.524 232.84 152.292 233.018 152.126 233.251C151.961 233.484 151.87 233.761 151.866 234.047Z" fill="#263238"/>
<path d="M149.38 232.575C149.406 232.575 149.536 232.45 149.677 232.258C149.817 232.066 149.916 231.899 149.89 231.884C149.864 231.868 149.734 232.003 149.594 232.196C149.495 232.305 149.423 232.434 149.38 232.575Z" fill="#263238"/>
<path d="M148.72 232.154C148.72 232.18 148.886 232.097 149.042 231.972C149.198 231.847 149.318 231.728 149.297 231.702C149.276 231.676 149.136 231.764 148.98 231.889C148.824 232.014 148.684 232.133 148.72 232.154Z" fill="#263238"/>
<path d="M148.309 231.306C148.452 231.367 148.606 231.397 148.762 231.395C148.912 231.429 149.069 231.429 149.219 231.395C149.076 231.334 148.922 231.304 148.767 231.306C148.616 231.273 148.46 231.273 148.309 231.306Z" fill="#263238"/>
<path d="M148.2 230.714C148.35 230.828 148.532 230.892 148.72 230.896C148.893 230.938 149.075 230.926 149.24 230.859C148.892 230.817 148.546 230.769 148.2 230.714Z" fill="#263238"/>
<path d="M149.729 231.837C149.911 231.88 150.099 231.89 150.285 231.868C150.491 231.856 150.694 231.825 150.894 231.774C151.013 231.748 151.13 231.71 151.242 231.66C151.311 231.625 151.365 231.566 151.393 231.494C151.404 231.453 151.403 231.409 151.39 231.369C151.377 231.328 151.353 231.292 151.32 231.265C151.113 231.15 150.873 231.108 150.639 231.148C150.406 231.188 150.193 231.306 150.036 231.483C149.94 231.585 149.868 231.708 149.828 231.842C149.806 231.889 149.797 231.941 149.802 231.993C149.871 231.824 149.968 231.668 150.088 231.53C150.231 231.39 150.411 231.294 150.608 231.254C150.832 231.195 151.072 231.226 151.273 231.343C151.356 231.416 151.315 231.514 151.211 231.566C151.108 231.618 151 231.656 150.888 231.681C150.696 231.735 150.499 231.773 150.301 231.795C149.942 231.832 149.729 231.816 149.729 231.837Z" fill="#263238"/>
<path d="M149.869 231.873C149.947 231.761 149.98 231.624 149.963 231.489C149.956 231.339 149.911 231.195 149.833 231.067C149.792 230.981 149.729 230.907 149.65 230.852C149.572 230.797 149.481 230.764 149.386 230.755C149.328 230.763 149.277 230.793 149.242 230.839C149.207 230.885 149.191 230.943 149.198 231C149.206 231.091 149.233 231.179 149.276 231.26C149.343 231.387 149.425 231.506 149.521 231.613C149.6 231.719 149.704 231.805 149.822 231.863C149.822 231.863 149.718 231.754 149.578 231.567C149.495 231.456 149.423 231.338 149.365 231.213C149.297 231.093 149.256 230.875 149.401 230.859C149.547 230.844 149.672 231.005 149.75 231.119C149.824 231.232 149.87 231.36 149.885 231.494C149.895 231.62 149.89 231.748 149.869 231.873Z" fill="#263238"/>
<path d="M140.483 230.667C140.483 230.667 140.738 230.667 141.128 230.729C141.631 230.828 142.098 231.059 142.48 231.4C142.859 231.752 143.135 232.202 143.276 232.7C143.385 233.08 143.38 233.334 143.4 233.334C143.411 233.276 143.411 233.216 143.4 233.158C143.398 232.996 143.377 232.836 143.338 232.679C143.216 232.157 142.939 231.683 142.543 231.322C142.146 230.961 141.649 230.729 141.118 230.656C140.959 230.639 140.798 230.639 140.639 230.656C140.587 230.652 140.534 230.655 140.483 230.667Z" fill="#263238"/>
<path d="M141.627 227.1C141.525 227.689 141.461 228.285 141.435 228.883C141.369 229.479 141.339 230.078 141.346 230.677C141.509 229.491 141.603 228.297 141.627 227.1Z" fill="#263238"/>
<path d="M144.56 232.606C145.39 232.82 146.25 232.885 147.103 232.799C147.103 232.768 146.531 232.762 145.829 232.71C145.127 232.658 144.56 232.575 144.56 232.606Z" fill="#263238"/>
<path d="M142.865 232.492C142.865 232.492 142.906 232.617 142.953 232.747C143 232.877 143.031 233.002 143.057 233.002C143.083 233.002 143.114 232.866 143.057 232.71C143 232.554 142.886 232.471 142.865 232.492Z" fill="#263238"/>
<path d="M142.277 231.65C142.277 231.65 142.303 231.764 142.386 231.858C142.47 231.951 142.558 232.019 142.579 231.998C142.6 231.977 142.553 231.889 142.47 231.79C142.386 231.691 142.298 231.629 142.277 231.65Z" fill="#263238"/>
<path d="M141.378 231.223C141.378 231.254 141.502 231.26 141.627 231.312C141.752 231.364 141.835 231.442 141.861 231.421C141.887 231.4 141.82 231.28 141.664 231.213C141.508 231.145 141.372 231.192 141.378 231.223Z" fill="#263238"/>
<path d="M140.738 231.005C140.738 231.031 140.769 231.083 140.842 231.114C140.915 231.145 140.977 231.15 140.993 231.114C141.008 231.078 140.956 231.041 140.884 231.01C140.811 230.979 140.748 230.979 140.738 231.005Z" fill="#263238"/>
<path d="M83.1324 217.672L86.5488 214.5L80.6468 208.073L75.6028 212.659L75.946 213.08C77.4748 214.942 83.85 222.44 85.306 223.309C86.9128 224.266 83.1324 217.672 83.1324 217.672Z" fill="#51B16B"/>
<g opacity="0.5">
<path d="M77.792 214.942C78.251 214.35 78.4718 213.608 78.4108 212.862C78.3604 212.128 78.0355 211.439 77.5008 210.933L75.7016 212.581L77.792 214.942Z" fill="white"/>
</g>
<g opacity="0.4">
<path d="M84.8848 221C84.8848 221 86.0912 223.418 85.5556 223.47C85.02 223.522 78.2756 216.19 75.6028 212.675L75.7588 212.55L83.5588 221.187C83.5588 221.187 84.526 220.62 84.8848 221Z" fill="white"/>
</g>
<path d="M75.6704 212.43C75.6704 212.43 75.6704 212.477 75.7588 212.555L76.0292 212.888L77.0692 214.105C77.9376 215.145 79.1492 216.518 80.5376 218.026C81.926 219.534 83.2 220.875 84.136 221.832L85.2592 222.955L85.566 223.257C85.6007 223.294 85.639 223.327 85.6804 223.356C85.6804 223.356 85.6492 223.314 85.5816 223.241L85.2852 222.929L84.1932 221.78C83.2676 220.813 81.9936 219.466 80.6156 217.958C79.2376 216.45 78.0156 215.062 77.1264 214.053L76.0864 212.862C75.9824 212.742 75.8888 212.633 75.8004 212.54L75.6704 212.43Z" fill="#263238"/>
<path d="M83.434 221.26C83.6771 221.139 83.9313 221.041 84.1932 220.969C84.4627 220.938 84.7349 220.938 85.0044 220.969C84.7477 220.837 84.4519 220.804 84.1724 220.875C83.8885 220.912 83.6269 221.048 83.434 221.26Z" fill="#263238"/>
<path d="M82.68 218.483C82.9704 218.499 83.2606 218.448 83.5276 218.332C83.5276 218.301 83.3248 218.332 83.096 218.332C82.8672 218.332 82.68 218.452 82.68 218.483Z" fill="#263238"/>
<path d="M82.4564 217.708C82.5664 217.768 82.69 217.799 82.8152 217.797C83.018 217.797 83.1844 217.797 83.1844 217.797C83.1844 217.797 83.0284 217.724 82.8256 217.708C82.6228 217.693 82.4616 217.677 82.4564 217.708Z" fill="#263238"/>
<path d="M82.7632 216.84C82.7632 216.84 82.8568 217.027 83.0284 217.214C83.2 217.402 83.3508 217.537 83.3716 217.516C83.3924 217.495 83.2728 217.329 83.1064 217.142C82.94 216.954 82.784 216.804 82.7632 216.84Z" fill="#263238"/>
<path d="M83.0856 216.32C83.1141 216.499 83.1956 216.666 83.3196 216.798C83.4174 216.95 83.5589 217.067 83.7252 217.136C83.7252 217.11 83.5796 216.954 83.4028 216.731C83.226 216.507 83.1168 216.32 83.0856 216.32Z" fill="#263238"/>
<path d="M83.4184 218.187C83.5232 218.344 83.6532 218.483 83.8032 218.598C83.9637 218.732 84.138 218.849 84.3232 218.946C84.4274 219.011 84.5391 219.064 84.656 219.102C84.7279 219.13 84.8077 219.13 84.8796 219.102C84.9161 219.079 84.9456 219.047 84.9649 219.008C84.9842 218.97 84.9924 218.926 84.9888 218.884C84.9195 218.656 84.7743 218.459 84.5775 218.326C84.3807 218.192 84.1441 218.131 83.9072 218.15C83.767 218.163 83.6308 218.203 83.5068 218.27C83.4184 218.317 83.382 218.353 83.3872 218.358C83.5519 218.285 83.7276 218.239 83.9072 218.223C84.1011 218.218 84.2925 218.268 84.4584 218.369C84.5592 218.423 84.6481 218.497 84.7196 218.586C84.7911 218.676 84.8437 218.778 84.8744 218.889C84.8744 218.998 84.786 219.045 84.6768 219.008C84.5678 218.974 84.4631 218.926 84.3648 218.868C84.1846 218.772 84.0109 218.664 83.8448 218.546C83.5796 218.332 83.434 218.171 83.4184 218.187Z" fill="#263238"/>
<path d="M83.4964 218.312C83.6303 218.282 83.7486 218.204 83.8292 218.093C83.9245 217.982 83.9922 217.851 84.0268 217.709C84.0536 217.62 84.0582 217.526 84.04 217.435C84.0219 217.345 83.9816 217.26 83.9228 217.189C83.8755 217.155 83.8172 217.141 83.7599 217.15C83.7027 217.159 83.6511 217.189 83.616 217.235C83.5589 217.305 83.518 217.387 83.4964 217.475C83.4549 217.613 83.4305 217.756 83.4236 217.901C83.407 218.033 83.4231 218.167 83.4704 218.291C83.477 218.163 83.477 218.034 83.4704 217.906C83.4882 217.77 83.5177 217.636 83.5588 217.506C83.5952 217.371 83.72 217.189 83.8292 217.272C83.9384 217.355 83.928 217.568 83.9072 217.709C83.8801 217.838 83.8251 217.961 83.746 218.067C83.6699 218.156 83.5864 218.237 83.4964 218.312Z" fill="#263238"/>
<path d="M77.5528 210.948C77.5528 210.948 77.7348 211.12 77.9688 211.442C78.271 211.86 78.451 212.353 78.4888 212.867C78.5184 213.383 78.4069 213.897 78.1664 214.354C77.9792 214.708 77.8024 214.874 77.818 214.874C77.8336 214.874 77.87 214.838 77.948 214.755C78.0552 214.635 78.1494 214.505 78.2288 214.365C78.5023 213.904 78.6293 213.371 78.5931 212.836C78.5569 212.301 78.3591 211.79 78.026 211.37C77.9253 211.244 77.814 211.128 77.6932 211.021C77.6491 210.992 77.602 210.968 77.5528 210.948Z" fill="#263238"/>
<path d="M80.8392 209.165C80.3589 209.522 79.9005 209.907 79.4664 210.319C79.0093 210.704 78.5752 211.116 78.1664 211.552C78.6454 211.193 79.1038 210.808 79.5392 210.397C79.9963 210.012 80.4304 209.601 80.8392 209.165Z" fill="#263238"/>
<path d="M79.1648 215.176C79.6134 215.907 80.1914 216.55 80.8704 217.074C80.8704 217.074 80.4804 216.653 80.0072 216.133C79.534 215.613 79.1908 215.16 79.1648 215.176Z" fill="#263238"/>
<path d="M78 213.912C77.9688 213.912 77.9428 214.032 77.8856 214.162C77.8284 214.292 77.766 214.396 77.7868 214.417C77.8076 214.438 77.9168 214.354 77.9844 214.204C78.052 214.053 78.0364 213.912 78 213.912Z" fill="#263238"/>
<path d="M78.1664 212.898C78.1352 212.898 78.1092 212.997 78.104 213.127C78.0988 213.257 78.104 213.361 78.1404 213.361C78.1768 213.361 78.2028 213.262 78.208 213.132C78.2132 213.002 78.1976 212.898 78.1664 212.898Z" fill="#263238"/>
<path d="M77.8128 211.968C77.8128 211.994 77.8752 212.082 77.9272 212.207C77.9792 212.332 77.9948 212.446 78.026 212.446C78.0572 212.446 78.0936 212.316 78.026 212.16C77.9584 212.004 77.8284 211.947 77.8128 211.968Z" fill="#263238"/>
<path d="M77.48 211.37C77.454 211.37 77.454 211.448 77.48 211.52C77.506 211.593 77.5528 211.64 77.5788 211.63C77.6048 211.619 77.6048 211.552 77.5788 211.479C77.5528 211.406 77.5268 211.359 77.48 211.37Z" fill="#263238"/>
<path d="M176.306 87.0532C175.536 86.7724 173.909 90.9064 173.742 89.8144C173.576 88.7224 176.342 84.994 175.51 84.734C174.47 84.396 172.822 88.7536 172.656 89.1072C172.489 89.4608 171.964 89.2424 172.136 88.9252C172.375 88.4728 174.772 83.642 173.732 83.2988C173.155 83.1116 172.905 84.1776 172.905 84.1776C172.905 84.1776 171.002 88.8576 170.518 88.6808C170.035 88.504 171.038 85.7116 171.465 84.7964C171.891 83.8812 171.605 83.33 171.054 83.486C170.68 83.59 169.348 86.3616 168.974 87.2768C168.6 88.192 167.57 90.7192 167.06 89.0656C166.551 87.412 165.526 86.3356 165.048 86.2316C164.929 86.1987 164.803 86.2091 164.691 86.2608C164.579 86.3126 164.489 86.4023 164.438 86.514C164.386 86.6258 164.375 86.7523 164.408 86.871C164.441 86.9897 164.515 87.093 164.616 87.1624C164.965 87.6406 165.243 88.1658 165.443 88.7224C165.623 89.1556 165.727 89.6164 165.75 90.0848C165.814 91.0265 165.786 91.9721 165.667 92.9084L155.922 109.923L140.717 103.964L138.512 112.663C138.512 112.663 158.465 121.748 159.728 121.082C162.578 119.579 171.787 94.77 171.787 94.77C173.13 93.0946 174.38 91.3465 175.531 89.5336C176.8 87.2768 176.592 87.1572 176.306 87.0532Z" fill="#B78876"/>
<path d="M152.88 229.918C152.88 229.991 149.838 229.918 146.12 229.7C142.402 229.481 139.36 229.284 139.36 229.211C139.36 229.138 142.397 229.211 146.12 229.429C149.843 229.648 152.88 229.84 152.88 229.918Z" fill="#17A436"/>
<path d="M138.497 142.48C138.497 142.48 151.814 171.278 155.371 179.088C155.74 179.903 155.906 180.795 155.854 181.688L152.88 229.902L139.022 229.024L141.102 182.515L117.957 152.76C115.986 150.223 114.176 147.274 113.49 144.134C113.261 143.094 113.49 142.054 113.49 141.014L138.497 142.48Z" fill="#263238"/>
<path d="M137.129 146.64C137.129 146.64 126.292 176.457 123.313 184.506C123 185.351 122.484 186.104 121.81 186.701L85.7116 218.811L76.492 208.411L110.729 176.857L115.263 139.417C115.618 136.222 116.684 133.146 118.383 130.416C118.937 129.523 119.591 128.696 120.333 127.951L137.129 146.64Z" fill="#263238"/>
<path d="M141.066 182.52C141.036 182.493 141.008 182.463 140.982 182.432L140.748 182.151L139.88 181.059C139.11 180.086 138.024 178.719 136.692 177.029L131.976 171.044L126.09 163.8C121.93 158.657 118.253 153.889 116.033 150.145C115.119 148.688 114.369 147.134 113.797 145.512C113.653 145.065 113.544 144.608 113.469 144.144L113.433 143.785C113.428 143.744 113.428 143.702 113.433 143.66C113.449 143.698 113.46 143.739 113.464 143.78C113.464 143.879 113.506 143.993 113.532 144.139C113.627 144.591 113.75 145.038 113.901 145.475C114.509 147.071 115.279 148.601 116.199 150.041C118.456 153.748 122.138 158.486 126.303 163.628C128.383 166.202 130.385 168.641 132.168 170.908C133.952 173.176 135.507 175.214 136.848 176.93L139.968 181.017L140.806 182.135L141.019 182.426C141.053 182.489 141.069 182.52 141.066 182.52Z" fill="#17A436"/>
<path d="M147.025 182.52C146.055 182.638 145.077 182.666 144.102 182.603C143.125 182.631 142.147 182.57 141.18 182.421C142.151 182.303 143.131 182.273 144.108 182.333C145.084 182.302 146.061 182.365 147.025 182.52Z" fill="#17A436"/>
<path d="M145.985 184.933C144.386 184.39 142.85 183.677 141.404 182.806C142.216 183.036 143.003 183.351 143.749 183.747C144.534 184.063 145.283 184.461 145.985 184.933Z" fill="#17A436"/>
<path d="M153.01 227.848C153.01 227.926 149.864 227.755 145.995 227.469C142.126 227.183 138.991 226.897 138.996 226.824C139.001 226.751 142.142 226.918 146.016 227.204C149.89 227.49 153.015 227.76 153.01 227.848Z" fill="#17A436"/>
<path d="M113.261 181.09C112.786 180.488 112.382 179.831 112.06 179.135C111.658 178.482 111.335 177.784 111.098 177.055C111.573 177.658 111.976 178.314 112.299 179.01C112.701 179.663 113.024 180.361 113.261 181.09Z" fill="#17A436"/>
<path d="M115.695 180.097C114.894 179.683 114.138 179.188 113.438 178.62C112.688 178.128 111.991 177.56 111.358 176.925C112.156 177.344 112.912 177.838 113.615 178.402C114.365 178.893 115.062 179.462 115.695 180.097Z" fill="#17A436"/>
<path d="M149.937 107.068C145.72 104.9 142.735 103.61 140.431 102.128C133.271 97.5312 131.383 98.5504 129.698 98.3424C128.284 98.774 126.188 99.6008 125.398 99.7464C124.53 99.9076 121.701 98.9144 119.829 98.332C115.471 98.5192 112.798 100.37 108.774 103.334L102.19 108.872L110.51 117.255L113.298 115.809C113.766 119.59 113.651 121.061 113.818 125.616L113.443 143.931L140.54 145.465L139.058 127.92L138.403 114.124L146.12 117.988L149.932 107.068" fill="#17A436"/>
<path d="M119.631 98.8469V96.0337C119.631 96.0337 124.467 96.5537 125.45 99.9077L119.631 98.8469Z" fill="#17A436"/>
<path d="M129.698 98.3425L129.516 96.0337C128.515 96.1637 127.581 96.6092 126.85 97.3058C126.119 98.0024 125.628 98.9137 125.45 99.9077L129.698 98.3425Z" fill="#17A436"/>
<path d="M130.276 108.737C130.585 108.692 130.899 108.673 131.212 108.68C131.83 108.68 132.735 108.633 133.812 108.618H133.926V108.737C133.926 109.777 133.926 111.036 133.926 112.377V112.45L133.864 112.486L133.604 112.668L132.21 113.625L132.137 113.672L132.064 113.625C131.388 113.188 130.749 112.778 130.172 112.398L130.114 112.367V112.304C130.114 111.212 130.156 110.308 130.177 109.704C130.169 109.391 130.189 109.078 130.234 108.768C130.234 108.768 130.265 109.153 130.286 109.777C130.307 110.401 130.333 111.27 130.348 112.315L130.291 112.216L132.205 113.417H132.08L133.474 112.455L133.734 112.278L133.676 112.388C133.676 111.067 133.676 109.834 133.676 108.748L133.791 108.862C132.751 108.862 131.867 108.82 131.243 108.8C130.619 108.779 130.291 108.753 130.276 108.737Z" fill="#263238"/>
<path d="M133.744 109.621C133.162 109.746 132.564 109.783 131.971 109.73C131.377 109.767 130.78 109.713 130.203 109.569C130.785 109.444 131.383 109.407 131.976 109.46C132.57 109.42 133.167 109.475 133.744 109.621Z" fill="#263238"/>
<path d="M124.587 98.2228C124.649 98.2696 123.729 99.3356 122.954 100.948L122.881 101.098L122.751 100.994L122.429 100.74C121.455 100.026 120.537 99.2384 119.683 98.384C120.706 99.0241 121.68 99.7403 122.595 100.526L122.918 100.786L122.715 100.828C123.052 100.141 123.461 99.4927 123.937 98.8936C124.112 98.6335 124.332 98.4064 124.587 98.2228Z" fill="#263238"/>
<path d="M129.667 98.4465C129.165 99.1389 128.592 99.7768 127.956 100.35L127.894 100.407L127.78 100.521L127.686 100.391C127.182 99.7367 126.748 99.0308 126.391 98.2853C126.965 98.8796 127.474 99.5333 127.91 100.235H127.702L127.764 100.173C128.333 99.5291 128.971 98.9502 129.667 98.4465Z" fill="#263238"/>
<path d="M125.882 114.769C125.809 114.769 125.663 111.509 125.554 107.489C125.445 103.47 125.424 100.209 125.497 100.209C125.57 100.209 125.72 103.47 125.824 107.489C125.928 111.509 125.96 114.764 125.882 114.769Z" fill="#263238"/>
<path d="M116.059 99.736C116.138 99.7239 116.219 99.7239 116.298 99.736C116.526 99.7273 116.754 99.743 116.979 99.7828C117.812 99.9245 118.592 100.283 119.241 100.823C120.231 101.626 120.91 102.75 121.16 104C121.459 105.517 121.277 107.089 120.64 108.498C119.994 109.891 119.06 111.132 117.9 112.138C116.966 112.951 115.954 113.669 114.878 114.28C113.963 114.8 113.204 115.196 112.679 115.456C112.411 115.602 112.133 115.727 111.847 115.83C112.094 115.654 112.355 115.498 112.627 115.362C113.147 115.071 113.885 114.665 114.78 114.119C115.829 113.489 116.818 112.763 117.733 111.951C118.855 110.967 119.762 109.761 120.396 108.41C121.006 107.051 121.188 105.538 120.916 104.073C120.69 102.877 120.064 101.794 119.142 101C118.524 100.462 117.783 100.085 116.984 99.9024C116.386 99.7464 116.059 99.7672 116.059 99.736Z" fill="#263238"/>
<path d="M138.278 114.972C138.136 114.659 138.043 114.326 138.003 113.984C137.845 113.171 137.736 112.35 137.675 111.524C137.612 110.699 137.598 109.871 137.634 109.044C137.625 108.693 137.667 108.343 137.758 108.004C137.842 108.004 137.8 109.564 137.946 111.483C138.091 113.402 138.356 114.956 138.278 114.972Z" fill="#263238"/>
<path d="M130.675 115.118L78.9727 123.641L84.2745 155.805L135.977 147.283L130.675 115.118Z" fill="#51B16B"/>
<g opacity="0.6">
<path d="M130.675 115.118L78.9727 123.641L84.2745 155.805L135.977 147.283L130.675 115.118Z" fill="black"/>
</g>
<path d="M132.713 115.788L81.01 124.31L86.3118 156.475L138.014 147.952L132.713 115.788Z" fill="#51B16B"/>
<g opacity="0.4">
<path d="M132.713 115.787L81.01 124.31L86.3118 156.474L138.014 147.952L132.713 115.787Z" fill="black"/>
</g>
<path d="M134.537 116.762L82.8338 125.284L88.1356 157.449L139.838 148.927L134.537 116.762Z" fill="#51B16B"/>
<path d="M82.8256 125.289C82.8815 125.301 82.9357 125.32 82.9868 125.346L83.434 125.544L85.1604 126.334L91.4888 129.277L112.32 139.079L113.563 139.667L113.402 139.698L128.341 123.406L132.855 118.529L134.087 117.213L134.415 116.875C134.451 116.835 134.491 116.798 134.534 116.766C134.505 116.812 134.472 116.855 134.436 116.896L134.129 117.25L132.933 118.596L128.476 123.536L113.599 139.88L113.532 139.958L113.438 139.911L112.195 139.324L91.3952 129.444L85.1084 126.422L83.4028 125.59L82.9608 125.367L82.8256 125.289Z" fill="#263238"/>
<path d="M104.354 135.465C104.416 135.512 100.833 140.468 96.3508 146.536C91.8684 152.604 88.1868 157.492 88.1244 157.456C88.062 157.42 91.65 152.454 96.1324 146.385C100.615 140.317 104.296 135.424 104.354 135.465Z" fill="#263238"/>
<path d="M140.769 148.777C140.722 148.834 136.115 145.189 130.478 140.634C124.842 136.079 120.312 132.314 120.359 132.278C120.406 132.241 125.013 135.866 130.65 140.421C136.287 144.976 140.816 148.72 140.769 148.777Z" fill="#263238"/>
<path opacity="0.3" d="M113.766 142.293L86.7932 127.161L113.5 139.792L133.988 117.359L113.766 142.293Z" fill="black"/>
<path d="M102.284 150.28C101.753 150.037 101.257 149.722 100.812 149.344C100.441 149.054 100.123 148.702 99.8712 148.304C99.4893 147.713 99.1421 147.1 98.8312 146.468C98.8312 146.468 99.1796 129.589 99.7984 126.802C100.417 124.015 110.136 117.068 110.136 117.068L103.589 110.344C99.0725 113.66 95.1215 117.685 91.8892 122.262C88.7692 126.833 92.1648 148.08 92.1648 148.096C91.8771 149.913 91.6896 151.744 91.6032 153.582C91.6032 156.182 91.8164 156.182 92.1232 156.114C92.9292 155.979 92.3208 151.58 93.002 152.474C93.6832 153.369 93.1164 157.94 93.9536 157.768C95.0456 157.539 94.328 152.948 94.2968 152.568C94.2656 152.188 94.8168 152.116 94.8168 152.474C94.8168 152.994 95.1132 158.366 96.1844 158.158C96.7824 158.038 96.4704 156.988 96.4704 156.988C96.4704 156.988 95.836 151.975 96.3456 151.892C96.8552 151.809 97.3388 154.736 97.4272 155.74C97.5156 156.744 98.02 157.087 98.4256 156.681C98.7012 156.411 98.5036 153.338 98.3892 152.355C98.2748 151.372 97.9264 148.663 99.1848 149.854C100.443 151.044 101.858 151.486 102.305 151.336C102.374 151.334 102.442 151.319 102.506 151.291C102.569 151.264 102.627 151.224 102.675 151.174C102.723 151.124 102.761 151.065 102.786 151C102.811 150.936 102.824 150.867 102.822 150.797C102.821 150.728 102.806 150.66 102.778 150.596C102.75 150.533 102.71 150.475 102.66 150.427C102.61 150.379 102.551 150.341 102.487 150.316C102.422 150.291 102.353 150.279 102.284 150.28Z" fill="#B78876"/>
</svg>
