<svg width="326" height="326" viewBox="0 0 326 326" fill="none" xmlns="http://www.w3.org/2000/svg">
<path d="M165.439 311.402C250.164 311.402 318.848 271.746 318.848 222.827C318.848 173.909 250.164 134.253 165.439 134.253C80.713 134.253 12.0294 173.909 12.0294 222.827C12.0294 271.746 80.713 311.402 165.439 311.402Z" fill="#F5F5F5"/>
<path d="M266.59 266.264C290.626 266.264 310.111 255.014 310.111 241.136C310.111 227.258 290.626 216.008 266.59 216.008C242.554 216.008 223.069 227.258 223.069 241.136C223.069 255.014 242.554 266.264 266.59 266.264Z" fill="#E0E0E0"/>
<path d="M156.447 254.691L107.352 226.335L163.469 193.937L212.572 222.286L156.447 254.691Z" fill="#E0E0E0"/>
<path d="M22.7613 245.921L86.0835 282.479L139.195 251.822L75.8732 215.264L22.7613 245.921Z" fill="#E0E0E0"/>
<path d="M63.2179 77.2816L81.6239 87.7722L112.027 70.3247L93.6272 59.8275L63.2179 77.2816Z" fill="#E0E0E0"/>
<path d="M81.8325 86.9768L64.0785 76.786C64.5399 75.2808 64.5056 73.6672 63.9807 72.1829L81.6238 82.2628C81.6238 82.2628 81.9629 83.3778 81.8325 86.9768Z" fill="white"/>
<path d="M80.7176 80.848C81.2131 81.1682 81.626 81.6008 81.9228 82.1106C82.2197 82.6204 82.392 83.1931 82.4258 83.782V87.2115C82.4258 88.2939 81.6564 88.7307 80.7176 88.1961L63.244 78.1292V77.2816L80.5089 87.1268C81.0762 87.4528 81.5326 87.1855 81.5326 86.54V83.3582C81.5129 83.0048 81.41 82.6611 81.232 82.3552C81.0541 82.0492 80.8063 81.7897 80.5089 81.5978L63.244 71.72V70.7551L80.7176 80.848Z" fill="#EBEBEB"/>
<path d="M63.2441 70.7877L93.6273 53.3336L111.12 63.3744C111.617 63.6948 112.031 64.1283 112.328 64.6394C112.625 65.1506 112.796 65.7247 112.829 66.3149V69.764C112.852 69.9749 112.817 70.1882 112.729 70.381C112.641 70.5739 112.502 70.7392 112.327 70.8594L81.9239 88.3134C82.0956 88.1906 82.2318 88.0246 82.3188 87.8323C82.4058 87.64 82.4405 87.4281 82.4195 87.2181V83.782C82.3877 83.1926 82.2163 82.6191 81.9193 82.109C81.6222 81.5988 81.2082 81.1666 80.7112 80.848L63.2441 70.7877Z" fill="#FAFAFA"/>
<path d="M81.9238 82.0933C82.2337 82.5964 82.4068 83.1718 82.4258 83.7625V87.1985C82.4469 87.4085 82.4122 87.6204 82.3252 87.8127C82.2382 88.005 82.1019 88.171 81.9303 88.2938L112.333 70.8398C112.508 70.7197 112.647 70.5544 112.735 70.3615C112.824 70.1686 112.858 69.9554 112.835 69.7445V66.3149C112.816 65.7243 112.643 65.1489 112.333 64.6458L81.9238 82.0933Z" fill="#F0F0F0"/>
<path d="M44.5055 51.169L44.3295 53.4901L64.8805 64.5154L65.3434 63.1593L44.5055 51.169Z" fill="#EBEBEB"/>
<path d="M65.0696 63.7004L45.164 52.2122L41.7019 54.2073L61.9987 66.0802L65.0696 63.7004Z" fill="white"/>
<path d="M58.2627 64.848L56.3067 87.9157C56.3163 88.1761 56.3882 88.4305 56.5164 88.6574C56.6446 88.8842 56.8254 89.0771 57.0435 89.2197L68.5904 95.9027C68.7746 96.0046 68.9799 96.0626 69.1902 96.0722L62.0182 66.8561C61.809 66.8447 61.6046 66.7891 61.4184 66.6931L60.5903 66.2106L58.2627 64.848Z" fill="#E0E0E0"/>
<path d="M62.8788 66.667L64.9392 64.9001L66.4453 63.5961C66.6018 63.3483 66.7843 63.1658 66.6865 62.9441L73.7672 91.9451C73.865 92.1472 73.8911 92.5971 73.6108 92.7666L70.0443 95.8179C69.7744 95.9609 69.4679 96.02 69.1641 95.9875L61.9921 66.7713C62.2916 66.823 62.5996 66.7868 62.8788 66.667Z" fill="#F0F0F0"/>
<path d="M66.4518 62.755C66.8561 62.9897 66.7583 63.2505 66.4518 63.6026L62.8789 66.6605C62.6514 66.7793 62.3987 66.8414 62.1421 66.8414C61.8855 66.8414 61.6327 66.7793 61.4053 66.6605L58.2627 64.8479C57.8519 64.6132 57.7802 64.2742 58.0997 64.0916C58.3096 64.0065 58.5363 63.9704 58.7623 63.9862C58.9883 64.0021 59.2077 64.0693 59.4037 64.1829L61.8813 65.6173C61.9571 65.6557 62.0408 65.6757 62.1258 65.6757C62.2107 65.6757 62.2945 65.6557 62.3703 65.6173L64.9783 63.3483C65.1152 63.2701 65.1152 63.1462 64.9783 63.068L44.5055 51.169L45.4835 50.6017L66.4518 62.755Z" fill="#FAFAFA"/>
<path d="M38.5723 52.2839L58.1519 63.5896V100.845L38.5723 89.5327V52.2839Z" fill="#EBEBEB"/>
<path d="M57.5194 64.209L38.5723 53.3336C37.4135 54.5622 35.8959 55.3929 34.2365 55.7069L53.0272 66.5366C53.0272 66.5366 54.2399 66.2497 57.5194 64.209Z" fill="white"/>
<path d="M51.2081 66.504C51.7727 66.7869 52.3956 66.9341 53.0271 66.9341C53.6587 66.9341 54.2815 66.7869 54.8462 66.504L58.028 64.6393C59.0321 64.059 59.0321 63.1267 58.028 62.5464L39.3612 51.8275L38.5723 52.2839L56.9391 62.892C57.0746 62.9315 57.1935 63.0138 57.2782 63.1267C57.3628 63.2395 57.4086 63.3768 57.4086 63.5179C57.4086 63.6589 57.3628 63.7962 57.2782 63.9091C57.1935 64.0219 57.0746 64.1043 56.9391 64.1438L53.9725 65.852C53.6337 66.0223 53.2597 66.111 52.8804 66.111C52.5012 66.111 52.1272 66.0223 51.7883 65.852L33.428 55.2375L32.5283 55.7526L51.2081 66.504Z" fill="#FAFAFA"/>
<path d="M32.5348 55.7526V93.0013L51.2081 103.72C51.7727 104.003 52.3956 104.15 53.0272 104.15C53.6587 104.15 54.2816 104.003 54.8462 103.72L58.041 101.888C58.2487 101.796 58.4279 101.651 58.5598 101.466C58.6917 101.281 58.7715 101.065 58.7908 100.838V63.5896C58.7706 63.8164 58.6889 64.0334 58.5544 64.2173C58.42 64.4011 58.238 64.5447 58.028 64.6328L54.8462 66.504C54.2816 66.7869 53.6587 66.9341 53.0272 66.9341C52.3956 66.9341 51.7727 66.7869 51.2081 66.504L32.5348 55.7526Z" fill="#EBEBEB"/>
<path d="M53.0271 66.9018C53.6601 66.9142 54.2859 66.7662 54.8462 66.4714L58.028 64.6328C58.2356 64.5429 58.4149 64.3984 58.5469 64.2147C58.6789 64.031 58.7587 63.815 58.7778 63.5896V100.838C58.7585 101.065 58.6787 101.281 58.5468 101.466C58.4148 101.651 58.2356 101.796 58.028 101.888L54.8332 103.72C54.2729 104.015 53.6471 104.163 53.0141 104.151L53.0271 66.9018Z" fill="#F0F0F0"/>
<path d="M210.316 202.12C210.218 200.47 209.996 198.495 209.729 196.2C208.731 187.489 207.369 175.558 210.981 164.128C213.178 157.171 218.472 148.923 226.74 146.635C228.578 146.126 233.025 145.376 234.733 149.321C234.973 149.891 235.116 150.497 235.157 151.114C235.333 153.618 234.205 155.828 232.953 157.843C231.512 160.183 229.843 162.407 228.226 164.571C226.7 166.619 225.116 168.731 223.734 170.922C222.241 173.302 220.933 175.794 219.822 178.374L219.294 178.146C220.403 175.539 221.711 173.022 223.206 170.615C224.594 168.405 226.185 166.28 227.724 164.226C229.328 162.074 230.984 159.857 232.418 157.543C233.618 155.587 234.7 153.494 234.537 151.153C234.502 150.601 234.374 150.059 234.159 149.549C232.634 146.022 228.539 146.726 226.85 147.189C218.805 149.419 213.634 157.491 211.483 164.298C207.91 175.616 209.266 187.476 210.257 196.135C210.518 198.436 210.746 200.425 210.844 202.087L210.316 202.12Z" fill="#17A436"/>
<path d="M210.902 211.6C210.859 211.606 210.815 211.606 210.772 211.6C210.647 211.576 210.529 211.522 210.428 211.444C210.328 211.366 210.247 211.265 210.192 211.15C210.078 210.827 210.078 210.475 210.192 210.153C210.284 209.528 210.284 208.893 210.192 208.268C210.192 207.916 210.133 207.545 210.133 207.212V203.163C210.654 195.89 212.785 188.823 216.373 182.475C219.554 176.94 223.075 173.256 227.457 170.87C229.819 169.572 232.409 168.742 235.085 168.425C237.448 168.164 239.823 168.791 241.749 170.185C243.737 171.756 244.63 174.449 243.881 176.581C243.352 178.074 242.146 179.189 240.914 180.2C238.717 181.993 236.317 183.597 234.003 185.148C232.079 186.452 230.091 187.756 228.233 189.191C222.548 193.579 217.778 199.039 214.195 205.263C213.608 206.273 213.054 207.316 212.545 208.36L212.337 208.77C212.133 209.143 211.955 209.528 211.802 209.924C211.77 210.009 211.737 210.185 211.691 210.387C211.658 210.759 211.54 211.118 211.346 211.437C211.224 211.545 211.065 211.603 210.902 211.6ZM236.024 168.966C235.731 168.966 235.437 168.966 235.137 169.005C232.54 169.308 230.026 170.114 227.737 171.378C223.46 173.706 220.011 177.324 216.881 182.762C213.342 189.032 211.237 196.008 210.72 203.189V207.199C210.72 207.512 210.72 207.851 210.779 208.21C210.883 208.892 210.883 209.587 210.779 210.27C210.708 210.482 210.708 210.71 210.779 210.922C210.795 210.955 210.819 210.984 210.849 211.006C210.878 211.029 210.912 211.045 210.948 211.052C211.064 210.811 211.144 210.554 211.183 210.29C211.214 210.109 211.257 209.93 211.313 209.755C211.472 209.336 211.66 208.929 211.874 208.536L212.076 208.131C212.598 207.075 213.158 206.025 213.745 205.002C214.964 202.892 216.316 200.862 217.794 198.925C220.715 195.109 224.124 191.691 227.933 188.761C229.81 187.326 231.806 185.99 233.735 184.699C236.044 183.153 238.423 181.556 240.608 179.782C241.768 178.837 242.909 177.774 243.392 176.418C244.044 174.508 243.242 172.089 241.436 170.661C239.876 169.498 237.968 168.901 236.024 168.966Z" fill="#17A436"/>
<path d="M210.413 206.032H210.342C210.305 206.024 210.27 206.008 210.24 205.986C210.209 205.964 210.183 205.936 210.164 205.904C210.145 205.871 210.132 205.835 210.126 205.798C210.121 205.761 210.123 205.723 210.133 205.686C215.512 184.236 230.384 174.664 238.326 172.389C238.398 172.369 238.476 172.378 238.542 172.414C238.608 172.451 238.656 172.512 238.678 172.584C238.698 172.658 238.689 172.736 238.653 172.803C238.616 172.87 238.555 172.92 238.482 172.943C230.658 175.179 216.008 184.627 210.694 205.823C210.676 205.884 210.639 205.936 210.588 205.974C210.538 206.012 210.476 206.032 210.413 206.032Z" fill="#17A436"/>
<path d="M210.381 188.428C210.304 188.421 210.233 188.385 210.183 188.326C210.133 188.268 210.108 188.192 210.114 188.115C211.828 164.95 226.981 152.255 228.702 150.892C228.731 150.868 228.765 150.85 228.801 150.839C228.838 150.828 228.876 150.824 228.914 150.828C228.952 150.833 228.988 150.845 229.021 150.863C229.054 150.882 229.083 150.908 229.106 150.938C229.13 150.968 229.147 151.001 229.158 151.038C229.169 151.074 229.172 151.112 229.167 151.15C229.163 151.187 229.152 151.224 229.133 151.257C229.115 151.29 229.09 151.319 229.061 151.342C227.359 152.692 212.382 165.236 210.694 188.161C210.686 188.237 210.649 188.307 210.59 188.357C210.532 188.406 210.457 188.432 210.381 188.428Z" fill="#17A436"/>
<path d="M208.575 107.639L172.317 86.716C172.037 86.5147 171.708 86.3912 171.365 86.358C171.021 86.3248 170.675 86.3831 170.361 86.5269L167.753 88.0331C167.466 88.2327 167.238 88.5055 167.093 88.8231C166.947 89.1407 166.889 89.4915 166.925 89.8391V189.08C166.978 190.047 167.259 190.988 167.744 191.826C168.228 192.664 168.904 193.376 169.716 193.905L205.967 214.801C206.247 215.004 206.575 215.128 206.918 215.163C207.262 215.197 207.608 215.14 207.923 214.997L210.531 213.484C210.814 213.284 211.039 213.011 211.182 212.695C211.325 212.379 211.382 212.03 211.346 211.685V112.464C211.295 111.498 211.018 110.558 210.537 109.72C210.055 108.882 209.383 108.169 208.575 107.639Z" fill="#263238"/>
<path d="M174.736 190.782L172.128 192.288V200.542C172.141 200.784 172.211 201.019 172.332 201.229C172.454 201.438 172.623 201.616 172.826 201.748L174.045 202.453C174.261 202.562 174.5 202.619 174.743 202.619C174.985 202.619 175.224 202.562 175.44 202.453L176.659 201.748C177.093 201.469 177.428 201.061 177.618 200.581L179.972 193.801L174.736 190.782Z" fill="#263238"/>
<path d="M172.128 200.542C172.141 200.784 172.211 201.019 172.332 201.229C172.454 201.438 172.623 201.616 172.826 201.748L174.045 202.453C174.129 202.504 174.224 202.535 174.322 202.544C174.42 202.553 174.519 202.54 174.611 202.505C174.703 202.471 174.786 202.416 174.854 202.345C174.922 202.273 174.973 202.188 175.003 202.094L177.344 195.307L172.128 192.288V200.542Z" fill="#37474F"/>
<path d="M200.894 205.836L198.286 207.349V215.597C198.298 215.839 198.367 216.075 198.487 216.286C198.607 216.496 198.775 216.676 198.977 216.81L200.203 217.514C200.418 217.623 200.656 217.68 200.898 217.68C201.139 217.68 201.377 217.623 201.592 217.514L202.818 216.81C203.251 216.53 203.586 216.122 203.776 215.642L206.123 208.855L200.894 205.836Z" fill="#263238"/>
<path d="M198.286 215.597C198.298 215.839 198.367 216.075 198.487 216.286C198.607 216.496 198.775 216.676 198.977 216.81L200.203 217.514C200.287 217.565 200.382 217.596 200.48 217.605C200.578 217.614 200.677 217.601 200.769 217.567C200.861 217.532 200.945 217.477 201.013 217.406C201.081 217.335 201.131 217.249 201.162 217.155L203.515 210.368L198.299 207.349L198.286 215.597Z" fill="#37474F"/>
<path d="M169.885 88.3004L206.136 109.164C206.948 109.694 207.624 110.408 208.108 111.247C208.593 112.086 208.874 113.028 208.927 113.996V213.237C208.996 213.585 208.954 213.947 208.807 214.27C208.66 214.594 208.416 214.863 208.108 215.041C207.8 215.218 207.445 215.295 207.091 215.26C206.737 215.226 206.404 215.081 206.136 214.847L169.885 193.944C169.074 193.415 168.4 192.703 167.916 191.865C167.432 191.026 167.153 190.086 167.101 189.119V89.9043C167.031 89.5563 167.073 89.1953 167.219 88.872C167.365 88.5487 167.609 88.2795 167.917 88.1024C168.224 87.9252 168.58 87.849 168.933 87.8846C169.286 87.9201 169.619 88.0655 169.885 88.3004Z" fill="#37474F"/>
<path d="M117.243 223.949L156.454 246.586L211.352 214.893L208.738 213.38L169.526 190.743L117.243 220.93V223.949Z" fill="#455A64"/>
<path d="M156.454 246.586V243.568L211.352 211.874V214.893L156.454 246.586Z" fill="#263238"/>
<path d="M156.702 242.192L156.304 241.925C163.261 231.395 163.215 213.204 162.648 208.64C162.602 208.334 162.57 208.144 162.563 208.073L163.039 207.995C163.039 208.138 163.091 208.307 163.117 208.51C163.626 211.737 166.501 229.269 169.905 234.59L169.5 234.85C166.808 230.671 164.506 219.391 163.352 212.885C163.424 220.272 162.348 233.696 156.702 242.192Z" fill="#FAFAFA"/>
<path d="M179.6 226.114C179.007 225.938 165.145 221.739 163.867 215.623L164.343 215.525C165.556 221.361 179.593 225.612 179.737 225.657L179.6 226.114Z" fill="#FAFAFA"/>
<path d="M165.608 223.636L165.256 222.143C165.208 221.869 165.068 221.619 164.86 221.434C164.651 221.249 164.386 221.141 164.108 221.126C163.879 221.092 163.644 221.13 163.437 221.234C163.229 221.337 163.059 221.502 162.948 221.706L162.498 221.517C162.649 221.219 162.889 220.975 163.184 220.818C163.479 220.662 163.816 220.601 164.147 220.643C164.387 220.658 164.621 220.724 164.834 220.837C165.046 220.949 165.232 221.105 165.38 221.295C165.458 220.677 165.774 220.114 166.26 219.724C166.444 219.628 166.651 219.581 166.858 219.587C167.066 219.594 167.269 219.655 167.447 219.763L167.231 220.193C167.123 220.124 166.998 220.083 166.869 220.075C166.74 220.067 166.611 220.092 166.495 220.148C165.94 220.461 165.725 221.667 165.693 222.104L165.608 223.636Z" fill="#FAFAFA"/>
<path d="M166.971 228.611L166.54 227.255C166.051 225.722 165.236 224.842 164.271 224.784C163.868 224.776 163.472 224.886 163.13 225.1C162.788 225.314 162.517 225.623 162.348 225.99L161.911 225.781C162.117 225.323 162.455 224.937 162.881 224.671C163.307 224.405 163.802 224.272 164.304 224.288C164.884 224.321 165.882 224.634 166.625 226.146C166.788 224.953 167.277 223.036 168.535 222.234C168.987 221.987 169.495 221.86 170.01 221.865C170.525 221.871 171.03 222.009 171.476 222.267L171.274 222.704C170.9 222.483 170.476 222.361 170.043 222.351C169.609 222.341 169.18 222.442 168.796 222.645C167.121 223.688 167.01 227.137 167.01 227.176L166.971 228.611Z" fill="#FAFAFA"/>
<path d="M161.083 231.923L160.653 231.701C161.618 229.843 163.737 228.506 165.575 228.598C165.965 228.602 166.35 228.694 166.699 228.867C167.049 229.04 167.356 229.289 167.597 229.595C167.774 228.657 168.139 227.765 168.67 226.971C169.201 226.178 169.887 225.5 170.687 224.979C171.545 224.409 172.536 224.069 173.564 223.993C174.592 223.916 175.622 224.106 176.555 224.542L176.366 224.979C175.506 224.581 174.559 224.409 173.614 224.48C172.669 224.551 171.758 224.862 170.967 225.383C170.122 225.931 169.416 226.67 168.907 227.539C168.397 228.409 168.098 229.385 168.033 230.391V231.623L167.577 230.476C167.426 230.068 167.154 229.716 166.797 229.466C166.441 229.217 166.017 229.082 165.582 229.08C163.893 228.996 161.97 230.221 161.083 231.923Z" fill="#FAFAFA"/>
<path d="M158.436 239.121L158.012 238.886C158.599 237.817 161.722 232.445 165.419 231.473C165.941 231.324 166.488 231.286 167.025 231.364C167.563 231.441 168.077 231.632 168.535 231.923L168.288 232.334C167.884 232.078 167.431 231.911 166.958 231.843C166.485 231.774 166.003 231.806 165.543 231.936C162.83 232.653 160.027 236.252 158.436 239.121Z" fill="#FAFAFA"/>
<path d="M206.123 181.686V184.705L156.454 213.38L117.243 190.743V187.724L166.912 159.049L206.123 181.686Z" fill="#263238"/>
<path d="M206.123 181.686L156.454 210.361L117.243 187.724L166.912 159.049L206.123 181.686Z" fill="#455A64"/>
<path d="M206.123 148.486V151.499L156.454 180.18L117.243 157.536V154.524L166.912 125.843L206.123 148.486Z" fill="#263238"/>
<path d="M206.123 148.486L156.454 177.161L117.243 154.524L166.912 125.843L206.123 148.486Z" fill="#455A64"/>
<path d="M156.284 137.787L120.033 116.891C119.753 116.688 119.425 116.564 119.082 116.529C118.738 116.495 118.391 116.552 118.077 116.695C117.608 116.962 115.939 117.934 115.469 118.201C115.184 118.401 114.957 118.675 114.812 118.992C114.668 119.31 114.611 119.66 114.648 120.007V219.222C114.701 220.189 114.981 221.13 115.466 221.968C115.951 222.806 116.627 223.518 117.438 224.047L153.689 244.95C153.969 245.152 154.298 245.277 154.641 245.311C154.985 245.346 155.331 245.288 155.645 245.145C156.115 244.872 157.797 243.907 158.253 243.626C158.54 243.428 158.769 243.157 158.916 242.84C159.062 242.524 159.122 242.174 159.088 241.827V142.618C159.034 141.649 158.752 140.706 158.265 139.867C157.778 139.027 157.099 138.315 156.284 137.787Z" fill="#263238"/>
<path opacity="0.2" d="M156.454 153.018L159.075 151.505V142.442L156.447 143.955L156.454 153.018Z" fill="black"/>
<path opacity="0.2" d="M208.744 122.83L211.365 121.324V112.261L208.738 113.774L208.744 122.83Z" fill="black"/>
<path d="M122.472 220.93L119.864 222.436V230.691C119.877 230.932 119.947 231.168 120.068 231.377C120.189 231.587 120.358 231.765 120.561 231.897L121.781 232.601C121.997 232.71 122.236 232.767 122.478 232.767C122.721 232.767 122.96 232.71 123.176 232.601L124.395 231.897C124.827 231.618 125.161 231.213 125.354 230.736L127.707 223.949L122.472 220.93Z" fill="#263238"/>
<path d="M119.857 230.691C119.87 230.932 119.94 231.168 120.062 231.377C120.183 231.587 120.352 231.765 120.555 231.897L121.774 232.601C121.858 232.652 121.953 232.683 122.051 232.692C122.149 232.702 122.248 232.688 122.34 232.654C122.432 232.619 122.516 232.564 122.584 232.493C122.651 232.422 122.702 232.336 122.733 232.242L125.086 225.455L119.87 222.436L119.857 230.691Z" fill="#37474F"/>
<path d="M148.61 236.024L146.002 237.53V245.784C146.014 246.026 146.083 246.261 146.203 246.47C146.323 246.68 146.491 246.858 146.694 246.991L147.919 247.695C148.134 247.804 148.372 247.861 148.614 247.861C148.855 247.861 149.093 247.804 149.308 247.695L150.534 246.991C150.964 246.71 151.298 246.305 151.492 245.83L153.839 239.043L148.61 236.024Z" fill="#263238"/>
<path d="M146.002 245.752C146.014 245.993 146.083 246.228 146.203 246.438C146.323 246.647 146.491 246.826 146.694 246.958L147.919 247.662C148.004 247.713 148.098 247.744 148.196 247.754C148.294 247.763 148.393 247.75 148.485 247.715C148.578 247.681 148.661 247.626 148.729 247.554C148.797 247.483 148.848 247.397 148.878 247.304L151.225 240.516L146.009 237.498L146.002 245.752Z" fill="#37474F"/>
<path d="M117.412 118.403L153.67 139.3C154.481 139.83 155.155 140.544 155.639 141.383C156.123 142.222 156.402 143.164 156.454 144.131V246.586C156.454 246.586 154.439 245.393 153.67 244.95L117.419 224.047C116.607 223.518 115.932 222.806 115.447 221.968C114.962 221.13 114.681 220.189 114.628 219.222V120.007C114.558 119.659 114.6 119.298 114.746 118.975C114.892 118.652 115.137 118.382 115.444 118.205C115.752 118.028 116.107 117.952 116.46 117.987C116.813 118.023 117.146 118.168 117.412 118.403Z" fill="#37474F"/>
<path opacity="0.2" d="M153.67 139.3L117.412 118.403C117.146 118.168 116.813 118.023 116.46 117.987C116.107 117.952 115.752 118.028 115.444 118.205C115.137 118.382 114.892 118.652 114.746 118.975C114.6 119.298 114.558 119.659 114.628 120.007V128.868L156.454 152.992V144.131C156.402 143.164 156.123 142.222 155.639 141.383C155.155 140.544 154.481 139.83 153.67 139.3Z" fill="black"/>
<path d="M203.509 148.728C203.445 148.726 203.385 148.7 203.34 148.655C203.295 148.61 203.269 148.55 203.268 148.487V118.716L174.873 135.107C174.846 135.125 174.816 135.136 174.785 135.141C174.754 135.146 174.722 135.145 174.691 135.137C174.661 135.129 174.632 135.115 174.607 135.095C174.582 135.075 174.562 135.051 174.547 135.023C174.53 134.995 174.52 134.965 174.515 134.933C174.51 134.902 174.512 134.87 174.52 134.839C174.528 134.808 174.542 134.779 174.561 134.753C174.58 134.728 174.604 134.706 174.632 134.69L203.424 118.09C203.46 118.068 203.502 118.056 203.545 118.056C203.587 118.056 203.629 118.068 203.665 118.09C203.701 118.112 203.731 118.142 203.752 118.179C203.772 118.216 203.783 118.257 203.783 118.299V148.487C203.783 148.521 203.776 148.555 203.762 148.587C203.748 148.619 203.727 148.647 203.701 148.67C203.675 148.693 203.644 148.71 203.611 148.72C203.578 148.73 203.543 148.732 203.509 148.728Z" fill="#FAFAFA"/>
<path d="M198.28 141.178H198.208C198.146 141.164 198.092 141.126 198.058 141.072C198.023 141.018 198.012 140.953 198.025 140.891L202.889 119.825L193.24 136.535C193.225 136.563 193.204 136.588 193.18 136.608C193.155 136.627 193.127 136.642 193.096 136.65C193.066 136.659 193.034 136.661 193.003 136.657C192.971 136.653 192.941 136.643 192.914 136.627C192.886 136.611 192.861 136.59 192.841 136.565C192.821 136.539 192.807 136.511 192.798 136.48C192.79 136.449 192.787 136.416 192.792 136.384C192.796 136.353 192.806 136.322 192.822 136.294L203.254 118.182C203.284 118.132 203.331 118.094 203.385 118.075C203.44 118.056 203.5 118.057 203.554 118.077C203.608 118.099 203.652 118.139 203.678 118.191C203.704 118.242 203.711 118.301 203.698 118.358L198.482 141.002C198.47 141.048 198.444 141.09 198.408 141.121C198.372 141.153 198.327 141.172 198.28 141.178Z" fill="#FAFAFA"/>
<path d="M187.828 133.66C187.795 133.66 187.762 133.653 187.732 133.64C187.701 133.626 187.674 133.607 187.652 133.582C187.608 133.537 187.583 133.476 187.583 133.412C187.583 133.349 187.608 133.288 187.652 133.243L203.339 118.149C203.384 118.104 203.445 118.079 203.509 118.079C203.572 118.079 203.633 118.104 203.678 118.149C203.723 118.195 203.748 118.257 203.748 118.322C203.748 118.386 203.723 118.448 203.678 118.495L187.991 133.582C187.971 133.605 187.945 133.624 187.917 133.637C187.89 133.651 187.859 133.658 187.828 133.66Z" fill="#FAFAFA"/>
<path d="M203.509 143.909C203.445 143.908 203.385 143.882 203.34 143.837C203.295 143.792 203.269 143.732 203.267 143.668C203.267 139.717 198.86 139.45 198.671 139.443C198.635 139.441 198.601 139.431 198.569 139.414C198.538 139.397 198.51 139.374 198.488 139.345C198.468 139.318 198.454 139.286 198.447 139.252C198.44 139.218 198.441 139.183 198.449 139.15C198.61 138.343 198.555 137.507 198.291 136.728C198.027 135.949 197.562 135.252 196.943 134.71C196.717 134.484 196.445 134.309 196.146 134.197C195.847 134.084 195.528 134.037 195.209 134.058C195.039 134.087 194.877 134.152 194.734 134.248C194.591 134.345 194.471 134.471 194.381 134.618C194.354 134.666 194.311 134.703 194.26 134.723C194.209 134.743 194.153 134.745 194.1 134.729C194.048 134.713 194.003 134.68 193.972 134.635C193.942 134.59 193.927 134.536 193.931 134.482C193.931 134.332 194.198 130.817 191.108 130.472C191.068 130.467 191.03 130.452 190.997 130.43C190.964 130.407 190.937 130.377 190.919 130.341C190.901 130.307 190.892 130.269 190.892 130.231C190.892 130.192 190.901 130.154 190.919 130.12C190.919 130.12 192.288 127.557 191.76 126.299C191.699 126.151 191.604 126.02 191.483 125.916C191.361 125.811 191.217 125.737 191.062 125.699C191.031 125.691 191.002 125.677 190.977 125.657C190.952 125.637 190.931 125.612 190.916 125.584C190.901 125.556 190.891 125.525 190.888 125.493C190.885 125.462 190.889 125.43 190.899 125.399C190.919 125.339 190.961 125.288 191.016 125.258C191.072 125.227 191.138 125.22 191.199 125.236C191.424 125.294 191.631 125.404 191.806 125.557C191.98 125.71 192.116 125.901 192.203 126.116C192.705 127.31 191.857 129.285 191.492 130.028C193.892 130.491 194.335 132.754 194.4 133.875C194.615 133.723 194.859 133.618 195.117 133.569C195.509 133.531 195.905 133.582 196.274 133.719C196.643 133.855 196.977 134.074 197.25 134.358C197.897 134.929 198.393 135.652 198.692 136.462C198.992 137.273 199.085 138.145 198.964 139C200.021 139.137 203.75 139.874 203.743 143.681C203.74 143.742 203.714 143.799 203.671 143.841C203.627 143.884 203.569 143.908 203.509 143.909Z" fill="#FAFAFA"/>
<path d="M203.509 137.402C203.448 137.403 203.389 137.38 203.345 137.339C203.3 137.298 203.272 137.241 203.267 137.181C203.163 135.799 202.361 134.012 201.351 133.569C201.15 133.479 200.928 133.45 200.712 133.485C200.495 133.52 200.294 133.617 200.131 133.764C200.091 133.79 200.045 133.803 199.998 133.803C199.95 133.803 199.904 133.79 199.864 133.764C199.823 133.742 199.789 133.707 199.767 133.666C199.745 133.624 199.736 133.577 199.74 133.53C199.74 133.53 199.955 131.085 198.853 130.074C198.614 129.874 198.331 129.735 198.027 129.667C197.723 129.599 197.407 129.604 197.106 129.683C197.065 129.692 197.021 129.689 196.981 129.675C196.941 129.661 196.905 129.637 196.878 129.605C196.85 129.572 196.831 129.532 196.823 129.49C196.815 129.448 196.818 129.404 196.832 129.363C197.054 128.757 197.484 127.055 196.904 126.449C196.63 126.169 196.128 126.142 195.404 126.377C195.355 126.394 195.302 126.393 195.252 126.377C195.203 126.361 195.16 126.329 195.131 126.286C195.101 126.244 195.085 126.194 195.085 126.142C195.085 126.091 195.101 126.041 195.131 125.999C195.535 125.49 196.532 124.004 196.285 123.293C196.244 123.195 196.178 123.11 196.093 123.045C196.008 122.981 195.908 122.941 195.802 122.928C195.771 122.92 195.742 122.907 195.717 122.888C195.691 122.869 195.669 122.845 195.653 122.818C195.637 122.791 195.626 122.76 195.621 122.729C195.617 122.698 195.618 122.666 195.626 122.635C195.632 122.604 195.644 122.574 195.663 122.548C195.681 122.522 195.704 122.5 195.731 122.484C195.758 122.467 195.788 122.456 195.819 122.452C195.851 122.448 195.882 122.45 195.913 122.459C196.096 122.485 196.269 122.56 196.414 122.674C196.559 122.788 196.672 122.939 196.741 123.111C197.008 123.887 196.356 125.067 195.9 125.719C196.135 125.663 196.38 125.665 196.614 125.725C196.848 125.785 197.064 125.902 197.243 126.064C197.96 126.807 197.615 128.379 197.399 129.116C197.717 129.078 198.04 129.107 198.346 129.203C198.651 129.298 198.933 129.457 199.173 129.67C200.144 130.556 200.249 132.278 200.236 133.067C200.44 132.971 200.662 132.921 200.888 132.921C201.113 132.921 201.336 132.971 201.54 133.067C202.772 133.608 203.626 135.531 203.75 137.09C203.753 137.121 203.749 137.152 203.739 137.182C203.729 137.212 203.714 137.24 203.693 137.264C203.672 137.287 203.647 137.307 203.619 137.32C203.59 137.334 203.56 137.342 203.528 137.344L203.509 137.402Z" fill="#FAFAFA"/>
<path d="M217.553 107.737C217.522 107.39 217.399 107.059 217.198 106.776C216.996 106.493 216.723 106.268 216.405 106.126L177.54 83.6842C176.676 83.2471 175.721 83.0193 174.752 83.0193C173.784 83.0193 172.829 83.2471 171.965 83.6842L112.19 118.201C111.873 118.343 111.599 118.568 111.397 118.851C111.196 119.134 111.073 119.465 111.042 119.812V122.83C111.073 123.176 111.196 123.508 111.397 123.791C111.599 124.074 111.873 124.298 112.19 124.441L151.055 146.876C151.919 147.316 152.874 147.546 153.843 147.546C154.812 147.546 155.767 147.316 156.63 146.876L216.405 112.366C216.723 112.223 216.996 111.999 217.198 111.716C217.399 111.433 217.522 111.101 217.553 110.755V107.737Z" fill="#37474F"/>
<path d="M151.055 143.857L112.19 121.422C110.651 120.529 110.651 119.088 112.19 118.201L171.965 83.6842C172.829 83.2471 173.784 83.0193 174.752 83.0193C175.721 83.0193 176.675 83.2471 177.54 83.6842L216.405 106.126C217.951 107.019 217.951 108.454 216.405 109.347L156.63 143.857C155.767 144.297 154.812 144.527 153.843 144.527C152.874 144.527 151.919 144.297 151.055 143.857Z" fill="#455A64"/>
<path opacity="0.1" d="M208.738 116.786L190.443 139.43L159.075 157.543L159.068 145.468L208.738 116.786Z" fill="black"/>
<path opacity="0.1" d="M206.123 151.499L190.443 172.63L159.075 190.749V178.668L206.123 151.499Z" fill="black"/>
<path opacity="0.1" d="M206.123 184.705L190.443 205.836L159.075 223.955V211.874L206.123 184.705Z" fill="black"/>
<path d="M134.169 250.655L86.0771 278.424L31.9219 247.082L80.0135 219.32L134.169 250.655Z" fill="#17A436"/>
<path opacity="0.5" d="M134.169 250.655L86.0771 278.424L31.9219 247.082L80.0135 219.32L134.169 250.655Z" fill="black"/>
<path d="M80.0135 181.68V219.32L31.9219 247.082V209.448L80.0135 181.68Z" fill="#17A436"/>
<path opacity="0.23" d="M80.0135 181.68V219.32L31.9219 247.082V209.448L80.0135 181.68Z" fill="black"/>
<path d="M86.0771 240.784V278.424L31.9219 247.082V209.448L86.0771 240.784Z" fill="#17A436"/>
<path opacity="0.38" d="M86.0771 240.784V278.424L31.9219 247.082V209.448L86.0771 240.784Z" fill="black"/>
<path d="M134.169 213.015V250.655L80.0134 219.32V181.68L134.169 213.015Z" fill="#17A436"/>
<path opacity="0.4" d="M134.169 213.015V250.655L80.0134 219.32V181.68L134.169 213.015Z" fill="black"/>
<path d="M134.169 250.655V213.015L86.077 240.784V278.424L134.169 250.655Z" fill="#17A436"/>
<path opacity="0.23" d="M134.169 250.655V213.015L86.077 240.784V278.424L134.169 250.655Z" fill="black"/>
<path d="M80.0134 181.68L80.0786 160.842L134.103 192.216L134.169 213.015L80.0134 181.68Z" fill="#17A436"/>
<path opacity="0.2" d="M80.0134 181.68L80.0786 160.842L134.103 192.216L134.169 213.015L80.0134 181.68Z" fill="black"/>
<path d="M86.077 240.784L90.5889 222.554L138.244 195.039L134.169 213.015L86.077 240.784Z" fill="#17A436"/>
<path opacity="0.3" d="M86.077 240.784L90.5889 222.554L138.244 195.039L134.169 213.015L86.077 240.784Z" fill="black"/>
<path d="M31.9219 209.449L26.1843 190.541L74.2758 162.778L80.0134 181.68L31.9219 209.449Z" fill="#17A436"/>
<path opacity="0.1" d="M31.9219 209.449L26.1843 190.541L74.2758 162.778L80.0134 181.68L31.9219 209.449Z" fill="black"/>
<path d="M31.9219 209.449L20.6032 193.82L74.7649 225.155L86.0771 240.784L31.9219 209.449Z" fill="#17A436"/>
<path opacity="0.45" d="M31.9219 209.449L20.6032 193.82L74.7649 225.155L86.0771 240.784L31.9219 209.449Z" fill="black"/>
<g opacity="0.7">
<path d="M100.239 267.229C100.16 267.229 100.085 267.198 100.029 267.143C99.9727 267.088 99.9403 267.014 99.9386 266.935V260.311C99.9403 260.232 99.9724 260.157 100.028 260.101C100.084 260.045 100.16 260.013 100.239 260.011C100.317 260.013 100.392 260.045 100.446 260.101C100.501 260.157 100.532 260.233 100.532 260.311V266.935C100.532 267.013 100.501 267.088 100.446 267.143C100.391 267.198 100.316 267.229 100.239 267.229Z" fill="white"/>
<path d="M99.3713 262.606C99.3325 262.612 99.2929 262.612 99.254 262.606C99.1828 262.573 99.1269 262.514 99.0978 262.442C99.0687 262.369 99.0686 262.288 99.0975 262.215L100.154 259.783L101.327 261.139C101.369 261.2 101.387 261.274 101.378 261.347C101.369 261.42 101.333 261.488 101.277 261.536C101.222 261.584 101.15 261.611 101.076 261.61C101.003 261.608 100.932 261.58 100.877 261.53L100.323 260.878L99.6713 262.443C99.6431 262.497 99.5995 262.541 99.5461 262.57C99.4927 262.599 99.4319 262.612 99.3713 262.606Z" fill="white"/>
<path d="M102.97 265.67C102.892 265.669 102.817 265.636 102.763 265.58C102.708 265.524 102.677 265.449 102.677 265.371V258.753C102.677 258.675 102.708 258.6 102.763 258.545C102.818 258.49 102.893 258.459 102.97 258.459C103.048 258.459 103.123 258.49 103.178 258.545C103.233 258.6 103.264 258.675 103.264 258.753V265.364C103.265 265.403 103.258 265.443 103.243 265.479C103.229 265.516 103.208 265.55 103.181 265.578C103.153 265.606 103.121 265.629 103.085 265.645C103.049 265.661 103.01 265.67 102.97 265.67Z" fill="white"/>
<path d="M102.103 261.048C102.064 261.054 102.025 261.054 101.986 261.048C101.95 261.032 101.918 261.01 101.891 260.982C101.864 260.953 101.843 260.92 101.829 260.884C101.815 260.847 101.808 260.808 101.809 260.769C101.811 260.73 101.82 260.692 101.836 260.657L102.886 258.192L104.059 259.542C104.113 259.598 104.144 259.672 104.144 259.75C104.144 259.828 104.113 259.903 104.059 259.959C104.032 259.987 103.999 260.008 103.964 260.023C103.928 260.038 103.889 260.046 103.851 260.046C103.812 260.046 103.773 260.038 103.738 260.023C103.702 260.008 103.669 259.987 103.642 259.959L103.088 259.307L102.436 260.872C102.409 260.935 102.361 260.986 102.301 261.018C102.24 261.05 102.17 261.061 102.103 261.048Z" fill="white"/>
</g>
<g opacity="0.7">
<path d="M92.3558 271.721C92.2444 271.723 92.1344 271.696 92.0364 271.643C91.9185 271.567 91.823 271.462 91.7599 271.336C91.6968 271.211 91.6685 271.072 91.6777 270.932V270.117C91.6795 270.039 91.7118 269.964 91.7679 269.909C91.8239 269.854 91.8992 269.824 91.9777 269.824C92.0555 269.824 92.1301 269.855 92.1851 269.91C92.2402 269.965 92.2711 270.039 92.2711 270.117V270.932C92.2711 271.05 92.2711 271.115 92.3297 271.128C92.3884 271.141 92.421 271.128 92.5188 271.076C92.7023 270.906 92.8469 270.699 92.9426 270.468C93.0383 270.237 93.0828 269.989 93.073 269.739V266.349C93.073 266.271 93.1039 266.196 93.159 266.141C93.214 266.086 93.2886 266.055 93.3664 266.055C93.4442 266.055 93.5189 266.086 93.5739 266.141C93.6289 266.196 93.6598 266.271 93.6598 266.349V269.739C93.6744 270.091 93.6059 270.441 93.4597 270.762C93.3136 271.083 93.094 271.364 92.8187 271.584C92.6794 271.67 92.5196 271.717 92.3558 271.721Z" fill="white"/>
<path d="M89.2458 268.989V268.481C89.3233 267.175 89.705 265.905 90.3605 264.773C91.0159 263.641 91.927 262.678 93.0209 261.961C94.0901 261.348 95.1073 261.256 95.8897 261.713C96.307 261.999 96.6397 262.392 96.853 262.851C97.0664 263.31 97.1525 263.817 97.1024 264.321V264.49L89.2458 268.989ZM94.7943 261.987C94.2722 262.011 93.765 262.168 93.3208 262.443C92.3834 263.06 91.5897 263.871 90.9934 264.822C90.3972 265.772 90.0124 266.84 89.8652 267.952L96.496 264.119C96.5243 263.741 96.4546 263.363 96.2935 263.02C96.1324 262.677 95.8855 262.382 95.5767 262.163C95.3358 262.036 95.066 261.976 94.7943 261.987Z" fill="white"/>
</g>
<path opacity="0.7" d="M20.6032 193.82L74.7649 225.155L86.0771 240.784L74.165 225.709L20.6032 193.82Z" fill="white"/>
<path opacity="0.7" d="M134.169 213.015L86.077 240.784V278.424L86.9768 241.54L134.169 213.015Z" fill="white"/>
<path d="M63.5961 197.96C68.5578 197.243 73.0892 194.048 75.9841 190.032C77.3341 188.155 78.3285 186.047 78.9181 183.812C79.5442 181.722 79.6471 179.51 79.218 177.37C78.3248 173.791 75.0126 171.672 71.5114 171.228C69.7347 170.995 67.9281 171.171 66.2302 171.743C64.4695 172.348 62.942 173.487 61.8618 175.003C61.1844 175.811 60.7583 176.799 60.636 177.846C60.6256 178.256 60.7701 178.655 61.0409 178.963C61.3116 179.271 61.6885 179.466 62.0965 179.509C63.1463 179.597 64.1955 179.331 65.0761 178.752C66.1499 178.15 67.0956 177.344 67.8602 176.379C69.5001 174.355 70.7273 172.029 71.4722 169.533C71.9949 167.391 71.9949 165.155 71.4722 163.013C71.0752 160.772 70.051 158.69 68.5187 157.008C66.762 155.411 64.5327 154.429 62.1682 154.211C59.8149 153.888 57.4188 154.111 55.1657 154.863C54.176 155.163 53.2592 155.665 52.473 156.337C51.9122 156.858 51.2733 157.719 51.5015 158.566C51.7297 159.414 52.9685 159.792 53.8096 159.681C55.0544 159.448 56.1946 158.83 57.0696 157.914C58.0447 156.954 58.8729 155.856 59.5276 154.654C60.014 153.791 60.2679 152.816 60.2644 151.825C60.1796 147.691 55.6091 145.018 52.0296 144.262C51.0633 144.06 50.0736 143.994 49.0891 144.066C48.7566 144.066 48.9587 144.614 49.226 144.594C51.1522 144.507 53.0664 144.939 54.768 145.846C56.4467 146.618 57.8567 147.873 58.8169 149.451C59.2448 150.23 59.4561 151.108 59.4286 151.996C59.401 152.884 59.1358 153.748 58.6604 154.498C58.022 155.61 57.2271 156.624 56.3002 157.51C55.5243 158.214 54.3442 159.029 53.2554 158.951C53.0756 158.951 52.8996 158.9 52.7474 158.804C52.5952 158.708 52.473 158.572 52.3947 158.41C52.3619 158.196 52.3795 157.977 52.4463 157.771C52.5131 157.565 52.6272 157.377 52.7794 157.223C53.3551 156.603 54.0672 156.126 54.8593 155.828C56.8153 155.015 58.9333 154.667 61.0468 154.811C63.2248 154.85 65.3428 155.531 67.1364 156.767C68.6989 158.064 69.8086 159.825 70.3052 161.794C70.9342 163.794 71.1298 165.906 70.8789 167.988C70.4917 170.083 69.6868 172.078 68.5122 173.856C67.306 175.851 65.7933 177.768 63.5244 178.55C62.9636 178.752 61.79 179.046 61.5684 178.231C61.3467 177.416 61.9856 176.412 62.3964 175.779C63.3047 174.35 64.6289 173.233 66.191 172.578C67.6984 171.974 69.3256 171.728 70.9441 171.861C74.015 172.089 77.1316 173.693 78.2009 176.744C78.7373 178.568 78.7956 180.499 78.3704 182.351C77.9868 184.382 77.2568 186.332 76.2123 188.115C73.9655 191.904 70.5627 194.873 66.504 196.585C65.539 197.002 64.548 197.354 63.5374 197.68C63.4331 197.719 63.4787 197.98 63.5961 197.96Z" fill="#E0E0E0"/>
<path d="M42.869 141.354C40.261 141.165 36.6685 143.218 37.9464 144.718C39.2243 146.218 42.6147 143.792 42.6147 143.792C42.6147 143.792 42.2952 146.824 43.4036 147.169C44.512 147.515 46.0116 144.62 44.9032 142.768C45.4378 142.979 46.0169 143.051 46.5868 142.978C47.1567 142.906 47.699 142.69 48.1632 142.351C49.7411 141.191 48.0719 140.095 45.8486 140.291C45.8486 140.291 47.4395 135.075 44.2251 136.072C42.6147 136.561 42.0475 138.446 42.869 141.354Z" fill="#17A436"/>
<path opacity="0.65" d="M42.869 141.354C40.261 141.165 36.6685 143.218 37.9464 144.718C39.2243 146.218 42.6147 143.792 42.6147 143.792C42.6147 143.792 42.2952 146.824 43.4036 147.169C44.512 147.515 46.0116 144.62 44.9032 142.768C45.4378 142.979 46.0169 143.051 46.5868 142.978C47.1567 142.906 47.699 142.69 48.1632 142.351C49.7411 141.191 48.0719 140.095 45.8486 140.291C45.8486 140.291 47.4395 135.075 44.2251 136.072C42.6147 136.561 42.0475 138.446 42.869 141.354Z" fill="white"/>
<path d="M45.2944 142.462C45.1501 142.321 44.9977 142.188 44.838 142.064C44.6098 141.888 44.3686 141.719 44.1404 141.549C43.9182 141.388 43.6851 141.242 43.4428 141.112C43.3033 141.035 43.1596 140.965 43.0124 140.904C42.8092 140.808 42.5833 140.772 42.3604 140.799C42.3021 140.801 42.2452 140.818 42.1958 140.85C42.1463 140.881 42.1062 140.925 42.0796 140.977C42.0529 141.029 42.0407 141.087 42.0442 141.145C42.0478 141.203 42.0669 141.26 42.0996 141.308C42.2789 141.502 42.5026 141.65 42.7516 141.738L43.1037 141.927C43.345 142.071 43.5601 142.234 43.7557 142.397C43.9513 142.56 44.2121 142.716 44.4077 142.879C44.744 143.152 45.12 143.372 45.5226 143.531C45.5407 143.541 45.5608 143.546 45.5813 143.546C45.6018 143.546 45.622 143.541 45.64 143.531C45.9725 143.27 45.4835 142.651 45.2944 142.462Z" fill="#455A64"/>
<path d="M253.159 69.6271C250.309 73.4608 246.495 94.54 245.054 101.301C238.123 101.099 228.852 100.773 225.344 100.408C221.432 99.9972 213.08 99.1953 208.979 99.756C198.801 101.06 199.199 107.75 199.447 109.497C199.714 111.492 201.142 112.405 206.619 111.159C207.844 110.89 209.094 110.744 210.348 110.723C210.876 110.723 211.991 110.455 212.409 110.905C213.061 111.557 211.176 112.653 210.707 112.952C209.983 113.422 209.227 114.015 209.077 114.863C209.034 115.018 209.036 115.182 209.084 115.336C209.131 115.489 209.221 115.626 209.344 115.73C209.61 115.838 209.907 115.838 210.172 115.73C212.672 115.137 215.083 114.218 217.344 112.998C218.197 112.484 219.094 112.048 220.024 111.694C221.439 111.238 222.899 111.505 224.321 111.505C227.379 111.505 243.542 113.109 250.727 113.839C255.701 114.341 256.23 109.432 257.944 104.457C260.05 98.289 265.038 65.852 265.038 65.852C260.005 65.1217 256.549 65.0761 253.159 69.6271Z" fill="#FFA8A7"/>
<path d="M265.116 65.3434C262.71 64.9001 257.292 64.2285 254.345 67.5211C251.398 70.8137 250.701 74.2693 249.403 79.2571C248.106 84.2449 245.804 93.1773 245.804 93.1773C245.804 93.1773 249.605 98.6346 261.504 97.0893L265.116 65.3434Z" fill="#37474F"/>
<path d="M294.997 237.745L286.632 237.752L284.226 219.594L294.782 219.176L294.997 237.745Z" fill="#FFA8A7"/>
<path d="M267.222 228.676C265.801 231.147 261.23 230.945 257.442 230.071L257.005 212.219L268.187 211.776L267.222 228.676Z" fill="#FFA8A7"/>
<path d="M294.43 123.006C294.73 130.733 293.706 176.418 293.706 176.418C293.987 178.635 296.282 182.501 296.758 190.501C297.455 202.12 295.089 226.896 295.089 226.896C295.089 226.896 290.297 229.4 285.133 227.483C285.133 227.483 279.878 191.623 277.961 180.161C276.305 170.185 274.179 143.427 274.179 143.427L270.052 177.722C270.809 181.782 271.121 185.911 270.984 190.038C270.815 195.372 267.776 221.269 267.776 221.269C264.31 222.403 260.587 222.492 257.071 221.524C257.071 221.524 254.58 181.334 254.293 176.464C253.967 170.909 254.189 121.872 254.189 121.872L294.43 123.006Z" fill="#17A436"/>
<path opacity="0.2" d="M274.192 143.44C274.192 143.44 266.883 141.367 261.902 136.92C261.902 136.92 264.236 140.904 270.847 144.438L270.469 174.371L274.192 143.44Z" fill="black"/>
<path d="M277.1 252.891C276.833 253.165 276.989 254.971 277.315 255.441C277.641 255.91 279.636 257.501 283.098 257.618C286.404 257.723 289.325 257.162 291.209 255.858C293.094 254.554 293.98 253.165 294.091 251.294C294.202 249.423 293.922 247.604 294.743 246.123C295.519 244.761 296.777 243.203 297.032 242.466C297.599 240.868 296.908 238.645 296.908 238.645L277.1 252.891Z" fill="#263238"/>
<path d="M285.446 236.154C285.45 236.867 285.349 237.577 285.146 238.26C284.438 240.484 283.375 242.578 281.997 244.461C281.045 245.68 279.845 246.704 278.834 247.884C277.753 249.003 277.09 250.46 276.957 252.011C276.917 254.619 279.76 255.369 281.931 255.669C284.285 255.979 286.678 255.756 288.934 255.017C290.122 254.659 291.181 253.965 291.984 253.019C292.787 252.072 293.299 250.914 293.459 249.683C293.55 248.96 293.459 248.229 293.537 247.506C293.758 245.844 294.387 244.262 295.369 242.903C295.937 242.116 296.422 241.273 296.816 240.386C297.423 238.756 296.817 236.976 296.321 235.405C295.897 234.042 295.415 232.497 294.939 232.647C294.939 233.37 294.939 233.436 294.476 233.951C293.824 234.603 293.856 235.509 293.172 236.076C293.37 235.474 293.505 234.854 293.576 234.225C293.608 233.968 293.546 233.708 293.4 233.494C293.165 233.303 292.888 233.169 292.592 233.103C291.56 232.798 290.501 232.6 289.429 232.51C288.409 232.376 287.374 232.409 286.365 232.608C286.066 232.677 285.8 232.844 285.609 233.084C285.441 233.35 285.357 233.662 285.367 233.977C285.367 234.401 285.439 235.463 285.446 236.154Z" fill="#455A64"/>
<path d="M282.968 243.02C283.907 242.264 286.059 242.166 287.245 242.251C288.448 242.305 289.616 242.664 290.642 243.294C290.793 243.395 290.975 243.438 291.156 243.417C291.336 243.395 291.503 243.31 291.627 243.176C291.699 243.1 291.753 243.01 291.787 242.91C291.82 242.811 291.832 242.706 291.821 242.602C291.81 242.498 291.776 242.397 291.722 242.307C291.668 242.217 291.596 242.14 291.509 242.081C290.376 241.313 289.05 240.879 287.682 240.829C284.774 240.745 283.946 241.273 283.946 241.273C283.946 241.273 282.649 242.172 282.968 243.02Z" fill="#F5F5F5"/>
<path d="M280.856 245.758C282.036 244.995 284.416 245.002 285.596 245.106C286.778 245.181 287.921 245.566 288.908 246.221C289.058 246.322 289.239 246.365 289.419 246.344C289.598 246.322 289.764 246.237 289.886 246.104C289.959 246.029 290.015 245.939 290.05 245.839C290.085 245.74 290.097 245.635 290.087 245.53C290.076 245.426 290.043 245.325 289.989 245.235C289.935 245.145 289.862 245.067 289.775 245.009C288.623 244.2 287.268 243.731 285.863 243.652C282.949 243.561 282.218 244.18 282.218 244.18C281.887 244.324 281.593 244.54 281.357 244.814C281.121 245.087 280.949 245.41 280.856 245.758Z" fill="#F5F5F5"/>
<path d="M288.725 238.013C287.494 237.845 286.241 237.997 285.087 238.456C284.591 238.762 284.285 239.584 284.618 239.76C285.628 239.306 286.734 239.109 287.838 239.186C288.93 239.25 290.001 239.502 291.007 239.929C291.261 240.027 291.561 240.171 291.822 240.301C291.906 240.344 291.997 240.369 292.09 240.375C292.184 240.382 292.278 240.369 292.366 240.338C292.455 240.307 292.536 240.258 292.605 240.194C292.674 240.131 292.729 240.054 292.768 239.969C292.829 239.82 292.834 239.655 292.781 239.503C292.728 239.351 292.621 239.225 292.481 239.147C291.325 238.503 290.044 238.117 288.725 238.013Z" fill="#F5F5F5"/>
<path d="M238.326 239.812C238.029 240.557 238.029 241.388 238.326 242.133C238.612 242.831 242.068 244.996 246.867 244.904C250.435 244.818 253.916 243.777 256.947 241.892C258.831 240.771 260.741 240.634 263.115 240.588C265.488 240.542 268.657 239.532 269.23 238.449C269.804 237.367 269.296 235.431 269.296 235.431L238.326 239.812Z" fill="#263238"/>
<path d="M258.342 225.794L257.97 225.696C257.759 225.632 257.537 225.612 257.318 225.638C257.083 225.694 256.872 225.821 256.712 226.003C256.218 226.581 255.782 227.205 255.408 227.867C254.332 229.452 252.148 230.71 249.801 231.838C248.197 232.601 246.639 233.181 244.989 233.827C243.339 234.472 241.077 234.837 239.773 235.646C237.817 236.826 237.445 239.988 239.519 241.344C241.318 242.518 246.117 243.92 251.255 242.72C254.065 242.068 257.286 239.251 260.937 239.14C263.265 239.069 267.672 238.625 269.243 236.937C269.837 236.187 269.243 233.677 268.715 231.512C268.168 229.152 268.415 225.644 267.359 225.644L267.294 226.824C267.196 227.176 266.368 227.522 266.107 227.796L265.168 228.787C264.784 229.246 264.314 229.626 263.786 229.908C262.854 230.325 261.765 230.078 260.767 229.817C260.728 229.817 261.269 228.004 261.328 227.828C261.387 227.691 261.405 227.539 261.38 227.391C261.33 227.247 261.231 227.125 261.1 227.046C260.277 226.443 259.338 226.017 258.342 225.794Z" fill="#455A64"/>
<path d="M252.031 230.678C252.213 230.367 252.47 230.107 252.779 229.922C253.088 229.736 253.438 229.63 253.798 229.615C254.86 229.471 256.679 230.332 257.794 231.343C257.899 231.437 257.98 231.556 258.028 231.689C258.077 231.822 258.092 231.965 258.073 232.105C258.054 232.245 258 232.379 257.918 232.493C257.835 232.608 257.726 232.701 257.599 232.764C257.44 232.843 257.26 232.87 257.085 232.842C256.909 232.814 256.747 232.732 256.621 232.607C255.4 231.392 253.753 230.699 252.031 230.678Z" fill="#F5F5F5"/>
<path d="M248.679 232.353C248.924 232.041 249.24 231.792 249.601 231.627C249.961 231.463 250.357 231.387 250.753 231.408C250.753 231.408 253.504 231.616 255.128 233.286C255.228 233.377 255.304 233.491 255.351 233.619C255.397 233.746 255.412 233.883 255.394 234.018C255.376 234.152 255.326 234.281 255.248 234.391C255.17 234.502 255.066 234.593 254.945 234.655C254.791 234.73 254.618 234.756 254.449 234.729C254.28 234.702 254.123 234.624 254 234.505C253.332 233.769 252.506 233.194 251.585 232.822C250.664 232.449 249.671 232.289 248.679 232.353Z" fill="#F5F5F5"/>
<path d="M244.996 233.827C245.273 233.54 245.608 233.316 245.98 233.171C246.351 233.026 246.749 232.963 247.147 232.986C248.706 233.158 250.171 233.817 251.333 234.87C251.433 234.962 251.51 235.077 251.556 235.205C251.602 235.333 251.617 235.47 251.599 235.605C251.581 235.74 251.531 235.869 251.453 235.98C251.375 236.092 251.271 236.183 251.15 236.246C250.996 236.322 250.822 236.348 250.653 236.32C250.483 236.291 250.326 236.211 250.205 236.089C249.572 235.333 248.772 234.735 247.868 234.342C246.963 233.95 245.98 233.773 244.996 233.827Z" fill="#F5F5F5"/>
<path d="M279.056 65.4869C282.133 65.839 285.772 66.0281 288.712 66.4127C292.5 66.9083 295.454 70.8268 296.38 76.8904C297.397 83.5669 293.12 102.71 293.12 102.71L294.482 125.282C288.934 129.37 265.305 131.515 253.53 123.013C253.53 123.013 253.804 84.597 254.723 78.6768C255.988 70.5594 257.983 65.5195 267.111 64.9392L279.056 65.4869Z" fill="#455A64"/>
<path d="M300.096 114.387C299.098 116.056 298.094 117.725 297.064 119.375C296.686 119.988 296.301 120.594 295.904 121.194C295.688 121.487 295.436 121.752 295.154 121.983C294.658 122.322 293.628 122.107 293.028 122.126C290.081 122.226 287.143 122.443 284.213 122.778C283.968 122.77 283.724 122.817 283.499 122.914C283.274 123.01 283.072 123.156 282.909 123.339C282.789 123.591 282.765 123.879 282.842 124.148C282.919 124.417 283.091 124.649 283.327 124.799C283.806 125.087 284.352 125.249 284.911 125.269L287.454 125.569C287.816 125.581 288.169 125.694 288.471 125.895C289.397 126.644 287.63 127.544 287.102 127.909C286.04 128.647 284.906 129.276 283.718 129.787C278.417 132.017 277.772 133.634 278.75 135.473C279.597 137.07 283.261 142.879 292.572 137.878C296.321 135.864 302.026 129.5 304.627 126.423C308.37 121.983 314.701 112.079 314.701 112.079C318.3 107.137 318.763 105.109 318.848 103.055C318.932 101.001 307.764 85.2033 303.969 79.6548C300.174 74.1063 298.368 67.3581 288.712 66.4323C288.712 66.4323 285.035 78.09 291.125 85.6336L305.188 105.252C305.188 105.252 301.465 112.098 300.096 114.387Z" fill="#FFA8A7"/>
<path d="M310.3 87.1789C308.494 84.5709 306.61 81.8846 304.79 79.2245C297.129 68.0427 297.775 65.9954 286.73 65.8389C285.752 67.3385 285.172 73.7933 286.645 80.2742C287.878 85.7184 292.513 89.5587 292.513 89.5587L298.042 97.0502C298.042 97.0502 301.426 96.9459 305.482 93.9727C307.824 92.3321 309.526 89.9317 310.3 87.1789Z" fill="#37474F"/>
<path d="M286.339 36.1012C285.784 35.2739 285.014 34.6126 284.113 34.1878C283.212 33.7629 282.212 33.5905 281.221 33.6888L280.647 47.6872L279.708 52.8576L279.871 58.6148C280.416 58.5377 280.933 58.3239 281.373 57.9933C281.813 57.6626 282.162 57.226 282.388 56.724C283.248 55.0679 285.648 47.0613 285.648 47.0613C287.799 40.4826 287.343 37.5095 286.339 36.1012Z" fill="#263238"/>
<path d="M279.995 47.7525C280.237 46.9017 280.703 46.1316 281.345 45.5226C282.147 44.662 285.341 43.7296 286.795 46.442C288.249 49.1543 285.798 52.7338 283.907 53.8291C281.488 55.2374 280.067 53.3206 280.067 53.3206L280.125 66.2106C278.997 68.8186 273.905 71.1397 270.873 70.7746C268.461 70.4682 266.238 68.5708 268.396 65.8064L268.22 62.1291C268.22 62.1291 264.992 62.7811 263.395 62.6181C260.741 62.3442 258.974 60.3426 258.036 57.526C256.523 53.0011 255.851 49.3238 256.49 40.248C257.194 30.305 268.689 29.6334 275.098 33.2324C281.508 36.8315 279.995 47.7525 279.995 47.7525Z" fill="#FFA8A7"/>
<path d="M252.833 29.9203C252.539 27.7491 253.289 25.4215 255.564 24.6521C256.399 24.3028 257.316 24.1964 258.209 24.3452C259.102 24.494 259.934 24.8919 260.611 25.4932C260.896 24.7272 261.389 24.056 262.035 23.5549C262.681 23.0539 263.454 22.7429 264.267 22.6569C265.079 22.5708 265.9 22.7132 266.636 23.068C267.373 23.4227 267.996 23.9759 268.435 24.6651C269.039 23.7471 269.973 23.096 271.043 22.8461C271.703 22.6987 272.385 22.6851 273.051 22.8061C273.716 22.927 274.35 23.18 274.916 23.5502C275.842 24.2348 276.93 25.5062 276.657 27.1558C278.489 26.419 280.399 27.0319 281.762 28.6489C282.573 29.639 283.031 30.8707 283.066 32.1501C283.113 32.8146 283.017 33.4816 282.785 34.1061C282.525 34.6994 281.99 35.0906 281.834 35.7622C281.606 36.353 281.489 36.9807 281.488 37.6139C281.638 38.7092 281.879 39.8046 282.023 40.8739C282.177 41.9389 282.266 43.0123 282.29 44.0882C282.256 44.3413 282.168 44.584 282.032 44.8C281.896 45.016 281.715 45.2002 281.501 45.3401C280.892 45.8724 280.421 46.5433 280.125 47.2961C279.897 47.7655 279.675 48.9261 279.226 49.2521C277.837 50.2235 277.68 47.0809 277.615 46.4745C277.526 45.0829 277.526 43.6869 277.615 42.2952C276.915 42.2862 276.224 42.1307 275.587 41.8387C274.951 41.5468 274.382 41.1248 273.918 40.6C273.437 40.0103 273.12 39.3041 272.999 38.5527C272.924 38.1223 272.889 37.6857 272.895 37.2487C271.988 38.7483 269.882 39.3612 268.383 39.2047C265.866 38.9765 264.999 37.9007 264.595 37.1118C264.436 37.8895 264.094 38.618 263.597 39.2373C262.954 39.8415 262.18 40.2879 261.335 40.5413C260.606 40.7358 259.838 40.7281 259.113 40.5191C258.388 40.31 257.734 39.9075 257.221 39.3547C256.197 40.8217 253.602 40.1697 253.028 39.7589C251.724 38.8135 251.3 37.6856 251.157 36.0751C251.013 34.4647 251.665 32.6261 253.452 31.9936C253.13 31.3424 252.921 30.6414 252.833 29.9203Z" fill="#263238"/>
<path d="M268.22 62.1095C268.22 62.1095 274.049 60.636 276.044 59.4363C277.224 58.7453 278.167 57.7134 278.75 56.4762C278.498 57.6966 278.003 58.854 277.296 59.8796C275.887 61.8813 268.285 63.6808 268.285 63.6808L268.22 62.1095Z" fill="#F28F8F"/>
<path d="M268.546 47.3222C268.568 47.5691 268.662 47.8042 268.816 47.9981C268.971 48.192 269.179 48.3363 269.415 48.4129C269.651 48.4895 269.904 48.4951 270.143 48.429C270.382 48.3629 270.596 48.2281 270.759 48.0412C270.922 47.8543 271.026 47.6237 271.059 47.3779C271.092 47.1322 271.052 46.8822 270.944 46.659C270.836 46.4358 270.665 46.2493 270.452 46.1226C270.239 45.9959 269.993 45.9346 269.745 45.9464C269.405 45.9732 269.089 46.1322 268.865 46.3894C268.64 46.6466 268.526 46.9815 268.546 47.3222Z" fill="#263238"/>
<path d="M266.596 56.7566C266.626 57.0747 266.749 57.377 266.949 57.6259C267.149 57.8749 267.418 58.0595 267.722 58.1569C268.027 58.2543 268.353 58.2601 268.66 58.1736C268.968 58.0871 269.243 57.9121 269.452 57.6704C269.661 57.4287 269.795 57.131 269.836 56.8141C269.877 56.4973 269.824 56.1754 269.683 55.8884C269.543 55.6014 269.322 55.3619 269.046 55.1998C268.771 55.0377 268.454 54.9601 268.135 54.9766C267.696 55.0116 267.289 55.218 267.001 55.5511C266.713 55.8842 266.567 56.3172 266.596 56.7566Z" fill="#F28F8F"/>
<path d="M269.596 42.9798L272.282 44.2838C272.449 43.9156 272.469 43.4972 272.336 43.1151C272.204 42.7329 271.93 42.416 271.571 42.23C271.393 42.1448 271.199 42.0966 271.002 42.0884C270.805 42.0802 270.608 42.1121 270.423 42.1822C270.238 42.2523 270.07 42.3591 269.927 42.4962C269.785 42.6333 269.672 42.7978 269.596 42.9798Z" fill="#263238"/>
<path d="M257.912 44.1078L260.2 42.1518C260.081 41.9957 259.931 41.8657 259.759 41.7698C259.588 41.6738 259.399 41.6139 259.203 41.5938C259.008 41.5736 258.811 41.5936 258.623 41.6526C258.436 41.7116 258.262 41.8082 258.114 41.9366C257.809 42.2038 257.617 42.5779 257.58 42.9819C257.542 43.3858 257.661 43.7888 257.912 44.1078Z" fill="#263238"/>
<path d="M258.596 47.0679C258.612 47.3091 258.699 47.5402 258.845 47.7322C258.992 47.9243 259.192 48.0687 259.421 48.1472C259.65 48.2258 259.896 48.235 260.13 48.1738C260.364 48.1125 260.574 47.9835 260.735 47.8029C260.896 47.6224 260.999 47.3984 261.033 47.159C261.067 46.9197 261.029 46.6757 260.925 46.4578C260.82 46.2399 260.653 46.0578 260.446 45.9343C260.238 45.8108 259.998 45.7515 259.757 45.7639C259.431 45.7857 259.127 45.9346 258.91 46.1785C258.693 46.4224 258.58 46.7418 258.596 47.0679Z" fill="#263238"/>
<path d="M264.647 45.6204L264.608 53.3336L260.526 52.16L264.647 45.6204Z" fill="#F28F8F"/>
<path d="M254.404 56.411C254.442 56.4027 254.477 56.3868 254.508 56.3644C254.54 56.342 254.566 56.3135 254.586 56.2806C254.61 56.2484 254.626 56.2118 254.635 56.1731C254.643 56.1343 254.644 56.0942 254.637 56.0552C254.629 56.0162 254.614 55.9791 254.592 55.9461C254.57 55.9131 254.542 55.885 254.508 55.8633L250.961 53.5031C250.928 53.4811 250.892 53.4659 250.853 53.4582C250.814 53.4506 250.774 53.4507 250.735 53.4586C250.696 53.4665 250.659 53.4819 250.627 53.5041C250.594 53.5263 250.566 53.5548 250.544 53.5879C250.521 53.6205 250.505 53.6574 250.497 53.6964C250.489 53.7354 250.489 53.7757 250.497 53.8147C250.505 53.8538 250.521 53.8908 250.543 53.9235C250.566 53.9563 250.595 53.984 250.629 54.0051L254.169 56.3654C254.203 56.3898 254.241 56.4066 254.281 56.4145C254.322 56.4224 254.364 56.4212 254.404 56.411Z" fill="#E0E0E0"/>
<path d="M254.026 57.9367C254.081 57.923 254.131 57.8945 254.172 57.8543C254.212 57.8141 254.24 57.7637 254.254 57.7085C254.272 57.6299 254.258 57.5475 254.215 57.4791C254.172 57.4108 254.104 57.362 254.026 57.3434L249.879 56.3849C249.841 56.3752 249.8 56.3733 249.761 56.3792C249.722 56.3851 249.684 56.3988 249.65 56.4194C249.616 56.44 249.587 56.4672 249.563 56.4993C249.54 56.5315 249.523 56.568 249.514 56.6066C249.496 56.6853 249.51 56.7677 249.553 56.836C249.596 56.9044 249.664 56.9531 249.742 56.9717L253.889 57.9367C253.934 57.9432 253.98 57.9432 254.026 57.9367Z" fill="#E0E0E0"/>
<path d="M250.172 60.6947H250.212L254.208 59.2342C254.284 59.2065 254.345 59.1501 254.378 59.0774C254.412 59.0046 254.415 58.9215 254.388 58.8463C254.36 58.771 254.304 58.7099 254.231 58.6763C254.158 58.6426 254.075 58.6393 254 58.667L250.003 60.1274C249.965 60.1412 249.931 60.1623 249.902 60.1895C249.872 60.2167 249.849 60.2495 249.833 60.286C249.816 60.3224 249.807 60.3618 249.806 60.4017C249.805 60.4417 249.812 60.4814 249.827 60.5186C249.854 60.5841 249.904 60.6378 249.967 60.67C250.031 60.7023 250.103 60.711 250.172 60.6947Z" fill="#E0E0E0"/>
<path d="M216.36 91.9711C216.442 92.1365 216.571 92.2742 216.731 92.367C216.891 92.4598 217.074 92.5037 217.259 92.4933C217.444 92.4829 217.621 92.4186 217.769 92.3084C217.918 92.1982 218.031 92.047 218.094 91.8733L221.067 84.5383C221.115 84.4207 221.139 84.2946 221.138 84.1675C221.136 84.0404 221.109 83.9149 221.058 83.7986C221.007 83.6822 220.933 83.5774 220.84 83.4904C220.747 83.4033 220.638 83.3359 220.519 83.292C220.399 83.2482 220.273 83.2288 220.146 83.2351C220.019 83.2414 219.894 83.2733 219.78 83.3287C219.666 83.3842 219.564 83.4622 219.48 83.558C219.396 83.6538 219.333 83.7655 219.294 83.8863L216.314 91.2213C216.27 91.3428 216.251 91.472 216.259 91.6009C216.267 91.7299 216.301 91.8559 216.36 91.9711Z" fill="#E0E0E0"/>
<path d="M211.463 91.932C211.558 92.1242 211.716 92.2784 211.91 92.3694C212.104 92.4604 212.323 92.4827 212.531 92.4327C212.74 92.3826 212.925 92.2633 213.057 92.0941C213.189 91.9249 213.259 91.716 213.256 91.5017L213.158 82.3737C213.139 82.1373 213.031 81.917 212.856 81.7564C212.682 81.5958 212.453 81.5067 212.216 81.5067C211.979 81.5067 211.751 81.5958 211.576 81.7564C211.402 81.917 211.294 82.1373 211.274 82.3737L211.365 91.5017C211.364 91.6508 211.397 91.7983 211.463 91.932Z" fill="#E0E0E0"/>
<path d="M203.163 86.8529L203.222 86.9637L207.714 93.4837C207.853 93.6902 208.068 93.8333 208.313 93.8822C208.557 93.931 208.81 93.8815 209.018 93.7445C209.221 93.6022 209.361 93.3868 209.408 93.1437C209.455 92.9006 209.407 92.6486 209.272 92.4405L204.78 85.9205C204.649 85.7183 204.446 85.5741 204.212 85.5177C203.977 85.4614 203.73 85.4972 203.522 85.6178C203.313 85.7384 203.159 85.9345 203.091 86.1656C203.023 86.3967 203.047 86.6451 203.157 86.8594L203.163 86.8529Z" fill="#E0E0E0"/>
</svg>
